STARTFONT 2.1
FONT -Unscii-Unscii-Medium-R-Normal-fantasy-8-80-75-75-c-80-iso10646-1
SIZE 16 75 75
FONTBOUNDINGBOX 16 16 0 0
COMMENT "Generated by fontforge, http://fontforge.sourceforge.net"
STARTPROPERTIES 24
COPYRIGHT ""
FONT_VERSION "1.1"
FONT_TYPE "Bitmap"
FOUNDRY "Unscii"
FAMILY_NAME "Unscii"
WEIGHT_NAME "Medium"
SLANT "R"
SETWIDTH_NAME "Normal"
ADD_STYLE_NAME "fantasy"
PIXEL_SIZE 16
POINT_SIZE 160
RESOLUTION_X 75
RESOLUTION_Y 75
SPACING "C"
AVERAGE_WIDTH 160
CHARSET_REGISTRY "ISO10646"
CHARSET_ENCODING "1"
UNDERLINE_POSITION 0
UNDERLINE_THICKNESS 1
CAP_HEIGHT 7
X_HEIGHT 5
WEIGHT 10
RESOLUTION 103
QUAD_WIDTH 12
ENDPROPERTIES
CHARS 2391
STARTCHAR U+0000
ENCODING 0
SWIDTH 4000 0
DWIDTH 32 0
BBX 2 2 30 0
BITMAP
0000
0000
ENDCHAR
STARTCHAR U+0001
ENCODING 1
SWIDTH 2000 0
DWIDTH 16 0
BBX 14 14 0 2
BITMAP
FC00
FC00
C000
C000
FCCC
FCCC
0CCC
0CCC
FCFC
FCFC
00CC
00CC
00CC
00CC
ENDCHAR
STARTCHAR U+0002
ENCODING 2
SWIDTH 2000 0
DWIDTH 16 0
BBX 14 14 0 2
BITMAP
FC00
FC00
C000
C000
FCCC
FCCC
0CCC
0CCC
FC30
FC30
00CC
00CC
00CC
00CC
ENDCHAR
STARTCHAR U+0003
ENCODING 3
SWIDTH 2000 0
DWIDTH 16 0
BBX 14 14 0 2
BITMAP
FC00
FC00
C000
C000
F0CC
F0CC
C0CC
C0CC
FC30
FC30
00CC
00CC
00CC
00CC
ENDCHAR
STARTCHAR U+0004
ENCODING 4
SWIDTH 2000 0
DWIDTH 16 0
BBX 14 14 0 2
BITMAP
FC00
FC00
C000
C000
F0FC
F0FC
C030
C030
FC30
FC30
0030
0030
0030
0030
ENDCHAR
STARTCHAR U+0005
ENCODING 5
SWIDTH 2000 0
DWIDTH 16 0
BBX 14 14 0 2
BITMAP
FC00
FC00
C000
C000
F0FC
F0FC
C0CC
C0CC
FCCC
FCCC
00FC
00FC
0030
0030
ENDCHAR
STARTCHAR U+0006
ENCODING 6
SWIDTH 2000 0
DWIDTH 16 0
BBX 14 14 0 2
BITMAP
FC00
FC00
CC00
CC00
FCCC
FCCC
CCCC
CCCC
CCF0
CCF0
00CC
00CC
00CC
00CC
ENDCHAR
STARTCHAR U+0007
ENCODING 7
SWIDTH 2000 0
DWIDTH 16 0
BBX 14 14 0 2
BITMAP
F000
F000
CC00
CC00
F0C0
F0C0
CCC0
CCC0
F0C0
F0C0
00C0
00C0
00FC
00FC
ENDCHAR
STARTCHAR U+0008
ENCODING 8
SWIDTH 2000 0
DWIDTH 16 0
BBX 14 14 0 2
BITMAP
F000
F000
CC00
CC00
F0FC
F0FC
CCC0
CCC0
F0FC
F0FC
000C
000C
00FC
00FC
ENDCHAR
STARTCHAR U+0009
ENCODING 9
SWIDTH 2000 0
DWIDTH 16 0
BBX 14 14 0 2
BITMAP
CC00
CC00
CC00
CC00
FCFC
FCFC
CC30
CC30
CC30
CC30
0030
0030
0030
0030
ENDCHAR
STARTCHAR U+000A
ENCODING 10
SWIDTH 2000 0
DWIDTH 16 0
BBX 14 14 0 2
BITMAP
C000
C000
C000
C000
C0FC
C0FC
C0C0
C0C0
FCF0
FCF0
00C0
00C0
00C0
00C0
ENDCHAR
STARTCHAR U+000B
ENCODING 11
SWIDTH 2000 0
DWIDTH 16 0
BBX 14 14 0 2
BITMAP
CC00
CC00
CC00
CC00
CCFC
CCFC
CC30
CC30
3030
3030
0030
0030
0030
0030
ENDCHAR
STARTCHAR U+000C
ENCODING 12
SWIDTH 2000 0
DWIDTH 16 0
BBX 14 14 0 2
BITMAP
FC00
FC00
C000
C000
F0FC
F0FC
C0C0
C0C0
C0F0
C0F0
00C0
00C0
00C0
00C0
ENDCHAR
STARTCHAR U+000D
ENCODING 13
SWIDTH 2000 0
DWIDTH 16 0
BBX 14 14 0 2
BITMAP
FC00
FC00
C000
C000
C0FC
C0FC
C0CC
C0CC
FCFC
FCFC
00F0
00F0
00CC
00CC
ENDCHAR
STARTCHAR U+000E
ENCODING 14
SWIDTH 2000 0
DWIDTH 16 0
BBX 14 14 0 2
BITMAP
FC00
FC00
C000
C000
FCFC
FCFC
0CCC
0CCC
FCCC
FCCC
00CC
00CC
00FC
00FC
ENDCHAR
STARTCHAR U+000F
ENCODING 15
SWIDTH 2000 0
DWIDTH 16 0
BBX 14 14 0 2
BITMAP
FC00
FC00
C000
C000
FCFC
FCFC
0C30
0C30
FC30
FC30
0030
0030
00FC
00FC
ENDCHAR
STARTCHAR U+0010
ENCODING 16
SWIDTH 2000 0
DWIDTH 16 0
BBX 14 14 0 2
BITMAP
F000
F000
CC00
CC00
CCC0
CCC0
CCC0
CCC0
F0C0
F0C0
00C0
00C0
00FC
00FC
ENDCHAR
STARTCHAR U+0011
ENCODING 17
SWIDTH 2000 0
DWIDTH 16 0
BBX 14 14 0 2
BITMAP
F000
F000
CC00
CC00
CC30
CC30
CCF0
CCF0
F030
F030
0030
0030
00FC
00FC
ENDCHAR
STARTCHAR U+0012
ENCODING 18
SWIDTH 2000 0
DWIDTH 16 0
BBX 14 14 0 2
BITMAP
F000
F000
CC00
CC00
CCFC
CCFC
CC0C
CC0C
F0FC
F0FC
00C0
00C0
00FC
00FC
ENDCHAR
STARTCHAR U+0013
ENCODING 19
SWIDTH 2000 0
DWIDTH 16 0
BBX 14 14 0 2
BITMAP
F000
F000
CC00
CC00
CCFC
CCFC
CC0C
CC0C
F03C
F03C
000C
000C
00FC
00FC
ENDCHAR
STARTCHAR U+0014
ENCODING 20
SWIDTH 2000 0
DWIDTH 16 0
BBX 14 14 0 2
BITMAP
F000
F000
CC00
CC00
CCCC
CCCC
CCCC
CCCC
F0FC
F0FC
000C
000C
000C
000C
ENDCHAR
STARTCHAR U+0015
ENCODING 21
SWIDTH 2000 0
DWIDTH 16 0
BBX 14 14 0 2
BITMAP
FC00
FC00
CC00
CC00
CCCC
CCCC
CCCC
CCCC
CCF0
CCF0
00CC
00CC
00CC
00CC
ENDCHAR
STARTCHAR U+0016
ENCODING 22
SWIDTH 2000 0
DWIDTH 16 0
BBX 14 14 0 2
BITMAP
FC00
FC00
C000
C000
FCCC
FCCC
0CCC
0CCC
FCFC
FCFC
0030
0030
0030
0030
ENDCHAR
STARTCHAR U+0017
ENCODING 23
SWIDTH 2000 0
DWIDTH 16 0
BBX 14 14 0 2
BITMAP
FC00
FC00
C000
C000
F0F0
F0F0
C0CC
C0CC
FCF0
FCF0
00CC
00CC
00F0
00F0
ENDCHAR
STARTCHAR U+0018
ENCODING 24
SWIDTH 2000 0
DWIDTH 16 0
BBX 14 14 0 2
BITMAP
FC00
FC00
C000
C000
C0FC
C0FC
C0CC
C0CC
FCCC
FCCC
00CC
00CC
00CC
00CC
ENDCHAR
STARTCHAR U+0019
ENCODING 25
SWIDTH 2000 0
DWIDTH 16 0
BBX 14 14 0 2
BITMAP
FC00
FC00
C000
C000
F0CC
F0CC
C0FC
C0FC
FCCC
FCCC
00CC
00CC
00CC
00CC
ENDCHAR
STARTCHAR U+001A
ENCODING 26
SWIDTH 2000 0
DWIDTH 16 0
BBX 12 14 2 2
BITMAP
3FC0
3FC0
F0F0
F0F0
F0F0
F0F0
3C00
3C00
0F00
0F00
0000
0000
0F00
0F00
ENDCHAR
STARTCHAR U+001B
ENCODING 27
SWIDTH 2000 0
DWIDTH 16 0
BBX 14 14 0 2
BITMAP
FC00
FC00
C000
C000
F0FC
F0FC
C0C0
C0C0
FCC0
FCC0
00C0
00C0
00FC
00FC
ENDCHAR
STARTCHAR U+001C
ENCODING 28
SWIDTH 2000 0
DWIDTH 16 0
BBX 14 14 0 2
BITMAP
FC00
FC00
C000
C000
F0FC
F0FC
C0C0
C0C0
C0FC
C0FC
000C
000C
00FC
00FC
ENDCHAR
STARTCHAR U+001D
ENCODING 29
SWIDTH 2000 0
DWIDTH 16 0
BBX 14 14 0 2
BITMAP
FC00
FC00
C000
C000
CCFC
CCFC
CCC0
CCC0
FCFC
FCFC
000C
000C
00FC
00FC
ENDCHAR
STARTCHAR U+001E
ENCODING 30
SWIDTH 2000 0
DWIDTH 16 0
BBX 14 14 0 2
BITMAP
FC00
FC00
CC00
CC00
FCFC
FCFC
F0C0
F0C0
CCFC
CCFC
000C
000C
00FC
00FC
ENDCHAR
STARTCHAR U+001F
ENCODING 31
SWIDTH 2000 0
DWIDTH 16 0
BBX 14 14 0 2
BITMAP
CC00
CC00
CC00
CC00
CCFC
CCFC
CCC0
CCC0
FCFC
FCFC
000C
000C
00FC
00FC
ENDCHAR
STARTCHAR U+0020
ENCODING 32
SWIDTH 2000 0
DWIDTH 16 0
BBX 2 2 14 0
BITMAP
0000
0000
ENDCHAR
STARTCHAR U+0021
ENCODING 33
SWIDTH 2000 0
DWIDTH 16 0
BBX 4 14 6 2
BITMAP
F000
F000
F000
F000
F000
F000
F000
F000
F000
F000
0000
0000
F000
F000
ENDCHAR
STARTCHAR U+0022
ENCODING 34
SWIDTH 2000 0
DWIDTH 16 0
BBX 12 6 2 10
BITMAP
F0F0
F0F0
F0F0
F0F0
F0F0
F0F0
ENDCHAR
STARTCHAR U+0023
ENCODING 35
SWIDTH 2000 0
DWIDTH 16 0
BBX 14 14 0 2
BITMAP
3CF0
3CF0
3CF0
3CF0
FFFC
FFFC
3CF0
3CF0
FFFC
FFFC
3CF0
3CF0
3CF0
3CF0
ENDCHAR
STARTCHAR U+0024
ENCODING 36
SWIDTH 2000 0
DWIDTH 16 0
BBX 12 14 2 2
BITMAP
0F00
0F00
3FF0
3FF0
F000
F000
3FC0
3FC0
00F0
00F0
FFC0
FFC0
0F00
0F00
ENDCHAR
STARTCHAR U+0025
ENCODING 37
SWIDTH 2000 0
DWIDTH 16 0
BBX 14 12 0 2
BITMAP
F03C
F03C
F0F0
F0F0
03C0
03C0
0F00
0F00
3C3C
3C3C
F03C
F03C
ENDCHAR
STARTCHAR U+0026
ENCODING 38
SWIDTH 2000 0
DWIDTH 16 0
BBX 14 14 0 2
BITMAP
0FC0
0FC0
3CF0
3CF0
0FC0
0FC0
3F3C
3F3C
F3F0
F3F0
F0F0
F0F0
3F3C
3F3C
ENDCHAR
STARTCHAR U+0027
ENCODING 39
SWIDTH 2000 0
DWIDTH 16 0
BBX 6 6 4 10
BITMAP
3C00
3C00
3C00
3C00
F000
F000
ENDCHAR
STARTCHAR U+0028
ENCODING 40
SWIDTH 2000 0
DWIDTH 16 0
BBX 8 14 4 2
BITMAP
0F00
0F00
3C00
3C00
F000
F000
F000
F000
F000
F000
3C00
3C00
0F00
0F00
ENDCHAR
STARTCHAR U+0029
ENCODING 41
SWIDTH 2000 0
DWIDTH 16 0
BBX 8 14 4 2
BITMAP
F000
F000
3C00
3C00
0F00
0F00
0F00
0F00
0F00
0F00
3C00
3C00
F000
F000
ENDCHAR
STARTCHAR U+002A
ENCODING 42
SWIDTH 2000 0
DWIDTH 16 0
BBX 16 10 0 4
BITMAP
3C3C
3C3C
0FF0
0FF0
FFFF
FFFF
0FF0
0FF0
3C3C
3C3C
ENDCHAR
STARTCHAR U+002B
ENCODING 43
SWIDTH 2000 0
DWIDTH 16 0
BBX 12 10 2 4
BITMAP
0F00
0F00
0F00
0F00
FFF0
FFF0
0F00
0F00
0F00
0F00
ENDCHAR
STARTCHAR U+002C
ENCODING 44
SWIDTH 2000 0
DWIDTH 16 0
BBX 6 6 4 0
BITMAP
3C00
3C00
3C00
3C00
F000
F000
ENDCHAR
STARTCHAR U+002D
ENCODING 45
SWIDTH 2000 0
DWIDTH 16 0
BBX 12 2 2 8
BITMAP
FFF0
FFF0
ENDCHAR
STARTCHAR U+002E
ENCODING 46
SWIDTH 2000 0
DWIDTH 16 0
BBX 4 4 6 2
BITMAP
F000
F000
F000
F000
ENDCHAR
STARTCHAR U+002F
ENCODING 47
SWIDTH 2000 0
DWIDTH 16 0
BBX 16 14 0 2
BITMAP
000F
000F
003C
003C
00F0
00F0
03C0
03C0
0F00
0F00
3C00
3C00
F000
F000
ENDCHAR
STARTCHAR U+0030
ENCODING 48
SWIDTH 2000 0
DWIDTH 16 0
BBX 14 14 0 2
BITMAP
0FF0
0FF0
3CFC
3CFC
F03C
F03C
F03C
F03C
F03C
F03C
FCF0
FCF0
3FC0
3FC0
ENDCHAR
STARTCHAR U+0031
ENCODING 49
SWIDTH 2000 0
DWIDTH 16 0
BBX 6 14 4 2
BITMAP
0C00
0C00
3C00
3C00
FC00
FC00
3C00
3C00
3C00
3C00
3C00
3C00
0C00
0C00
ENDCHAR
STARTCHAR U+0032
ENCODING 50
SWIDTH 2000 0
DWIDTH 16 0
BBX 14 14 0 2
BITMAP
3FF0
3FF0
F0FC
F0FC
C0FC
C0FC
03F0
03F0
3F00
3F00
F03C
F03C
FFF0
FFF0
ENDCHAR
STARTCHAR U+0033
ENCODING 51
SWIDTH 2000 0
DWIDTH 16 0
BBX 12 14 2 2
BITMAP
3FC0
3FC0
F0F0
F0F0
03C0
03C0
0FC0
0FC0
00F0
00F0
C3C0
C3C0
3F00
3F00
ENDCHAR
STARTCHAR U+0034
ENCODING 52
SWIDTH 2000 0
DWIDTH 16 0
BBX 14 14 0 2
BITMAP
3030
3030
F0F0
F0F0
F0F0
F0F0
FFFC
FFFC
30F0
30F0
00F0
00F0
00C0
00C0
ENDCHAR
STARTCHAR U+0035
ENCODING 53
SWIDTH 2000 0
DWIDTH 16 0
BBX 14 14 0 2
BITMAP
FFF0
FFF0
F000
F000
FFF0
FFF0
00FC
00FC
303C
303C
FC3C
FC3C
3FC0
3FC0
ENDCHAR
STARTCHAR U+0036
ENCODING 54
SWIDTH 2000 0
DWIDTH 16 0
BBX 12 14 2 2
BITMAP
0FC0
0FC0
3C00
3C00
FFC0
FFC0
F0F0
F0F0
F030
F030
FC30
FC30
3FC0
3FC0
ENDCHAR
STARTCHAR U+0037
ENCODING 55
SWIDTH 2000 0
DWIDTH 16 0
BBX 14 14 0 2
BITMAP
3FFC
3FFC
FC3C
FC3C
00F0
00F0
0FFC
0FFC
03C0
03C0
0FC0
0FC0
0FC0
0FC0
ENDCHAR
STARTCHAR U+0038
ENCODING 56
SWIDTH 2000 0
DWIDTH 16 0
BBX 14 14 0 2
BITMAP
0FF0
0FF0
3F3C
3F3C
0F3C
0F3C
3FF0
3FF0
F0FC
F0FC
F0FC
F0FC
3FF0
3FF0
ENDCHAR
STARTCHAR U+0039
ENCODING 57
SWIDTH 2000 0
DWIDTH 16 0
BBX 12 14 2 2
BITMAP
3FC0
3FC0
C3F0
C3F0
C0F0
C0F0
F0F0
F0F0
3FF0
3FF0
03C0
03C0
3F00
3F00
ENDCHAR
STARTCHAR U+003A
ENCODING 58
SWIDTH 2000 0
DWIDTH 16 0
BBX 4 12 6 2
BITMAP
F000
F000
F000
F000
0000
0000
0000
0000
F000
F000
F000
F000
ENDCHAR
STARTCHAR U+003B
ENCODING 59
SWIDTH 2000 0
DWIDTH 16 0
BBX 6 14 4 0
BITMAP
3C00
3C00
3C00
3C00
0000
0000
0000
0000
3C00
3C00
3C00
3C00
F000
F000
ENDCHAR
STARTCHAR U+003C
ENCODING 60
SWIDTH 2000 0
DWIDTH 16 0
BBX 10 14 2 2
BITMAP
03C0
03C0
0F00
0F00
3C00
3C00
F000
F000
3C00
3C00
0F00
0F00
03C0
03C0
ENDCHAR
STARTCHAR U+003D
ENCODING 61
SWIDTH 2000 0
DWIDTH 16 0
BBX 12 6 2 6
BITMAP
FFF0
FFF0
0000
0000
FFF0
FFF0
ENDCHAR
STARTCHAR U+003E
ENCODING 62
SWIDTH 2000 0
DWIDTH 16 0
BBX 10 14 2 2
BITMAP
F000
F000
3C00
3C00
0F00
0F00
03C0
03C0
0F00
0F00
3C00
3C00
F000
F000
ENDCHAR
STARTCHAR U+003F
ENCODING 63
SWIDTH 2000 0
DWIDTH 16 0
BBX 12 14 2 2
BITMAP
3FC0
3FC0
F0F0
F0F0
00F0
00F0
03C0
03C0
0F00
0F00
0000
0000
0F00
0F00
ENDCHAR
STARTCHAR U+0040
ENCODING 64
SWIDTH 2000 0
DWIDTH 16 0
BBX 14 14 0 2
BITMAP
3FF0
3FF0
F03C
F03C
F3FC
F3FC
F3FC
F3FC
F3FC
F3FC
F000
F000
3FF0
3FF0
ENDCHAR
STARTCHAR U+0041
ENCODING 65
SWIDTH 2000 0
DWIDTH 16 0
BBX 14 14 0 2
BITMAP
03FC
03FC
3CF0
3CF0
F0F0
F0F0
FFF0
FFF0
F0F0
F0F0
3CF0
3CF0
FCFC
FCFC
ENDCHAR
STARTCHAR U+0042
ENCODING 66
SWIDTH 2000 0
DWIDTH 16 0
BBX 14 14 0 2
BITMAP
FFC0
FFC0
3CF0
3CF0
FFC0
FFC0
3CF0
3CF0
3C3C
3C3C
3C3C
3C3C
FFF0
FFF0
ENDCHAR
STARTCHAR U+0043
ENCODING 67
SWIDTH 2000 0
DWIDTH 16 0
BBX 14 14 0 2
BITMAP
0FC0
0FC0
3CF0
3CF0
F000
F000
F000
F000
F000
F000
FC3C
FC3C
3FF0
3FF0
ENDCHAR
STARTCHAR U+0044
ENCODING 68
SWIDTH 2000 0
DWIDTH 16 0
BBX 14 14 0 2
BITMAP
FF00
FF00
3FC0
3FC0
3CF0
3CF0
3C3C
3C3C
3C3C
3C3C
3C3C
3C3C
FFF0
FFF0
ENDCHAR
STARTCHAR U+0045
ENCODING 69
SWIDTH 2000 0
DWIDTH 16 0
BBX 14 14 0 2
BITMAP
0FC0
0FC0
3CF0
3CF0
F000
F000
FF00
FF00
F000
F000
FC3C
FC3C
3FF0
3FF0
ENDCHAR
STARTCHAR U+0046
ENCODING 70
SWIDTH 2000 0
DWIDTH 16 0
BBX 14 14 0 2
BITMAP
FFF0
FFF0
3C3C
3C3C
FC00
FC00
3FC0
3FC0
3C00
3C00
3C00
3C00
F000
F000
ENDCHAR
STARTCHAR U+0047
ENCODING 71
SWIDTH 2000 0
DWIDTH 16 0
BBX 14 14 0 2
BITMAP
0FC0
0FC0
3CF0
3CF0
F000
F000
F3FC
F3FC
F0F0
F0F0
3CF0
3CF0
0FF0
0FF0
ENDCHAR
STARTCHAR U+0048
ENCODING 72
SWIDTH 2000 0
DWIDTH 16 0
BBX 14 14 0 2
BITMAP
FCFC
FCFC
3C3C
3C3C
3C3C
3C3C
FFFC
FFFC
3CFC
3CFC
3C3C
3C3C
FCFC
FCFC
ENDCHAR
STARTCHAR U+0049
ENCODING 73
SWIDTH 2000 0
DWIDTH 16 0
BBX 12 14 2 2
BITMAP
0FF0
0FF0
FF00
FF00
0F00
0F00
0F00
0F00
0F00
0F00
0FF0
0FF0
FF00
FF00
ENDCHAR
STARTCHAR U+004A
ENCODING 74
SWIDTH 2000 0
DWIDTH 16 0
BBX 14 14 0 2
BITMAP
0FFC
0FFC
3CF0
3CF0
00F0
00F0
00F0
00F0
F0F0
F0F0
F0F0
F0F0
3FC0
3FC0
ENDCHAR
STARTCHAR U+004B
ENCODING 75
SWIDTH 2000 0
DWIDTH 16 0
BBX 14 14 0 2
BITMAP
FC3C
FC3C
3CF0
3CF0
FFC0
FFC0
3CF0
3CF0
3CF0
3CF0
3CF0
3CF0
FC3C
FC3C
ENDCHAR
STARTCHAR U+004C
ENCODING 76
SWIDTH 2000 0
DWIDTH 16 0
BBX 14 14 0 2
BITMAP
3C00
3C00
0F00
0F00
0F00
0F00
0F00
0F00
3C00
3C00
3F00
3F00
F3FC
F3FC
ENDCHAR
STARTCHAR U+004D
ENCODING 77
SWIDTH 2000 0
DWIDTH 16 0
BBX 14 14 0 2
BITMAP
3C3C
3C3C
F0FC
F0FC
FFFC
FFFC
F33C
F33C
F03C
F03C
F03C
F03C
F0F0
F0F0
ENDCHAR
STARTCHAR U+004E
ENCODING 78
SWIDTH 2000 0
DWIDTH 16 0
BBX 14 14 0 2
BITMAP
FC3C
FC3C
3F3C
3F3C
3FFC
3FFC
3CFC
3CFC
3C3C
3C3C
3C3C
3C3C
F0F0
F0F0
ENDCHAR
STARTCHAR U+004F
ENCODING 79
SWIDTH 2000 0
DWIDTH 16 0
BBX 14 14 0 2
BITMAP
0FC0
0FC0
3CF0
3CF0
F03C
F03C
F03C
F03C
F03C
F03C
FCF0
FCF0
3FC0
3FC0
ENDCHAR
STARTCHAR U+0050
ENCODING 80
SWIDTH 2000 0
DWIDTH 16 0
BBX 14 14 0 2
BITMAP
F3F0
F3F0
3C3C
3C3C
3CF0
3CF0
3FC0
3FC0
3C00
3C00
3C00
3C00
F000
F000
ENDCHAR
STARTCHAR U+0051
ENCODING 81
SWIDTH 2000 0
DWIDTH 16 0
BBX 14 14 0 2
BITMAP
0FC0
0FC0
3CF0
3CF0
F03C
F03C
F03C
F03C
F0CC
F0CC
FCF0
FCF0
3F3C
3F3C
ENDCHAR
STARTCHAR U+0052
ENCODING 82
SWIDTH 2000 0
DWIDTH 16 0
BBX 14 14 0 2
BITMAP
F3F0
F3F0
3C3C
3C3C
3CF0
3CF0
3FC0
3FC0
3CF0
3CF0
3CF0
3CF0
F03C
F03C
ENDCHAR
STARTCHAR U+0053
ENCODING 83
SWIDTH 2000 0
DWIDTH 16 0
BBX 14 14 0 2
BITMAP
03F0
03F0
0F3C
0F3C
3C00
3C00
0FF0
0FF0
003C
003C
F03C
F03C
3FF0
3FF0
ENDCHAR
STARTCHAR U+0054
ENCODING 84
SWIDTH 2000 0
DWIDTH 16 0
BBX 14 14 0 2
BITMAP
3FFC
3FFC
F3C0
F3C0
33C0
33C0
03C0
03C0
0F00
0F00
0F00
0F00
0F00
0F00
ENDCHAR
STARTCHAR U+0055
ENCODING 85
SWIDTH 2000 0
DWIDTH 16 0
BBX 14 14 0 2
BITMAP
FCFC
FCFC
3C3C
3C3C
3C3C
3C3C
F03C
F03C
F03C
F03C
FC3C
FC3C
3FF0
3FF0
ENDCHAR
STARTCHAR U+0056
ENCODING 86
SWIDTH 2000 0
DWIDTH 16 0
BBX 14 14 0 2
BITMAP
FCFC
FCFC
3C3C
3C3C
3C3C
3C3C
F03C
F03C
F0F0
F0F0
3FC0
3FC0
0F00
0F00
ENDCHAR
STARTCHAR U+0057
ENCODING 87
SWIDTH 2000 0
DWIDTH 16 0
BBX 14 14 0 2
BITMAP
3C0C
3C0C
F03C
F03C
F03C
F03C
F33C
F33C
FFFC
FFFC
FCFC
FCFC
F030
F030
ENDCHAR
STARTCHAR U+0058
ENCODING 88
SWIDTH 2000 0
DWIDTH 16 0
BBX 14 14 0 2
BITMAP
F03C
F03C
3CF0
3CF0
0FF0
0FF0
0FC0
0FC0
3FC0
3FC0
3CF0
3CF0
F03C
F03C
ENDCHAR
STARTCHAR U+0059
ENCODING 89
SWIDTH 2000 0
DWIDTH 16 0
BBX 14 14 0 2
BITMAP
3C3C
3C3C
F0F0
F0F0
F0F0
F0F0
3FF0
3FF0
00F0
00F0
F3C0
F3C0
3F00
3F00
ENDCHAR
STARTCHAR U+005A
ENCODING 90
SWIDTH 2000 0
DWIDTH 16 0
BBX 12 14 0 2
BITMAP
FFC0
FFC0
00F0
00F0
F3F0
F3F0
3FC0
3FC0
FCF0
FCF0
F000
F000
FFC0
FFC0
ENDCHAR
STARTCHAR U+005B
ENCODING 91
SWIDTH 2000 0
DWIDTH 16 0
BBX 8 14 4 2
BITMAP
FF00
FF00
F000
F000
F000
F000
F000
F000
F000
F000
F000
F000
FF00
FF00
ENDCHAR
STARTCHAR U+005C
ENCODING 92
SWIDTH 2000 0
DWIDTH 16 0
BBX 16 14 0 2
BITMAP
F000
F000
3C00
3C00
0F00
0F00
03C0
03C0
00F0
00F0
003C
003C
000F
000F
ENDCHAR
STARTCHAR U+005D
ENCODING 93
SWIDTH 2000 0
DWIDTH 16 0
BBX 8 14 4 2
BITMAP
FF00
FF00
0F00
0F00
0F00
0F00
0F00
0F00
0F00
0F00
0F00
0F00
FF00
FF00
ENDCHAR
STARTCHAR U+005E
ENCODING 94
SWIDTH 2000 0
DWIDTH 16 0
BBX 14 8 0 8
BITMAP
0300
0300
0FC0
0FC0
3CF0
3CF0
F03C
F03C
ENDCHAR
STARTCHAR U+005F
ENCODING 95
SWIDTH 2000 0
DWIDTH 16 0
BBX 16 2 0 0
BITMAP
FFFF
FFFF
ENDCHAR
STARTCHAR U+0060
ENCODING 96
SWIDTH 2000 0
DWIDTH 16 0
BBX 8 6 6 10
BITMAP
F000
F000
3C00
3C00
0F00
0F00
ENDCHAR
STARTCHAR U+0061
ENCODING 97
SWIDTH 2000 0
DWIDTH 16 0
BBX 12 10 2 2
BITMAP
3FC0
3FC0
F3C0
F3C0
F3C0
F3C0
F3C0
F3C0
3CF0
3CF0
ENDCHAR
STARTCHAR U+0062
ENCODING 98
SWIDTH 2000 0
DWIDTH 16 0
BBX 12 14 2 2
BITMAP
3C00
3C00
3C00
3C00
3FC0
3FC0
3CF0
3CF0
3CF0
3CF0
3CF0
3CF0
F3C0
F3C0
ENDCHAR
STARTCHAR U+0063
ENCODING 99
SWIDTH 2000 0
DWIDTH 16 0
BBX 12 10 2 2
BITMAP
3FC0
3FC0
F0F0
F0F0
F000
F000
F0F0
F0F0
FFF0
FFF0
ENDCHAR
STARTCHAR U+0064
ENCODING 100
SWIDTH 2000 0
DWIDTH 16 0
BBX 12 14 2 2
BITMAP
0F00
0F00
03C0
03C0
3FC0
3FC0
F3C0
F3C0
F3C0
F3C0
F3C0
F3C0
3FF0
3FF0
ENDCHAR
STARTCHAR U+0065
ENCODING 101
SWIDTH 2000 0
DWIDTH 16 0
BBX 12 10 2 2
BITMAP
3FF0
3FF0
F0F0
F0F0
FFF0
FFF0
F000
F000
FFC0
FFC0
ENDCHAR
STARTCHAR U+0066
ENCODING 102
SWIDTH 2000 0
DWIDTH 16 0
BBX 12 14 2 2
BITMAP
0FC0
0FC0
3CF0
3CF0
3C00
3C00
FFF0
FFF0
3C00
3C00
3C00
3C00
F000
F000
ENDCHAR
STARTCHAR U+0067
ENCODING 103
SWIDTH 2000 0
DWIDTH 16 0
BBX 12 12 2 0
BITMAP
3FF0
3FF0
F0F0
F0F0
F0F0
F0F0
FFF0
FFF0
00F0
00F0
FFC0
FFC0
ENDCHAR
STARTCHAR U+0068
ENCODING 104
SWIDTH 2000 0
DWIDTH 16 0
BBX 12 14 2 2
BITMAP
F000
F000
F000
F000
F000
F000
FF00
FF00
F3C0
F3C0
F3C0
F3C0
F0F0
F0F0
ENDCHAR
STARTCHAR U+0069
ENCODING 105
SWIDTH 2000 0
DWIDTH 16 0
BBX 6 12 6 2
BITMAP
F000
F000
0000
0000
F000
F000
F000
F000
F000
F000
3C00
3C00
ENDCHAR
STARTCHAR U+006A
ENCODING 106
SWIDTH 2000 0
DWIDTH 16 0
BBX 12 14 2 0
BITMAP
03C0
03C0
0000
0000
03F0
03F0
03C0
03C0
03C0
03C0
03C0
03C0
FF00
FF00
ENDCHAR
STARTCHAR U+006B
ENCODING 107
SWIDTH 2000 0
DWIDTH 16 0
BBX 12 14 2 2
BITMAP
F000
F000
F000
F000
FFC0
FFC0
F3C0
F3C0
FF00
FF00
F3C0
F3C0
F0F0
F0F0
ENDCHAR
STARTCHAR U+006C
ENCODING 108
SWIDTH 2000 0
DWIDTH 16 0
BBX 6 14 6 2
BITMAP
F000
F000
F000
F000
F000
F000
F000
F000
F000
F000
F000
F000
3C00
3C00
ENDCHAR
STARTCHAR U+006D
ENCODING 109
SWIDTH 2000 0
DWIDTH 16 0
BBX 14 10 0 2
BITMAP
3C3C
3C3C
FFFC
FFFC
F33C
F33C
F03C
F03C
F03C
F03C
ENDCHAR
STARTCHAR U+006E
ENCODING 110
SWIDTH 2000 0
DWIDTH 16 0
BBX 12 10 2 2
BITMAP
FF00
FF00
F3C0
F3C0
F3C0
F3C0
F3C0
F3C0
F0F0
F0F0
ENDCHAR
STARTCHAR U+006F
ENCODING 111
SWIDTH 2000 0
DWIDTH 16 0
BBX 12 10 2 2
BITMAP
3FF0
3FF0
F0F0
F0F0
F0F0
F0F0
F0F0
F0F0
FFC0
FFC0
ENDCHAR
STARTCHAR U+0070
ENCODING 112
SWIDTH 2000 0
DWIDTH 16 0
BBX 14 12 0 0
BITMAP
0FFC
0FFC
3C3C
3C3C
3C3C
3C3C
FFF0
FFF0
3C00
3C00
3C00
3C00
ENDCHAR
STARTCHAR U+0071
ENCODING 113
SWIDTH 2000 0
DWIDTH 16 0
BBX 12 12 2 0
BITMAP
3FF0
3FF0
F0F0
F0F0
F0F0
F0F0
FFF0
FFF0
00F0
00F0
00F0
00F0
ENDCHAR
STARTCHAR U+0072
ENCODING 114
SWIDTH 2000 0
DWIDTH 16 0
BBX 12 10 2 2
BITMAP
F3C0
F3C0
FCF0
FCF0
F000
F000
F000
F000
F000
F000
ENDCHAR
STARTCHAR U+0073
ENCODING 115
SWIDTH 2000 0
DWIDTH 16 0
BBX 12 10 2 2
BITMAP
3FF0
3FF0
F000
F000
FFF0
FFF0
00F0
00F0
FFC0
FFC0
ENDCHAR
STARTCHAR U+0074
ENCODING 116
SWIDTH 2000 0
DWIDTH 16 0
BBX 12 14 2 2
BITMAP
0C00
0C00
0F00
0F00
FFF0
FFF0
0F00
0F00
0F00
0F00
0F00
0F00
03C0
03C0
ENDCHAR
STARTCHAR U+0075
ENCODING 117
SWIDTH 2000 0
DWIDTH 16 0
BBX 14 10 0 2
BITMAP
F0F0
F0F0
F0F0
F0F0
F0F0
F0F0
F0F0
F0F0
3F3C
3F3C
ENDCHAR
STARTCHAR U+0076
ENCODING 118
SWIDTH 2000 0
DWIDTH 16 0
BBX 14 10 0 2
BITMAP
F0FC
F0FC
F0F0
F0F0
F0F0
F0F0
F3C0
F3C0
FF00
FF00
ENDCHAR
STARTCHAR U+0077
ENCODING 119
SWIDTH 2000 0
DWIDTH 16 0
BBX 14 10 0 2
BITMAP
F03C
F03C
F03C
F03C
F33C
F33C
FFFC
FFFC
F0F0
F0F0
ENDCHAR
STARTCHAR U+0078
ENCODING 120
SWIDTH 2000 0
DWIDTH 16 0
BBX 12 10 2 2
BITMAP
F0F0
F0F0
3FC0
3FC0
0F00
0F00
3FC0
3FC0
F0F0
F0F0
ENDCHAR
STARTCHAR U+0079
ENCODING 121
SWIDTH 2000 0
DWIDTH 16 0
BBX 14 12 0 0
BITMAP
F0FC
F0FC
F0F0
F0F0
F0F0
F0F0
3FF0
3FF0
00F0
00F0
0FC0
0FC0
ENDCHAR
STARTCHAR U+007A
ENCODING 122
SWIDTH 2000 0
DWIDTH 16 0
BBX 12 10 2 2
BITMAP
3FF0
3FF0
03C0
03C0
0F00
0F00
3C00
3C00
FFC0
FFC0
ENDCHAR
STARTCHAR U+007B
ENCODING 123
SWIDTH 2000 0
DWIDTH 16 0
BBX 12 14 2 2
BITMAP
03F0
03F0
0F00
0F00
0F00
0F00
FC00
FC00
0F00
0F00
0F00
0F00
03F0
03F0
ENDCHAR
STARTCHAR U+007C
ENCODING 124
SWIDTH 2000 0
DWIDTH 16 0
BBX 4 14 6 2
BITMAP
F000
F000
F000
F000
F000
F000
F000
F000
F000
F000
F000
F000
F000
F000
ENDCHAR
STARTCHAR U+007D
ENCODING 125
SWIDTH 2000 0
DWIDTH 16 0
BBX 12 14 2 2
BITMAP
FC00
FC00
0F00
0F00
0F00
0F00
03F0
03F0
0F00
0F00
0F00
0F00
FC00
FC00
ENDCHAR
STARTCHAR U+007E
ENCODING 126
SWIDTH 2000 0
DWIDTH 16 0
BBX 14 4 0 12
BITMAP
3F3C
3F3C
F3F0
F3F0
ENDCHAR
STARTCHAR U+007F
ENCODING 127
SWIDTH 2000 0
DWIDTH 16 0
BBX 14 14 0 2
BITMAP
F000
F000
CC00
CC00
CCFC
CCFC
CC30
CC30
F030
F030
0030
0030
0030
0030
ENDCHAR
STARTCHAR U+0080
ENCODING 128
SWIDTH 2000 0
DWIDTH 16 0
BBX 14 14 0 2
BITMAP
FC00
FC00
CC00
CC00
FCFC
FCFC
CCCC
CCCC
FCCC
FCCC
00CC
00CC
00FC
00FC
ENDCHAR
STARTCHAR U+0081
ENCODING 129
SWIDTH 2000 0
DWIDTH 16 0
BBX 14 14 0 2
BITMAP
FC00
FC00
CC00
CC00
FC30
FC30
CCF0
CCF0
FC30
FC30
0030
0030
00FC
00FC
ENDCHAR
STARTCHAR U+0082
ENCODING 130
SWIDTH 2000 0
DWIDTH 16 0
BBX 14 14 0 2
BITMAP
FC00
FC00
CC00
CC00
FCFC
FCFC
CC0C
CC0C
FCFC
FCFC
00C0
00C0
00FC
00FC
ENDCHAR
STARTCHAR U+0083
ENCODING 131
SWIDTH 2000 0
DWIDTH 16 0
BBX 14 14 0 2
BITMAP
FC00
FC00
CC00
CC00
FCFC
FCFC
CC0C
CC0C
FCFC
FCFC
000C
000C
00FC
00FC
ENDCHAR
STARTCHAR U+0084
ENCODING 132
SWIDTH 2000 0
DWIDTH 16 0
BBX 14 14 0 2
BITMAP
FC00
FC00
3000
3000
30FC
30FC
30CC
30CC
FCCC
FCCC
00CC
00CC
00CC
00CC
ENDCHAR
STARTCHAR U+0085
ENCODING 133
SWIDTH 2000 0
DWIDTH 16 0
BBX 14 14 0 2
BITMAP
FC00
FC00
CC00
CC00
CCC0
CCC0
CCC0
CCC0
CCC0
CCC0
00C0
00C0
00FC
00FC
ENDCHAR
STARTCHAR U+0086
ENCODING 134
SWIDTH 2000 0
DWIDTH 16 0
BBX 14 14 0 2
BITMAP
FC00
FC00
C000
C000
FCFC
FCFC
0CC0
0CC0
FCFC
FCFC
000C
000C
00FC
00FC
ENDCHAR
STARTCHAR U+0087
ENCODING 135
SWIDTH 2000 0
DWIDTH 16 0
BBX 14 14 0 2
BITMAP
FC00
FC00
C000
C000
F0FC
F0FC
C0C0
C0C0
FCFC
FCFC
000C
000C
00FC
00FC
ENDCHAR
STARTCHAR U+0088
ENCODING 136
SWIDTH 2000 0
DWIDTH 16 0
BBX 14 14 0 2
BITMAP
CC00
CC00
CC00
CC00
FCFC
FCFC
CCC0
CCC0
CCFC
CCFC
000C
000C
00FC
00FC
ENDCHAR
STARTCHAR U+0089
ENCODING 137
SWIDTH 2000 0
DWIDTH 16 0
BBX 14 14 0 2
BITMAP
CC00
CC00
CC00
CC00
FC0C
FC0C
CC0C
CC0C
CC0C
CC0C
00CC
00CC
00FC
00FC
ENDCHAR
STARTCHAR U+008A
ENCODING 138
SWIDTH 2000 0
DWIDTH 16 0
BBX 14 14 0 2
BITMAP
CC00
CC00
CC00
CC00
CCFC
CCFC
CCC0
CCC0
30FC
30FC
000C
000C
00FC
00FC
ENDCHAR
STARTCHAR U+008B
ENCODING 139
SWIDTH 2000 0
DWIDTH 16 0
BBX 14 14 0 2
BITMAP
FC00
FC00
CC00
CC00
FCF0
FCF0
C0CC
C0CC
C0CC
C0CC
00CC
00CC
00F0
00F0
ENDCHAR
STARTCHAR U+008C
ENCODING 140
SWIDTH 2000 0
DWIDTH 16 0
BBX 14 14 0 2
BITMAP
FC00
FC00
CC00
CC00
FCCC
FCCC
C0CC
C0CC
C0CC
C0CC
00CC
00CC
00FC
00FC
ENDCHAR
STARTCHAR U+008D
ENCODING 141
SWIDTH 2000 0
DWIDTH 16 0
BBX 14 14 0 2
BITMAP
F000
F000
CC00
CC00
F0FC
F0FC
CC30
CC30
CC30
CC30
0030
0030
00FC
00FC
ENDCHAR
STARTCHAR U+008E
ENCODING 142
SWIDTH 2000 0
DWIDTH 16 0
BBX 14 14 0 2
BITMAP
FC00
FC00
C000
C000
FCFC
FCFC
0C0C
0C0C
FCFC
FCFC
00C0
00C0
00FC
00FC
ENDCHAR
STARTCHAR U+008F
ENCODING 143
SWIDTH 2000 0
DWIDTH 16 0
BBX 14 14 0 2
BITMAP
FC00
FC00
C000
C000
FCFC
FCFC
0C0C
0C0C
FC3C
FC3C
000C
000C
00FC
00FC
ENDCHAR
STARTCHAR U+0090
ENCODING 144
SWIDTH 2000 0
DWIDTH 16 0
BBX 14 14 0 2
BITMAP
F000
F000
CC00
CC00
CCFC
CCFC
CCC0
CCC0
F0C0
F0C0
00C0
00C0
00FC
00FC
ENDCHAR
STARTCHAR U+0091
ENCODING 145
SWIDTH 2000 0
DWIDTH 16 0
BBX 14 14 0 2
BITMAP
FC00
FC00
CC00
CC00
FC30
FC30
C0F0
C0F0
C030
C030
0030
0030
00FC
00FC
ENDCHAR
STARTCHAR U+0092
ENCODING 146
SWIDTH 2000 0
DWIDTH 16 0
BBX 14 14 0 2
BITMAP
FC00
FC00
CC00
CC00
FCFC
FCFC
C00C
C00C
C0FC
C0FC
00C0
00C0
00FC
00FC
ENDCHAR
STARTCHAR U+0093
ENCODING 147
SWIDTH 2000 0
DWIDTH 16 0
BBX 14 14 0 2
BITMAP
FC00
FC00
C000
C000
FCFC
FCFC
0CC0
0CC0
FCF0
FCF0
00C0
00C0
00FC
00FC
ENDCHAR
STARTCHAR U+0094
ENCODING 148
SWIDTH 2000 0
DWIDTH 16 0
BBX 14 14 0 2
BITMAP
FC00
FC00
C000
C000
C0FC
C0FC
C0C0
C0C0
FCC0
FCC0
00C0
00C0
00FC
00FC
ENDCHAR
STARTCHAR U+0095
ENCODING 149
SWIDTH 2000 0
DWIDTH 16 0
BBX 14 14 0 2
BITMAP
CC00
CC00
FC00
FC00
FCCC
FCCC
CCCC
CCCC
CCFC
CCFC
00FC
00FC
00CC
00CC
ENDCHAR
STARTCHAR U+0096
ENCODING 150
SWIDTH 2000 0
DWIDTH 16 0
BBX 14 14 0 2
BITMAP
FC00
FC00
C000
C000
FCFC
FCFC
0CCC
0CCC
FCFC
FCFC
00C0
00C0
00C0
00C0
ENDCHAR
STARTCHAR U+0097
ENCODING 151
SWIDTH 2000 0
DWIDTH 16 0
BBX 14 14 0 2
BITMAP
FC00
FC00
C000
C000
F0FC
F0FC
C0CC
C0CC
FCFC
FCFC
00C0
00C0
00C0
00C0
ENDCHAR
STARTCHAR U+0098
ENCODING 152
SWIDTH 2000 0
DWIDTH 16 0
BBX 14 14 0 2
BITMAP
FC00
FC00
CC00
CC00
FCFC
FCFC
0CCC
0CCC
FCFC
FCFC
00CC
00CC
00FC
00FC
ENDCHAR
STARTCHAR U+0099
ENCODING 153
SWIDTH 2000 0
DWIDTH 16 0
BBX 14 14 0 2
BITMAP
FC00
FC00
CC00
CC00
FCFC
FCFC
0CCC
0CCC
FCFC
FCFC
000C
000C
00FC
00FC
ENDCHAR
STARTCHAR U+009A
ENCODING 154
SWIDTH 2000 0
DWIDTH 16 0
BBX 14 14 0 2
BITMAP
FC00
FC00
CC00
CC00
FCFC
FCFC
0CCC
0CCC
FCFC
FCFC
00CC
00CC
00CC
00CC
ENDCHAR
STARTCHAR U+009B
ENCODING 155
SWIDTH 2000 0
DWIDTH 16 0
BBX 14 14 0 2
BITMAP
FC00
FC00
C000
C000
C0FC
C0FC
C0C0
C0C0
FCFC
FCFC
000C
000C
00FC
00FC
ENDCHAR
STARTCHAR U+009C
ENCODING 156
SWIDTH 2000 0
DWIDTH 16 0
BBX 14 14 0 2
BITMAP
FC00
FC00
C000
C000
FCFC
FCFC
0C30
0C30
FC30
FC30
0030
0030
0030
0030
ENDCHAR
STARTCHAR U+009D
ENCODING 157
SWIDTH 2000 0
DWIDTH 16 0
BBX 14 14 0 2
BITMAP
FC00
FC00
CC00
CC00
CCFC
CCFC
CCC0
CCC0
FCFC
FCFC
000C
000C
00FC
00FC
ENDCHAR
STARTCHAR U+009E
ENCODING 158
SWIDTH 2000 0
DWIDTH 16 0
BBX 14 14 0 2
BITMAP
FC00
FC00
CC00
CC00
FCCC
FCCC
C0FC
C0FC
C0FC
C0FC
00CC
00CC
00CC
00CC
ENDCHAR
STARTCHAR U+009F
ENCODING 159
SWIDTH 2000 0
DWIDTH 16 0
BBX 14 14 0 2
BITMAP
FC00
FC00
CC00
CC00
FCFC
FCFC
CCCC
CCCC
CCFC
CCFC
00C0
00C0
00C0
00C0
ENDCHAR
STARTCHAR U+00A0
ENCODING 160
SWIDTH 2000 0
DWIDTH 16 0
BBX 2 2 14 0
BITMAP
0000
0000
ENDCHAR
STARTCHAR U+00A1
ENCODING 161
SWIDTH 2000 0
DWIDTH 16 0
BBX 4 14 6 2
BITMAP
F000
F000
0000
0000
F000
F000
F000
F000
F000
F000
F000
F000
F000
F000
ENDCHAR
STARTCHAR U+00A2
ENCODING 162
SWIDTH 2000 0
DWIDTH 16 0
BBX 14 12 0 2
BITMAP
03C0
03C0
3FFC
3FFC
F3C0
F3C0
F3C0
F3C0
3FFC
3FFC
03C0
03C0
ENDCHAR
STARTCHAR U+00A3
ENCODING 163
SWIDTH 2000 0
DWIDTH 16 0
BBX 14 14 0 2
BITMAP
0FC0
0FC0
3CF0
3CF0
3C00
3C00
FF00
FF00
3C00
3C00
3C3C
3C3C
FFF0
FFF0
ENDCHAR
STARTCHAR U+00A4
ENCODING 164
SWIDTH 2000 0
DWIDTH 16 0
BBX 12 10 2 6
BITMAP
F0F0
F0F0
3FC0
3FC0
F0F0
F0F0
3FC0
3FC0
F0F0
F0F0
ENDCHAR
STARTCHAR U+00A5
ENCODING 165
SWIDTH 2000 0
DWIDTH 16 0
BBX 16 14 0 2
BITMAP
F00F
F00F
3C3C
3C3C
0FF0
0FF0
03C0
03C0
0FF0
0FF0
03C0
03C0
03C0
03C0
ENDCHAR
STARTCHAR U+00A6
ENCODING 166
SWIDTH 2000 0
DWIDTH 16 0
BBX 4 14 6 2
BITMAP
F000
F000
F000
F000
F000
F000
0000
0000
F000
F000
F000
F000
F000
F000
ENDCHAR
STARTCHAR U+00A7
ENCODING 167
SWIDTH 2000 0
DWIDTH 16 0
BBX 12 16 2 0
BITMAP
3FC0
3FC0
F000
F000
3FC0
3FC0
F0F0
F0F0
F0F0
F0F0
3FC0
3FC0
00F0
00F0
3FC0
3FC0
ENDCHAR
STARTCHAR U+00A8
ENCODING 168
SWIDTH 2000 0
DWIDTH 16 0
BBX 12 2 2 14
BITMAP
F0F0
F0F0
ENDCHAR
STARTCHAR U+00A9
ENCODING 169
SWIDTH 2000 0
DWIDTH 16 0
BBX 16 16 0 0
BITMAP
3FFC
3FFC
C003
C003
C3F3
C3F3
CF03
CF03
CF03
CF03
C3F3
C3F3
C003
C003
3FFC
3FFC
ENDCHAR
STARTCHAR U+00AA
ENCODING 170
SWIDTH 2000 0
DWIDTH 16 0
BBX 12 12 2 4
BITMAP
3FC0
3FC0
F3C0
F3C0
F3C0
F3C0
3FF0
3FF0
0000
0000
FFF0
FFF0
ENDCHAR
STARTCHAR U+00AB
ENCODING 171
SWIDTH 2000 0
DWIDTH 16 0
BBX 16 10 0 4
BITMAP
0F0F
0F0F
3C3C
3C3C
F0F0
F0F0
3C3C
3C3C
0F0F
0F0F
ENDCHAR
STARTCHAR U+00AC
ENCODING 172
SWIDTH 2000 0
DWIDTH 16 0
BBX 12 6 2 8
BITMAP
FFF0
FFF0
00F0
00F0
00F0
00F0
ENDCHAR
STARTCHAR U+00AD
ENCODING 173
SWIDTH 2000 0
DWIDTH 16 0
BBX 8 2 4 8
BITMAP
FF00
FF00
ENDCHAR
STARTCHAR U+00AE
ENCODING 174
SWIDTH 2000 0
DWIDTH 16 0
BBX 16 16 0 0
BITMAP
3FFC
3FFC
C003
C003
CFC3
CFC3
CC33
CC33
CFC3
CFC3
CC33
CC33
C003
C003
3FFC
3FFC
ENDCHAR
STARTCHAR U+00AF
ENCODING 175
SWIDTH 2000 0
DWIDTH 16 0
BBX 12 2 2 14
BITMAP
FFF0
FFF0
ENDCHAR
STARTCHAR U+00B0
ENCODING 176
SWIDTH 2000 0
DWIDTH 16 0
BBX 12 6 2 10
BITMAP
3FC0
3FC0
F0F0
F0F0
3FC0
3FC0
ENDCHAR
STARTCHAR U+00B1
ENCODING 177
SWIDTH 2000 0
DWIDTH 16 0
BBX 12 14 2 2
BITMAP
0F00
0F00
0F00
0F00
FFF0
FFF0
0F00
0F00
0F00
0F00
0000
0000
FFF0
FFF0
ENDCHAR
STARTCHAR U+00B2
ENCODING 178
SWIDTH 2000 0
DWIDTH 16 0
BBX 8 10 2 6
BITMAP
FC00
FC00
0F00
0F00
3C00
3C00
F000
F000
FF00
FF00
ENDCHAR
STARTCHAR U+00B3
ENCODING 179
SWIDTH 2000 0
DWIDTH 16 0
BBX 10 10 2 6
BITMAP
FF00
FF00
03C0
03C0
0F00
0F00
03C0
03C0
FF00
FF00
ENDCHAR
STARTCHAR U+00B4
ENCODING 180
SWIDTH 2000 0
DWIDTH 16 0
BBX 8 6 4 10
BITMAP
0F00
0F00
3C00
3C00
F000
F000
ENDCHAR
STARTCHAR U+00B5
ENCODING 181
SWIDTH 2000 0
DWIDTH 16 0
BBX 14 12 0 0
BITMAP
3C3C
3C3C
3C3C
3C3C
3C3C
3C3C
3FF0
3FF0
3C00
3C00
F000
F000
ENDCHAR
STARTCHAR U+00B6
ENCODING 182
SWIDTH 2000 0
DWIDTH 16 0
BBX 12 14 2 2
BITMAP
3FF0
3FF0
FF30
FF30
FF30
FF30
3F30
3F30
0F30
0F30
0F30
0F30
0F30
0F30
ENDCHAR
STARTCHAR U+00B7
ENCODING 183
SWIDTH 2000 0
DWIDTH 16 0
BBX 4 2 6 8
BITMAP
F000
F000
ENDCHAR
STARTCHAR U+00B8
ENCODING 184
SWIDTH 2000 0
DWIDTH 16 0
BBX 4 4 6 0
BITMAP
3000
3000
F000
F000
ENDCHAR
STARTCHAR U+00B9
ENCODING 185
SWIDTH 2000 0
DWIDTH 16 0
BBX 6 10 2 6
BITMAP
3C00
3C00
FC00
FC00
3C00
3C00
3C00
3C00
3C00
3C00
ENDCHAR
STARTCHAR U+00BA
ENCODING 186
SWIDTH 2000 0
DWIDTH 16 0
BBX 10 12 2 4
BITMAP
3F00
3F00
F3C0
F3C0
F3C0
F3C0
3F00
3F00
0000
0000
FFC0
FFC0
ENDCHAR
STARTCHAR U+00BB
ENCODING 187
SWIDTH 2000 0
DWIDTH 16 0
BBX 16 10 0 4
BITMAP
F0F0
F0F0
3C3C
3C3C
0F0F
0F0F
3C3C
3C3C
F0F0
F0F0
ENDCHAR
STARTCHAR U+00BC
ENCODING 188
SWIDTH 2000 0
DWIDTH 16 0
BBX 16 16 0 0
BITMAP
300F
300F
F03C
F03C
30F0
30F0
33CC
33CC
0F3C
0F3C
3CCC
3CCC
F0FF
F0FF
000C
000C
ENDCHAR
STARTCHAR U+00BD
ENCODING 189
SWIDTH 2000 0
DWIDTH 16 0
BBX 16 16 0 0
BITMAP
3000
3000
F03C
F03C
30F0
30F0
33FC
33FC
0F0F
0F0F
3C3C
3C3C
F0F0
F0F0
00FF
00FF
ENDCHAR
STARTCHAR U+00BE
ENCODING 190
SWIDTH 2000 0
DWIDTH 16 0
BBX 16 16 0 0
BITMAP
F000
F000
0C0F
0C0F
3C3C
3C3C
0CF3
0CF3
F3CF
F3CF
0F33
0F33
3C3F
3C3F
0003
0003
ENDCHAR
STARTCHAR U+00BF
ENCODING 191
SWIDTH 2000 0
DWIDTH 16 0
BBX 12 14 2 2
BITMAP
0F00
0F00
0000
0000
0F00
0F00
3C00
3C00
F000
F000
F0F0
F0F0
3FC0
3FC0
ENDCHAR
STARTCHAR U+00C0
ENCODING 192
SWIDTH 2000 0
DWIDTH 16 0
BBX 12 14 2 2
BITMAP
FC00
FC00
0000
0000
3FC0
3FC0
F0F0
F0F0
FFF0
FFF0
F0F0
F0F0
F0F0
F0F0
ENDCHAR
STARTCHAR U+00C1
ENCODING 193
SWIDTH 2000 0
DWIDTH 16 0
BBX 12 14 2 2
BITMAP
03F0
03F0
0000
0000
3FC0
3FC0
F0F0
F0F0
FFF0
FFF0
F0F0
F0F0
F0F0
F0F0
ENDCHAR
STARTCHAR U+00C2
ENCODING 194
SWIDTH 2000 0
DWIDTH 16 0
BBX 12 14 2 2
BITMAP
0F00
0F00
F0F0
F0F0
0000
0000
3FC0
3FC0
F0F0
F0F0
FFF0
FFF0
F0F0
F0F0
ENDCHAR
STARTCHAR U+00C3
ENCODING 195
SWIDTH 2000 0
DWIDTH 16 0
BBX 14 14 0 2
BITMAP
3F3C
3F3C
F3F0
F3F0
0000
0000
0FF0
0FF0
3C3C
3C3C
3FFC
3FFC
3C3C
3C3C
ENDCHAR
STARTCHAR U+00C4
ENCODING 196
SWIDTH 2000 0
DWIDTH 16 0
BBX 12 14 2 2
BITMAP
F0F0
F0F0
0000
0000
3FC0
3FC0
F0F0
F0F0
FFF0
FFF0
F0F0
F0F0
F0F0
F0F0
ENDCHAR
STARTCHAR U+00C5
ENCODING 197
SWIDTH 2000 0
DWIDTH 16 0
BBX 12 14 2 2
BITMAP
0F00
0F00
0F00
0F00
0000
0000
3FC0
3FC0
F0F0
F0F0
FFF0
FFF0
F0F0
F0F0
ENDCHAR
STARTCHAR U+00C6
ENCODING 198
SWIDTH 2000 0
DWIDTH 16 0
BBX 16 14 0 2
BITMAP
0FFF
0FFF
3CF0
3CF0
F0F0
F0F0
FFFC
FFFC
F0F0
F0F0
F0F0
F0F0
F0FF
F0FF
ENDCHAR
STARTCHAR U+00C7
ENCODING 199
SWIDTH 2000 0
DWIDTH 16 0
BBX 14 16 0 0
BITMAP
0FC0
0FC0
3CF0
3CF0
F000
F000
F000
F000
F000
F000
FC3C
FC3C
3FF0
3FF0
03C0
03C0
ENDCHAR
STARTCHAR U+00C8
ENCODING 200
SWIDTH 2000 0
DWIDTH 16 0
BBX 12 14 2 2
BITMAP
FC00
FC00
0000
0000
3FC0
3FC0
F0F0
F0F0
FFF0
FFF0
F0F0
F0F0
F0F0
F0F0
ENDCHAR
STARTCHAR U+00C9
ENCODING 201
SWIDTH 2000 0
DWIDTH 16 0
BBX 12 14 2 2
BITMAP
03F0
03F0
0000
0000
3FC0
3FC0
F0F0
F0F0
FFF0
FFF0
F0F0
F0F0
F0F0
F0F0
ENDCHAR
STARTCHAR U+00CA
ENCODING 202
SWIDTH 2000 0
DWIDTH 16 0
BBX 14 14 0 2
BITMAP
03C0
03C0
3C3C
3C3C
0000
0000
FFFC
FFFC
FF00
FF00
F000
F000
FFFC
FFFC
ENDCHAR
STARTCHAR U+00CB
ENCODING 203
SWIDTH 2000 0
DWIDTH 16 0
BBX 12 14 2 2
BITMAP
F0F0
F0F0
0000
0000
3FC0
3FC0
F0F0
F0F0
FFF0
FFF0
F0F0
F0F0
F0F0
F0F0
ENDCHAR
STARTCHAR U+00CC
ENCODING 204
SWIDTH 2000 0
DWIDTH 16 0
BBX 12 14 2 2
BITMAP
FC00
FC00
0000
0000
FFF0
FFF0
0F00
0F00
0F00
0F00
0F00
0F00
FFF0
FFF0
ENDCHAR
STARTCHAR U+00CD
ENCODING 205
SWIDTH 2000 0
DWIDTH 16 0
BBX 12 14 2 2
BITMAP
03F0
03F0
0000
0000
FFF0
FFF0
0F00
0F00
0F00
0F00
0F00
0F00
FFF0
FFF0
ENDCHAR
STARTCHAR U+00CE
ENCODING 206
SWIDTH 2000 0
DWIDTH 16 0
BBX 12 14 2 2
BITMAP
0F00
0F00
F0F0
F0F0
0000
0000
FFF0
FFF0
0F00
0F00
0F00
0F00
FFF0
FFF0
ENDCHAR
STARTCHAR U+00CF
ENCODING 207
SWIDTH 2000 0
DWIDTH 16 0
BBX 12 14 2 2
BITMAP
F0F0
F0F0
0000
0000
FFF0
FFF0
0F00
0F00
0F00
0F00
0F00
0F00
FFF0
FFF0
ENDCHAR
STARTCHAR U+00D0
ENCODING 208
SWIDTH 2000 0
DWIDTH 16 0
BBX 14 14 0 2
BITMAP
3FC0
3FC0
3CF0
3CF0
3C3C
3C3C
FF3C
FF3C
3C3C
3C3C
3CF0
3CF0
3FC0
3FC0
ENDCHAR
STARTCHAR U+00D1
ENCODING 209
SWIDTH 2000 0
DWIDTH 16 0
BBX 14 14 0 2
BITMAP
3F3C
3F3C
F3F0
F3F0
0000
0000
F03C
F03C
FF3C
FF3C
F3FC
F3FC
F03C
F03C
ENDCHAR
STARTCHAR U+00D2
ENCODING 210
SWIDTH 2000 0
DWIDTH 16 0
BBX 14 14 0 2
BITMAP
3F00
3F00
0000
0000
3FF0
3FF0
F03C
F03C
F03C
F03C
F03C
F03C
3FF0
3FF0
ENDCHAR
STARTCHAR U+00D3
ENCODING 211
SWIDTH 2000 0
DWIDTH 16 0
BBX 14 14 0 2
BITMAP
00FC
00FC
0000
0000
3FF0
3FF0
F03C
F03C
F03C
F03C
F03C
F03C
3FF0
3FF0
ENDCHAR
STARTCHAR U+00D4
ENCODING 212
SWIDTH 2000 0
DWIDTH 16 0
BBX 14 14 0 2
BITMAP
03C0
03C0
3C3C
3C3C
0000
0000
3FF0
3FF0
F03C
F03C
F03C
F03C
3FF0
3FF0
ENDCHAR
STARTCHAR U+00D5
ENCODING 213
SWIDTH 2000 0
DWIDTH 16 0
BBX 14 14 0 2
BITMAP
3F3C
3F3C
F3F0
F3F0
0000
0000
3FF0
3FF0
F03C
F03C
F03C
F03C
3FF0
3FF0
ENDCHAR
STARTCHAR U+00D6
ENCODING 214
SWIDTH 2000 0
DWIDTH 16 0
BBX 14 14 0 2
BITMAP
3C3C
3C3C
0000
0000
3FF0
3FF0
F03C
F03C
F03C
F03C
F03C
F03C
3FF0
3FF0
ENDCHAR
STARTCHAR U+00D7
ENCODING 215
SWIDTH 2000 0
DWIDTH 16 0
BBX 14 10 0 4
BITMAP
F03C
F03C
3CF0
3CF0
0FC0
0FC0
3CF0
3CF0
F03C
F03C
ENDCHAR
STARTCHAR U+00D8
ENCODING 216
SWIDTH 2000 0
DWIDTH 16 0
BBX 12 14 2 2
BITMAP
3FF0
3FF0
F0F0
F0F0
F3F0
F3F0
FFF0
FFF0
FCF0
FCF0
F0F0
F0F0
FFC0
FFC0
ENDCHAR
STARTCHAR U+00D9
ENCODING 217
SWIDTH 2000 0
DWIDTH 16 0
BBX 14 14 0 2
BITMAP
3F00
3F00
0000
0000
F03C
F03C
F03C
F03C
F03C
F03C
F03C
F03C
3FF0
3FF0
ENDCHAR
STARTCHAR U+00DA
ENCODING 218
SWIDTH 2000 0
DWIDTH 16 0
BBX 14 14 0 2
BITMAP
00FC
00FC
0000
0000
F03C
F03C
F03C
F03C
F03C
F03C
F03C
F03C
3FF0
3FF0
ENDCHAR
STARTCHAR U+00DB
ENCODING 219
SWIDTH 2000 0
DWIDTH 16 0
BBX 14 14 0 2
BITMAP
03C0
03C0
3C3C
3C3C
0000
0000
F03C
F03C
F03C
F03C
F03C
F03C
3FF0
3FF0
ENDCHAR
STARTCHAR U+00DC
ENCODING 220
SWIDTH 2000 0
DWIDTH 16 0
BBX 14 14 0 2
BITMAP
3C3C
3C3C
0000
0000
F03C
F03C
F03C
F03C
F03C
F03C
F03C
F03C
3FF0
3FF0
ENDCHAR
STARTCHAR U+00DD
ENCODING 221
SWIDTH 2000 0
DWIDTH 16 0
BBX 12 14 2 2
BITMAP
03F0
03F0
0000
0000
F0F0
F0F0
F0F0
F0F0
3FC0
3FC0
0F00
0F00
0F00
0F00
ENDCHAR
STARTCHAR U+00DE
ENCODING 222
SWIDTH 2000 0
DWIDTH 16 0
BBX 14 14 0 2
BITMAP
F000
F000
F000
F000
FFF0
FFF0
F03C
F03C
FFF0
FFF0
F000
F000
F000
F000
ENDCHAR
STARTCHAR U+00DF
ENCODING 223
SWIDTH 2000 0
DWIDTH 16 0
BBX 12 14 2 2
BITMAP
3FC0
3FC0
F0F0
F0F0
F0F0
F0F0
F3C0
F3C0
F0F0
F0F0
F0F0
F0F0
F3C0
F3C0
ENDCHAR
STARTCHAR U+00E0
ENCODING 224
SWIDTH 2000 0
DWIDTH 16 0
BBX 12 14 2 2
BITMAP
FC00
FC00
0000
0000
3FC0
3FC0
F3C0
F3C0
F3C0
F3C0
F3C0
F3C0
3CF0
3CF0
ENDCHAR
STARTCHAR U+00E1
ENCODING 225
SWIDTH 2000 0
DWIDTH 16 0
BBX 12 14 2 2
BITMAP
03F0
03F0
0000
0000
3FC0
3FC0
F3C0
F3C0
F3C0
F3C0
F3C0
F3C0
3CF0
3CF0
ENDCHAR
STARTCHAR U+00E2
ENCODING 226
SWIDTH 2000 0
DWIDTH 16 0
BBX 14 14 0 2
BITMAP
03C0
03C0
3C3C
3C3C
0000
0000
0FFC
0FFC
3C3C
3C3C
F03C
F03C
3FFC
3FFC
ENDCHAR
STARTCHAR U+00E3
ENCODING 227
SWIDTH 2000 0
DWIDTH 16 0
BBX 14 14 0 2
BITMAP
3F3C
3F3C
F3F0
F3F0
0FF0
0FF0
3CF0
3CF0
3CF0
3CF0
3CF0
3CF0
0F3C
0F3C
ENDCHAR
STARTCHAR U+00E4
ENCODING 228
SWIDTH 2000 0
DWIDTH 16 0
BBX 12 14 2 2
BITMAP
F0F0
F0F0
0000
0000
3FC0
3FC0
F3C0
F3C0
F3C0
F3C0
F3C0
F3C0
3CF0
3CF0
ENDCHAR
STARTCHAR U+00E5
ENCODING 229
SWIDTH 2000 0
DWIDTH 16 0
BBX 14 14 0 2
BITMAP
03C0
03C0
03C0
03C0
0000
0000
0FFC
0FFC
3C3C
3C3C
F03C
F03C
3FFC
3FFC
ENDCHAR
STARTCHAR U+00E6
ENCODING 230
SWIDTH 2000 0
DWIDTH 16 0
BBX 16 10 0 2
BITMAP
3FFC
3FFC
03CF
03CF
3FFF
3FFF
F3C0
F3C0
3F3F
3F3F
ENDCHAR
STARTCHAR U+00E7
ENCODING 231
SWIDTH 2000 0
DWIDTH 16 0
BBX 12 12 2 0
BITMAP
3FC0
3FC0
F0F0
F0F0
F000
F000
F0F0
F0F0
FFF0
FFF0
0F00
0F00
ENDCHAR
STARTCHAR U+00E8
ENCODING 232
SWIDTH 2000 0
DWIDTH 16 0
BBX 12 14 2 2
BITMAP
FC00
FC00
0000
0000
3FF0
3FF0
F0F0
F0F0
FFF0
FFF0
F000
F000
FFC0
FFC0
ENDCHAR
STARTCHAR U+00E9
ENCODING 233
SWIDTH 2000 0
DWIDTH 16 0
BBX 12 14 2 2
BITMAP
03F0
03F0
0000
0000
3FF0
3FF0
F0F0
F0F0
FFF0
FFF0
F000
F000
FFC0
FFC0
ENDCHAR
STARTCHAR U+00EA
ENCODING 234
SWIDTH 2000 0
DWIDTH 16 0
BBX 12 14 2 2
BITMAP
0F00
0F00
F0F0
F0F0
0000
0000
3FC0
3FC0
FFF0
FFF0
F000
F000
3FC0
3FC0
ENDCHAR
STARTCHAR U+00EB
ENCODING 235
SWIDTH 2000 0
DWIDTH 16 0
BBX 12 14 2 2
BITMAP
F0F0
F0F0
0000
0000
3FF0
3FF0
F0F0
F0F0
FFF0
FFF0
F000
F000
FFC0
FFC0
ENDCHAR
STARTCHAR U+00EC
ENCODING 236
SWIDTH 2000 0
DWIDTH 16 0
BBX 10 14 2 2
BITMAP
FC00
FC00
0000
0000
3F00
3F00
0F00
0F00
0F00
0F00
0F00
0F00
3FC0
3FC0
ENDCHAR
STARTCHAR U+00ED
ENCODING 237
SWIDTH 2000 0
DWIDTH 16 0
BBX 10 14 4 2
BITMAP
0FC0
0FC0
0000
0000
FC00
FC00
3C00
3C00
3C00
3C00
3C00
3C00
FF00
FF00
ENDCHAR
STARTCHAR U+00EE
ENCODING 238
SWIDTH 2000 0
DWIDTH 16 0
BBX 12 14 2 2
BITMAP
0F00
0F00
F0F0
F0F0
0000
0000
3F00
3F00
0F00
0F00
0F00
0F00
3FC0
3FC0
ENDCHAR
STARTCHAR U+00EF
ENCODING 239
SWIDTH 2000 0
DWIDTH 16 0
BBX 12 14 2 2
BITMAP
F0F0
F0F0
0000
0000
3F00
3F00
0F00
0F00
0F00
0F00
0F00
0F00
3FC0
3FC0
ENDCHAR
STARTCHAR U+00F0
ENCODING 240
SWIDTH 2000 0
DWIDTH 16 0
BBX 14 14 0 2
BITMAP
00F0
00F0
0FFC
0FFC
00F0
00F0
3FF0
3FF0
F0F0
F0F0
F0F0
F0F0
3FC0
3FC0
ENDCHAR
STARTCHAR U+00F1
ENCODING 241
SWIDTH 2000 0
DWIDTH 16 0
BBX 14 14 0 2
BITMAP
3F3C
3F3C
F3F0
F3F0
3FC0
3FC0
3CF0
3CF0
3CF0
3CF0
3CF0
3CF0
3C3C
3C3C
ENDCHAR
STARTCHAR U+00F2
ENCODING 242
SWIDTH 2000 0
DWIDTH 16 0
BBX 12 14 2 2
BITMAP
FC00
FC00
0000
0000
3FF0
3FF0
F0F0
F0F0
F0F0
F0F0
F0F0
F0F0
FFC0
FFC0
ENDCHAR
STARTCHAR U+00F3
ENCODING 243
SWIDTH 2000 0
DWIDTH 16 0
BBX 12 14 2 2
BITMAP
03F0
03F0
0000
0000
3FF0
3FF0
F0F0
F0F0
F0F0
F0F0
F0F0
F0F0
FFC0
FFC0
ENDCHAR
STARTCHAR U+00F4
ENCODING 244
SWIDTH 2000 0
DWIDTH 16 0
BBX 12 14 2 2
BITMAP
0F00
0F00
F0F0
F0F0
0000
0000
3FC0
3FC0
F0F0
F0F0
F0F0
F0F0
3FC0
3FC0
ENDCHAR
STARTCHAR U+00F5
ENCODING 245
SWIDTH 2000 0
DWIDTH 16 0
BBX 14 14 0 2
BITMAP
3F3C
3F3C
F3F0
F3F0
0FFC
0FFC
3C3C
3C3C
3C3C
3C3C
3C3C
3C3C
3FF0
3FF0
ENDCHAR
STARTCHAR U+00F6
ENCODING 246
SWIDTH 2000 0
DWIDTH 16 0
BBX 12 14 2 2
BITMAP
F0F0
F0F0
0000
0000
3FF0
3FF0
F0F0
F0F0
F0F0
F0F0
F0F0
F0F0
FFC0
FFC0
ENDCHAR
STARTCHAR U+00F7
ENCODING 247
SWIDTH 2000 0
DWIDTH 16 0
BBX 12 14 2 2
BITMAP
0F00
0F00
0F00
0F00
0000
0000
FFF0
FFF0
0000
0000
0F00
0F00
0F00
0F00
ENDCHAR
STARTCHAR U+00F8
ENCODING 248
SWIDTH 2000 0
DWIDTH 16 0
BBX 14 14 0 0
BITMAP
000C
000C
3FF0
3FF0
F0FC
F0FC
F33C
F33C
FC3C
FC3C
3FF0
3FF0
C000
C000
ENDCHAR
STARTCHAR U+00F9
ENCODING 249
SWIDTH 2000 0
DWIDTH 16 0
BBX 14 14 0 2
BITMAP
3F00
3F00
0000
0000
F0F0
F0F0
F0F0
F0F0
F0F0
F0F0
F0F0
F0F0
3F3C
3F3C
ENDCHAR
STARTCHAR U+00FA
ENCODING 250
SWIDTH 2000 0
DWIDTH 16 0
BBX 14 14 0 2
BITMAP
00FC
00FC
0000
0000
F0F0
F0F0
F0F0
F0F0
F0F0
F0F0
F0F0
F0F0
3F3C
3F3C
ENDCHAR
STARTCHAR U+00FB
ENCODING 251
SWIDTH 2000 0
DWIDTH 16 0
BBX 12 14 2 2
BITMAP
0F00
0F00
F0F0
F0F0
0000
0000
F0F0
F0F0
F0F0
F0F0
F0F0
F0F0
3FF0
3FF0
ENDCHAR
STARTCHAR U+00FC
ENCODING 252
SWIDTH 2000 0
DWIDTH 16 0
BBX 14 14 0 2
BITMAP
3C3C
3C3C
0000
0000
F0F0
F0F0
F0F0
F0F0
F0F0
F0F0
F0F0
F0F0
3F3C
3F3C
ENDCHAR
STARTCHAR U+00FD
ENCODING 253
SWIDTH 2000 0
DWIDTH 16 0
BBX 14 16 0 0
BITMAP
00FC
00FC
0000
0000
F0FC
F0FC
F0F0
F0F0
F0F0
F0F0
3FF0
3FF0
00F0
00F0
0FC0
0FC0
ENDCHAR
STARTCHAR U+00FE
ENCODING 254
SWIDTH 2000 0
DWIDTH 16 0
BBX 12 16 2 0
BITMAP
F000
F000
F000
F000
FFC0
FFC0
F0F0
F0F0
F0F0
F0F0
FFC0
FFC0
F000
F000
F000
F000
ENDCHAR
STARTCHAR U+00FF
ENCODING 255
SWIDTH 2000 0
DWIDTH 16 0
BBX 14 16 0 0
BITMAP
3C3C
3C3C
0000
0000
F0FC
F0FC
F0F0
F0F0
F0F0
F0F0
3FF0
3FF0
00F0
00F0
0FC0
0FC0
ENDCHAR
STARTCHAR U+0100
ENCODING 256
SWIDTH 2000 0
DWIDTH 16 0
BBX 12 14 2 2
BITMAP
FFF0
FFF0
0000
0000
3FC0
3FC0
F0F0
F0F0
FFF0
FFF0
F0F0
F0F0
F0F0
F0F0
ENDCHAR
STARTCHAR U+0101
ENCODING 257
SWIDTH 2000 0
DWIDTH 16 0
BBX 12 14 2 2
BITMAP
FFF0
FFF0
0000
0000
3FC0
3FC0
F3C0
F3C0
F3C0
F3C0
F3C0
F3C0
3CF0
3CF0
ENDCHAR
STARTCHAR U+0102
ENCODING 258
SWIDTH 2000 0
DWIDTH 16 0
BBX 14 14 0 2
BITMAP
F03C
F03C
3FF0
3FF0
0000
0000
0FF0
0FF0
3C3C
3C3C
3FFC
3FFC
3C3C
3C3C
ENDCHAR
STARTCHAR U+0103
ENCODING 259
SWIDTH 2000 0
DWIDTH 16 0
BBX 14 14 0 2
BITMAP
F03C
F03C
3FF0
3FF0
0FF0
0FF0
3CF0
3CF0
3CF0
3CF0
3CF0
3CF0
0F3C
0F3C
ENDCHAR
STARTCHAR U+0104
ENCODING 260
SWIDTH 2000 0
DWIDTH 16 0
BBX 14 16 0 0
BITMAP
03FC
03FC
3CF0
3CF0
F0F0
F0F0
FFF0
FFF0
F0F0
F0F0
3CF0
3CF0
FCFC
FCFC
00FC
00FC
ENDCHAR
STARTCHAR U+0105
ENCODING 261
SWIDTH 2000 0
DWIDTH 16 0
BBX 12 12 2 0
BITMAP
3FC0
3FC0
F3C0
F3C0
F3C0
F3C0
F3C0
F3C0
3CF0
3CF0
03F0
03F0
ENDCHAR
STARTCHAR U+0106
ENCODING 262
SWIDTH 2000 0
DWIDTH 16 0
BBX 14 14 0 2
BITMAP
00FC
00FC
0000
0000
3FFC
3FFC
F000
F000
F000
F000
F000
F000
3FFC
3FFC
ENDCHAR
STARTCHAR U+0107
ENCODING 263
SWIDTH 2000 0
DWIDTH 16 0
BBX 12 14 2 2
BITMAP
03F0
03F0
0000
0000
3FC0
3FC0
F0F0
F0F0
F000
F000
F0F0
F0F0
FFF0
FFF0
ENDCHAR
STARTCHAR U+0108
ENCODING 264
SWIDTH 2000 0
DWIDTH 16 0
BBX 14 14 0 2
BITMAP
03C0
03C0
3C3C
3C3C
0000
0000
3FFC
3FFC
F000
F000
F000
F000
3FFC
3FFC
ENDCHAR
STARTCHAR U+0109
ENCODING 265
SWIDTH 2000 0
DWIDTH 16 0
BBX 12 14 2 2
BITMAP
0F00
0F00
F0F0
F0F0
3FC0
3FC0
F0F0
F0F0
F000
F000
F0F0
F0F0
FFF0
FFF0
ENDCHAR
STARTCHAR U+010A
ENCODING 266
SWIDTH 2000 0
DWIDTH 16 0
BBX 14 14 0 2
BITMAP
03C0
03C0
0000
0000
3FFC
3FFC
F000
F000
F000
F000
F000
F000
3FFC
3FFC
ENDCHAR
STARTCHAR U+010B
ENCODING 267
SWIDTH 2000 0
DWIDTH 16 0
BBX 12 14 2 2
BITMAP
0F00
0F00
0000
0000
3FC0
3FC0
F0F0
F0F0
F000
F000
F0F0
F0F0
FFF0
FFF0
ENDCHAR
STARTCHAR U+010C
ENCODING 268
SWIDTH 2000 0
DWIDTH 16 0
BBX 14 14 0 2
BITMAP
3C3C
3C3C
03C0
03C0
0000
0000
3FFC
3FFC
F000
F000
F000
F000
3FFC
3FFC
ENDCHAR
STARTCHAR U+010D
ENCODING 269
SWIDTH 2000 0
DWIDTH 16 0
BBX 12 14 2 2
BITMAP
F0F0
F0F0
0F00
0F00
3FC0
3FC0
F0F0
F0F0
F000
F000
F0F0
F0F0
FFF0
FFF0
ENDCHAR
STARTCHAR U+010E
ENCODING 270
SWIDTH 2000 0
DWIDTH 16 0
BBX 12 14 2 2
BITMAP
F0F0
F0F0
0F00
0F00
0000
0000
FFC0
FFC0
F0F0
F0F0
F0F0
F0F0
FFC0
FFC0
ENDCHAR
STARTCHAR U+010F
ENCODING 271
SWIDTH 2000 0
DWIDTH 16 0
BBX 14 14 0 2
BITMAP
03CC
03CC
03CC
03CC
3FC0
3FC0
F3C0
F3C0
F3C0
F3C0
F3C0
F3C0
3FC0
3FC0
ENDCHAR
STARTCHAR U+0110
ENCODING 272
SWIDTH 2000 0
DWIDTH 16 0
BBX 14 14 0 2
BITMAP
3FC0
3FC0
3CF0
3CF0
3C3C
3C3C
FF3C
FF3C
3C3C
3C3C
3CF0
3CF0
3FC0
3FC0
ENDCHAR
STARTCHAR U+0111
ENCODING 273
SWIDTH 2000 0
DWIDTH 16 0
BBX 14 14 2 2
BITMAP
00F0
00F0
0FFC
0FFC
00F0
00F0
3FF0
3FF0
F0F0
F0F0
F0F0
F0F0
3FF0
3FF0
ENDCHAR
STARTCHAR U+0112
ENCODING 274
SWIDTH 2000 0
DWIDTH 16 0
BBX 14 14 0 2
BITMAP
3FFC
3FFC
0000
0000
FFFC
FFFC
F000
F000
FFC0
FFC0
F000
F000
FFFC
FFFC
ENDCHAR
STARTCHAR U+0113
ENCODING 275
SWIDTH 2000 0
DWIDTH 16 0
BBX 12 14 2 2
BITMAP
FFF0
FFF0
0000
0000
3FF0
3FF0
F0F0
F0F0
FFF0
FFF0
F000
F000
FFC0
FFC0
ENDCHAR
STARTCHAR U+0114
ENCODING 276
SWIDTH 2000 0
DWIDTH 16 0
BBX 14 14 0 2
BITMAP
F03C
F03C
3FF0
3FF0
0000
0000
FFFC
FFFC
FF00
FF00
F000
F000
FFFC
FFFC
ENDCHAR
STARTCHAR U+0115
ENCODING 277
SWIDTH 2000 0
DWIDTH 16 0
BBX 14 14 0 2
BITMAP
F03C
F03C
3FF0
3FF0
0FFC
0FFC
3C3C
3C3C
3FFC
3FFC
3C00
3C00
3FF0
3FF0
ENDCHAR
STARTCHAR U+0116
ENCODING 278
SWIDTH 2000 0
DWIDTH 16 0
BBX 12 14 2 2
BITMAP
0F00
0F00
0000
0000
3FC0
3FC0
F0F0
F0F0
FFF0
FFF0
F0F0
F0F0
F0F0
F0F0
ENDCHAR
STARTCHAR U+0117
ENCODING 279
SWIDTH 2000 0
DWIDTH 16 0
BBX 12 14 2 2
BITMAP
0F00
0F00
0000
0000
3FF0
3FF0
F0F0
F0F0
FFF0
FFF0
F000
F000
FFC0
FFC0
ENDCHAR
STARTCHAR U+0118
ENCODING 280
SWIDTH 2000 0
DWIDTH 16 0
BBX 14 16 0 0
BITMAP
0FC0
0FC0
3CF0
3CF0
F000
F000
FF00
FF00
F000
F000
FC3C
FC3C
3FF0
3FF0
00FC
00FC
ENDCHAR
STARTCHAR U+0119
ENCODING 281
SWIDTH 2000 0
DWIDTH 16 0
BBX 12 12 2 0
BITMAP
3FF0
3FF0
F0F0
F0F0
FFF0
FFF0
F000
F000
FFC0
FFC0
03F0
03F0
ENDCHAR
STARTCHAR U+011A
ENCODING 282
SWIDTH 2000 0
DWIDTH 16 0
BBX 14 14 0 2
BITMAP
3C3C
3C3C
03C0
03C0
0000
0000
FFFC
FFFC
FF00
FF00
F000
F000
FFFC
FFFC
ENDCHAR
STARTCHAR U+011B
ENCODING 283
SWIDTH 2000 0
DWIDTH 16 0
BBX 12 14 2 2
BITMAP
F0F0
F0F0
0F00
0F00
0000
0000
3FC0
3FC0
FFF0
FFF0
F000
F000
3FC0
3FC0
ENDCHAR
STARTCHAR U+011C
ENCODING 284
SWIDTH 2000 0
DWIDTH 16 0
BBX 12 14 2 2
BITMAP
0F00
0F00
F0F0
F0F0
0000
0000
3FF0
3FF0
F000
F000
F0F0
F0F0
3FF0
3FF0
ENDCHAR
STARTCHAR U+011D
ENCODING 285
SWIDTH 2000 0
DWIDTH 16 0
BBX 12 16 2 0
BITMAP
0F00
0F00
F0F0
F0F0
0000
0000
3FF0
3FF0
F0F0
F0F0
3FF0
3FF0
00F0
00F0
FFC0
FFC0
ENDCHAR
STARTCHAR U+011E
ENCODING 286
SWIDTH 2000 0
DWIDTH 16 0
BBX 14 14 0 2
BITMAP
F03C
F03C
3FF0
3FF0
0000
0000
0FFC
0FFC
3C00
3C00
3C3C
3C3C
0FFC
0FFC
ENDCHAR
STARTCHAR U+011F
ENCODING 287
SWIDTH 2000 0
DWIDTH 16 0
BBX 14 16 0 0
BITMAP
F03C
F03C
3FF0
3FF0
0000
0000
0FFC
0FFC
3C3C
3C3C
0FFC
0FFC
003C
003C
3FF0
3FF0
ENDCHAR
STARTCHAR U+0120
ENCODING 288
SWIDTH 2000 0
DWIDTH 16 0
BBX 12 14 2 2
BITMAP
0F00
0F00
0000
0000
3FF0
3FF0
F000
F000
F3F0
F3F0
F0F0
F0F0
3FF0
3FF0
ENDCHAR
STARTCHAR U+0121
ENCODING 289
SWIDTH 2000 0
DWIDTH 16 0
BBX 12 16 2 0
BITMAP
0F00
0F00
0000
0000
3FF0
3FF0
F0F0
F0F0
F0F0
F0F0
3FF0
3FF0
00F0
00F0
FFC0
FFC0
ENDCHAR
STARTCHAR U+0122
ENCODING 290
SWIDTH 2000 0
DWIDTH 16 0
BBX 12 16 2 0
BITMAP
3FC0
3FC0
F0F0
F0F0
F000
F000
F3F0
F3F0
F0F0
F0F0
F0F0
F0F0
3FF0
3FF0
FC00
FC00
ENDCHAR
STARTCHAR U+0123
ENCODING 291
SWIDTH 2000 0
DWIDTH 16 0
BBX 12 16 2 0
BITMAP
0C00
0C00
0F00
0F00
0000
0000
3FF0
3FF0
F0F0
F0F0
3FF0
3FF0
00F0
00F0
FFC0
FFC0
ENDCHAR
STARTCHAR U+0124
ENCODING 292
SWIDTH 2000 0
DWIDTH 16 0
BBX 12 14 2 2
BITMAP
0F00
0F00
F0F0
F0F0
0000
0000
F0F0
F0F0
FFF0
FFF0
F0F0
F0F0
F0F0
F0F0
ENDCHAR
STARTCHAR U+0125
ENCODING 293
SWIDTH 2000 0
DWIDTH 16 0
BBX 14 14 0 2
BITMAP
F0F0
F0F0
F30C
F30C
F000
F000
FFF0
FFF0
F03C
F03C
F03C
F03C
F03C
F03C
ENDCHAR
STARTCHAR U+0126
ENCODING 294
SWIDTH 2000 0
DWIDTH 16 0
BBX 16 14 0 2
BITMAP
3C3C
3C3C
FFFF
FFFF
3C3C
3C3C
3FFC
3FFC
3C3C
3C3C
3C3C
3C3C
3C3C
3C3C
ENDCHAR
STARTCHAR U+0127
ENCODING 295
SWIDTH 2000 0
DWIDTH 16 0
BBX 12 14 2 2
BITMAP
F000
F000
FF00
FF00
F000
F000
FFC0
FFC0
F0F0
F0F0
F0F0
F0F0
F0F0
F0F0
ENDCHAR
STARTCHAR U+0128
ENCODING 296
SWIDTH 2000 0
DWIDTH 16 0
BBX 14 14 0 2
BITMAP
3F3C
3F3C
F3F0
F3F0
0000
0000
3FFC
3FFC
03C0
03C0
03C0
03C0
3FFC
3FFC
ENDCHAR
STARTCHAR U+0129
ENCODING 297
SWIDTH 2000 0
DWIDTH 16 0
BBX 14 14 0 2
BITMAP
3F3C
3F3C
F3F0
F3F0
0000
0000
0FC0
0FC0
03C0
03C0
03C0
03C0
0FF0
0FF0
ENDCHAR
STARTCHAR U+012A
ENCODING 298
SWIDTH 2000 0
DWIDTH 16 0
BBX 12 14 2 2
BITMAP
FFF0
FFF0
0000
0000
FFF0
FFF0
0F00
0F00
0F00
0F00
0F00
0F00
FFF0
FFF0
ENDCHAR
STARTCHAR U+012B
ENCODING 299
SWIDTH 2000 0
DWIDTH 16 0
BBX 12 14 2 2
BITMAP
FFF0
FFF0
0000
0000
3F00
3F00
0F00
0F00
0F00
0F00
0F00
0F00
3FC0
3FC0
ENDCHAR
STARTCHAR U+012C
ENCODING 300
SWIDTH 2000 0
DWIDTH 16 0
BBX 14 14 0 2
BITMAP
F03C
F03C
3FF0
3FF0
0000
0000
3FFC
3FFC
03C0
03C0
03C0
03C0
3FFC
3FFC
ENDCHAR
STARTCHAR U+012D
ENCODING 301
SWIDTH 2000 0
DWIDTH 16 0
BBX 14 14 0 2
BITMAP
F03C
F03C
3FF0
3FF0
0000
0000
0FC0
0FC0
03C0
03C0
03C0
03C0
0FF0
0FF0
ENDCHAR
STARTCHAR U+012E
ENCODING 302
SWIDTH 2000 0
DWIDTH 16 0
BBX 12 16 2 0
BITMAP
0FF0
0FF0
FF00
FF00
0F00
0F00
0F00
0F00
0F00
0F00
0FF0
0FF0
FF00
FF00
03F0
03F0
ENDCHAR
STARTCHAR U+012F
ENCODING 303
SWIDTH 2000 0
DWIDTH 16 0
BBX 8 14 6 0
BITMAP
F000
F000
0000
0000
F000
F000
F000
F000
F000
F000
3C00
3C00
3F00
3F00
ENDCHAR
STARTCHAR U+0130
ENCODING 304
SWIDTH 2000 0
DWIDTH 16 0
BBX 12 14 2 2
BITMAP
0F00
0F00
0000
0000
FFF0
FFF0
0F00
0F00
0F00
0F00
0F00
0F00
FFF0
FFF0
ENDCHAR
STARTCHAR U+0131
ENCODING 305
SWIDTH 2000 0
DWIDTH 16 0
BBX 8 10 4 2
BITMAP
FC00
FC00
3C00
3C00
3C00
3C00
3C00
3C00
FF00
FF00
ENDCHAR
STARTCHAR U+0132
ENCODING 306
SWIDTH 2000 0
DWIDTH 16 0
BBX 14 14 0 2
BITMAP
F03C
F03C
F03C
F03C
F03C
F03C
F03C
F03C
F03C
F03C
F33C
F33C
F0F0
F0F0
ENDCHAR
STARTCHAR U+0133
ENCODING 307
SWIDTH 2000 0
DWIDTH 16 0
BBX 12 16 2 0
BITMAP
F0F0
F0F0
0000
0000
F0F0
F0F0
F0F0
F0F0
F0F0
F0F0
F0F0
F0F0
F0F0
F0F0
03C0
03C0
ENDCHAR
STARTCHAR U+0134
ENCODING 308
SWIDTH 2000 0
DWIDTH 16 0
BBX 14 14 0 2
BITMAP
03C0
03C0
3C3C
3C3C
0000
0000
003C
003C
003C
003C
003C
003C
FFF0
FFF0
ENDCHAR
STARTCHAR U+0135
ENCODING 309
SWIDTH 2000 0
DWIDTH 16 0
BBX 12 16 2 0
BITMAP
0F00
0F00
F0F0
F0F0
0000
0000
03C0
03C0
03C0
03C0
03C0
03C0
03C0
03C0
FF00
FF00
ENDCHAR
STARTCHAR U+0136
ENCODING 310
SWIDTH 2000 0
DWIDTH 16 0
BBX 14 16 0 0
BITMAP
FC3C
FC3C
3CF0
3CF0
FFC0
FFC0
3CF0
3CF0
3CF0
3CF0
3CF0
3CF0
FCFC
FCFC
03C0
03C0
ENDCHAR
STARTCHAR U+0137
ENCODING 311
SWIDTH 2000 0
DWIDTH 16 0
BBX 12 16 2 0
BITMAP
F000
F000
F000
F000
FFC0
FFC0
F3C0
F3C0
FF00
FF00
F3C0
F3C0
F3F0
F3F0
0F00
0F00
ENDCHAR
STARTCHAR U+0138
ENCODING 312
SWIDTH 2000 0
DWIDTH 16 0
BBX 12 10 2 2
BITMAP
F0F0
F0F0
F3C0
F3C0
FF00
FF00
F3C0
F3C0
F0F0
F0F0
ENDCHAR
STARTCHAR U+0139
ENCODING 313
SWIDTH 2000 0
DWIDTH 16 0
BBX 12 14 2 2
BITMAP
03F0
03F0
0000
0000
F000
F000
F000
F000
F000
F000
F000
F000
FFF0
FFF0
ENDCHAR
STARTCHAR U+013A
ENCODING 314
SWIDTH 2000 0
DWIDTH 16 0
BBX 10 14 4 2
BITMAP
0FC0
0FC0
0000
0000
FC00
FC00
3C00
3C00
3C00
3C00
3C00
3C00
FFC0
FFC0
ENDCHAR
STARTCHAR U+013B
ENCODING 315
SWIDTH 2000 0
DWIDTH 16 0
BBX 14 16 0 0
BITMAP
3C00
3C00
0F00
0F00
0F00
0F00
0F00
0F00
3C00
3C00
3F00
3F00
F3FC
F3FC
03C0
03C0
ENDCHAR
STARTCHAR U+013C
ENCODING 316
SWIDTH 2000 0
DWIDTH 16 0
BBX 10 16 2 0
BITMAP
3F00
3F00
0F00
0F00
0F00
0F00
0F00
0F00
0F00
0F00
0F00
0F00
3FC0
3FC0
FC00
FC00
ENDCHAR
STARTCHAR U+013D
ENCODING 317
SWIDTH 2000 0
DWIDTH 16 0
BBX 12 14 2 2
BITMAP
F0F0
F0F0
F3C0
F3C0
F000
F000
F000
F000
F000
F000
F000
F000
FFF0
FFF0
ENDCHAR
STARTCHAR U+013E
ENCODING 318
SWIDTH 2000 0
DWIDTH 16 0
BBX 14 14 0 2
BITMAP
FC3C
FC3C
3CF0
3CF0
3C00
3C00
3C00
3C00
3C00
3C00
3C00
3C00
FF00
FF00
ENDCHAR
STARTCHAR U+013F
ENCODING 319
SWIDTH 2000 0
DWIDTH 16 0
BBX 12 14 2 2
BITMAP
F000
F000
F000
F000
F000
F000
F3C0
F3C0
F000
F000
F000
F000
FFF0
FFF0
ENDCHAR
STARTCHAR U+0140
ENCODING 320
SWIDTH 2000 0
DWIDTH 16 0
BBX 10 14 4 2
BITMAP
0FC0
0FC0
0000
0000
FC00
FC00
3C00
3C00
3C00
3C00
3C00
3C00
FFC0
FFC0
ENDCHAR
STARTCHAR U+0141
ENCODING 321
SWIDTH 2000 0
DWIDTH 16 0
BBX 14 14 0 2
BITMAP
0F00
0F00
0F00
0F00
0FF0
0FF0
3FC0
3FC0
FF00
FF00
0F00
0F00
0FFC
0FFC
ENDCHAR
STARTCHAR U+0142
ENCODING 322
SWIDTH 2000 0
DWIDTH 16 0
BBX 12 14 2 2
BITMAP
FF00
FF00
0F00
0F00
0FF0
0FF0
3FC0
3FC0
FF00
FF00
0F00
0F00
0FF0
0FF0
ENDCHAR
STARTCHAR U+0143
ENCODING 323
SWIDTH 2000 0
DWIDTH 16 0
BBX 14 14 0 2
BITMAP
00FC
00FC
0000
0000
F03C
F03C
FC3C
FC3C
FF3C
FF3C
F3FC
F3FC
F0FC
F0FC
ENDCHAR
STARTCHAR U+0144
ENCODING 324
SWIDTH 2000 0
DWIDTH 16 0
BBX 12 14 2 2
BITMAP
03F0
03F0
0000
0000
FF00
FF00
F3C0
F3C0
F3C0
F3C0
F3C0
F3C0
F0F0
F0F0
ENDCHAR
STARTCHAR U+0145
ENCODING 325
SWIDTH 2000 0
DWIDTH 16 0
BBX 14 16 0 0
BITMAP
FC3C
FC3C
3F3C
3F3C
3FFC
3FFC
3CFC
3CFC
3C3C
3C3C
3C3C
3C3C
F0F0
F0F0
03C0
03C0
ENDCHAR
STARTCHAR U+0146
ENCODING 326
SWIDTH 2000 0
DWIDTH 16 0
BBX 12 12 2 0
BITMAP
FF00
FF00
F3C0
F3C0
F3C0
F3C0
F3C0
F3C0
F3F0
F3F0
0F00
0F00
ENDCHAR
STARTCHAR U+0147
ENCODING 327
SWIDTH 2000 0
DWIDTH 16 0
BBX 14 14 0 2
BITMAP
3C3C
3C3C
03C0
03C0
0000
0000
F03C
F03C
FF3C
FF3C
F3FC
F3FC
F03C
F03C
ENDCHAR
STARTCHAR U+0148
ENCODING 328
SWIDTH 2000 0
DWIDTH 16 0
BBX 12 14 2 2
BITMAP
F0F0
F0F0
0F00
0F00
0000
0000
FFC0
FFC0
F0F0
F0F0
F0F0
F0F0
F0F0
F0F0
ENDCHAR
STARTCHAR U+0149
ENCODING 329
SWIDTH 2000 0
DWIDTH 16 0
BBX 14 10 0 2
BITMAP
CFF0
CFF0
CF3C
CF3C
0F3C
0F3C
0F3C
0F3C
0F3C
0F3C
ENDCHAR
STARTCHAR U+014A
ENCODING 330
SWIDTH 2000 0
DWIDTH 16 0
BBX 14 16 0 0
BITMAP
FFF0
FFF0
F03C
F03C
F03C
F03C
F03C
F03C
F03C
F03C
F03C
F03C
F0F0
F0F0
03C0
03C0
ENDCHAR
STARTCHAR U+014B
ENCODING 331
SWIDTH 2000 0
DWIDTH 16 0
BBX 12 12 2 0
BITMAP
FFC0
FFC0
F0F0
F0F0
F0F0
F0F0
F0F0
F0F0
F0F0
F0F0
03C0
03C0
ENDCHAR
STARTCHAR U+014C
ENCODING 332
SWIDTH 2000 0
DWIDTH 16 0
BBX 14 14 0 2
BITMAP
3FFC
3FFC
0000
0000
3FF0
3FF0
F03C
F03C
F03C
F03C
F03C
F03C
3FF0
3FF0
ENDCHAR
STARTCHAR U+014D
ENCODING 333
SWIDTH 2000 0
DWIDTH 16 0
BBX 12 14 2 2
BITMAP
FFF0
FFF0
0000
0000
3FF0
3FF0
F0F0
F0F0
F0F0
F0F0
F0F0
F0F0
FFC0
FFC0
ENDCHAR
STARTCHAR U+014E
ENCODING 334
SWIDTH 2000 0
DWIDTH 16 0
BBX 14 14 0 2
BITMAP
F03C
F03C
3FF0
3FF0
0000
0000
3FF0
3FF0
F03C
F03C
F03C
F03C
3FF0
3FF0
ENDCHAR
STARTCHAR U+014F
ENCODING 335
SWIDTH 2000 0
DWIDTH 16 0
BBX 14 14 0 2
BITMAP
F03C
F03C
3FF0
3FF0
0FFC
0FFC
3C3C
3C3C
3C3C
3C3C
3C3C
3C3C
3FF0
3FF0
ENDCHAR
STARTCHAR U+0150
ENCODING 336
SWIDTH 2000 0
DWIDTH 16 0
BBX 14 14 0 2
BITMAP
3C3C
3C3C
F0F0
F0F0
0000
0000
3FF0
3FF0
F03C
F03C
F03C
F03C
3FF0
3FF0
ENDCHAR
STARTCHAR U+0151
ENCODING 337
SWIDTH 2000 0
DWIDTH 16 0
BBX 14 14 0 2
BITMAP
3C3C
3C3C
F0F0
F0F0
0FFC
0FFC
3C3C
3C3C
3C3C
3C3C
3C3C
3C3C
3FF0
3FF0
ENDCHAR
STARTCHAR U+0152
ENCODING 338
SWIDTH 2000 0
DWIDTH 16 0
BBX 14 14 0 2
BITMAP
3FFC
3FFC
F0F0
F0F0
F0F0
F0F0
F0FC
F0FC
F0F0
F0F0
F0F0
F0F0
3FFC
3FFC
ENDCHAR
STARTCHAR U+0153
ENCODING 339
SWIDTH 2000 0
DWIDTH 16 0
BBX 14 10 0 2
BITMAP
3CF0
3CF0
F3CC
F3CC
F3FC
F3FC
F3C0
F3C0
3F3C
3F3C
ENDCHAR
STARTCHAR U+0154
ENCODING 340
SWIDTH 2000 0
DWIDTH 16 0
BBX 12 14 2 2
BITMAP
03F0
03F0
0000
0000
FFC0
FFC0
F0F0
F0F0
FFC0
FFC0
F0F0
F0F0
F0F0
F0F0
ENDCHAR
STARTCHAR U+0155
ENCODING 341
SWIDTH 2000 0
DWIDTH 16 0
BBX 12 14 2 2
BITMAP
03F0
03F0
0000
0000
FFC0
FFC0
F0F0
F0F0
F000
F000
F000
F000
F000
F000
ENDCHAR
STARTCHAR U+0156
ENCODING 342
SWIDTH 2000 0
DWIDTH 16 0
BBX 14 16 0 0
BITMAP
FFF0
FFF0
F03C
F03C
F03C
F03C
FFF0
FFF0
F0F0
F0F0
F03C
F03C
F33C
F33C
0F00
0F00
ENDCHAR
STARTCHAR U+0157
ENCODING 343
SWIDTH 2000 0
DWIDTH 16 0
BBX 12 12 2 0
BITMAP
FFC0
FFC0
F0F0
F0F0
F000
F000
F000
F000
F000
F000
FC00
FC00
ENDCHAR
STARTCHAR U+0158
ENCODING 344
SWIDTH 2000 0
DWIDTH 16 0
BBX 12 14 2 2
BITMAP
F0F0
F0F0
0F00
0F00
0000
0000
FFC0
FFC0
F0F0
F0F0
FFC0
FFC0
F0F0
F0F0
ENDCHAR
STARTCHAR U+0159
ENCODING 345
SWIDTH 2000 0
DWIDTH 16 0
BBX 12 14 2 2
BITMAP
F0F0
F0F0
0F00
0F00
0000
0000
FFC0
FFC0
F0F0
F0F0
F000
F000
F000
F000
ENDCHAR
STARTCHAR U+015A
ENCODING 346
SWIDTH 2000 0
DWIDTH 16 0
BBX 14 14 0 2
BITMAP
00FC
00FC
0000
0000
3FFC
3FFC
F000
F000
0FF0
0FF0
003C
003C
FFF0
FFF0
ENDCHAR
STARTCHAR U+015B
ENCODING 347
SWIDTH 2000 0
DWIDTH 16 0
BBX 12 14 2 2
BITMAP
03F0
03F0
0000
0000
3FF0
3FF0
F000
F000
FFF0
FFF0
00F0
00F0
FFC0
FFC0
ENDCHAR
STARTCHAR U+015C
ENCODING 348
SWIDTH 2000 0
DWIDTH 16 0
BBX 14 14 0 2
BITMAP
03C0
03C0
3C3C
3C3C
3FFC
3FFC
F000
F000
0FF0
0FF0
003C
003C
FFF0
FFF0
ENDCHAR
STARTCHAR U+015D
ENCODING 349
SWIDTH 2000 0
DWIDTH 16 0
BBX 12 14 2 2
BITMAP
0F00
0F00
F0F0
F0F0
3FF0
3FF0
F000
F000
FFF0
FFF0
00F0
00F0
FFC0
FFC0
ENDCHAR
STARTCHAR U+015E
ENCODING 350
SWIDTH 2000 0
DWIDTH 16 0
BBX 12 16 2 0
BITMAP
3FC0
3FC0
F0F0
F0F0
F000
F000
3FC0
3FC0
00F0
00F0
F0F0
F0F0
3FC0
3FC0
FC00
FC00
ENDCHAR
STARTCHAR U+015F
ENCODING 351
SWIDTH 2000 0
DWIDTH 16 0
BBX 14 12 0 0
BITMAP
0FFC
0FFC
3C00
3C00
0FF0
0FF0
003C
003C
3FF0
3FF0
FC00
FC00
ENDCHAR
STARTCHAR U+0160
ENCODING 352
SWIDTH 2000 0
DWIDTH 16 0
BBX 14 14 0 2
BITMAP
3C3C
3C3C
03C0
03C0
0000
0000
3FFC
3FFC
FF00
FF00
03FC
03FC
FFF0
FFF0
ENDCHAR
STARTCHAR U+0161
ENCODING 353
SWIDTH 2000 0
DWIDTH 16 0
BBX 12 14 2 2
BITMAP
F0F0
F0F0
0F00
0F00
0000
0000
3FF0
3FF0
FF00
FF00
0FF0
0FF0
FFC0
FFC0
ENDCHAR
STARTCHAR U+0162
ENCODING 354
SWIDTH 2000 0
DWIDTH 16 0
BBX 12 16 2 0
BITMAP
FFF0
FFF0
0F00
0F00
0F00
0F00
0F00
0F00
0F00
0F00
0F00
0F00
0F00
0F00
3F00
3F00
ENDCHAR
STARTCHAR U+0163
ENCODING 355
SWIDTH 2000 0
DWIDTH 16 0
BBX 10 16 2 0
BITMAP
3C00
3C00
3C00
3C00
FFC0
FFC0
3C00
3C00
3C00
3C00
3C00
3C00
0FC0
0FC0
FC00
FC00
ENDCHAR
STARTCHAR U+0164
ENCODING 356
SWIDTH 2000 0
DWIDTH 16 0
BBX 12 14 2 2
BITMAP
F0F0
F0F0
0F00
0F00
FFF0
FFF0
0F00
0F00
0F00
0F00
0F00
0F00
0F00
0F00
ENDCHAR
STARTCHAR U+0165
ENCODING 357
SWIDTH 2000 0
DWIDTH 16 0
BBX 14 14 0 2
BITMAP
003C
003C
3CF0
3CF0
3C00
3C00
FFC0
FFC0
3C00
3C00
3C00
3C00
0FC0
0FC0
ENDCHAR
STARTCHAR U+0166
ENCODING 358
SWIDTH 2000 0
DWIDTH 16 0
BBX 12 14 2 2
BITMAP
FFF0
FFF0
0F00
0F00
0F00
0F00
3FC0
3FC0
0F00
0F00
0F00
0F00
0F00
0F00
ENDCHAR
STARTCHAR U+0167
ENCODING 359
SWIDTH 2000 0
DWIDTH 16 0
BBX 10 14 2 2
BITMAP
3C00
3C00
3C00
3C00
FFC0
FFC0
3C00
3C00
FF00
FF00
3C00
3C00
0FC0
0FC0
ENDCHAR
STARTCHAR U+0168
ENCODING 360
SWIDTH 2000 0
DWIDTH 16 0
BBX 14 14 0 2
BITMAP
3F3C
3F3C
F3F0
F3F0
0000
0000
F03C
F03C
F03C
F03C
F03C
F03C
3FF0
3FF0
ENDCHAR
STARTCHAR U+0169
ENCODING 361
SWIDTH 2000 0
DWIDTH 16 0
BBX 14 14 0 2
BITMAP
3F3C
3F3C
F3F0
F3F0
F0F0
F0F0
F0F0
F0F0
F0F0
F0F0
F0F0
F0F0
3F3C
3F3C
ENDCHAR
STARTCHAR U+016A
ENCODING 362
SWIDTH 2000 0
DWIDTH 16 0
BBX 14 14 0 2
BITMAP
3FFC
3FFC
0000
0000
F03C
F03C
F03C
F03C
F03C
F03C
F03C
F03C
3FF0
3FF0
ENDCHAR
STARTCHAR U+016B
ENCODING 363
SWIDTH 2000 0
DWIDTH 16 0
BBX 14 14 0 2
BITMAP
3FFC
3FFC
0000
0000
F0F0
F0F0
F0F0
F0F0
F0F0
F0F0
F0F0
F0F0
3F3C
3F3C
ENDCHAR
STARTCHAR U+016C
ENCODING 364
SWIDTH 2000 0
DWIDTH 16 0
BBX 14 14 0 2
BITMAP
F03C
F03C
3FF0
3FF0
0000
0000
F03C
F03C
F03C
F03C
F03C
F03C
3FF0
3FF0
ENDCHAR
STARTCHAR U+016D
ENCODING 365
SWIDTH 2000 0
DWIDTH 16 0
BBX 14 14 0 2
BITMAP
F03C
F03C
3FF0
3FF0
F0F0
F0F0
F0F0
F0F0
F0F0
F0F0
F0F0
F0F0
3F3C
3F3C
ENDCHAR
STARTCHAR U+016E
ENCODING 366
SWIDTH 2000 0
DWIDTH 16 0
BBX 14 14 0 2
BITMAP
03C0
03C0
03C0
03C0
0000
0000
F03C
F03C
F03C
F03C
F03C
F03C
3FF0
3FF0
ENDCHAR
STARTCHAR U+016F
ENCODING 367
SWIDTH 2000 0
DWIDTH 16 0
BBX 12 14 2 2
BITMAP
0F00
0F00
0F00
0F00
0000
0000
F0F0
F0F0
F0F0
F0F0
F0F0
F0F0
3FF0
3FF0
ENDCHAR
STARTCHAR U+0170
ENCODING 368
SWIDTH 2000 0
DWIDTH 16 0
BBX 14 14 0 2
BITMAP
3C3C
3C3C
F0F0
F0F0
0000
0000
F03C
F03C
F03C
F03C
F03C
F03C
3FF0
3FF0
ENDCHAR
STARTCHAR U+0171
ENCODING 369
SWIDTH 2000 0
DWIDTH 16 0
BBX 14 14 0 2
BITMAP
3C3C
3C3C
F0F0
F0F0
F0F0
F0F0
F0F0
F0F0
F0F0
F0F0
F0F0
F0F0
3F3C
3F3C
ENDCHAR
STARTCHAR U+0172
ENCODING 370
SWIDTH 2000 0
DWIDTH 16 0
BBX 14 16 0 0
BITMAP
FCFC
FCFC
3C3C
3C3C
3C3C
3C3C
F03C
F03C
F03C
F03C
FC3C
FC3C
3FF0
3FF0
00FC
00FC
ENDCHAR
STARTCHAR U+0173
ENCODING 371
SWIDTH 2000 0
DWIDTH 16 0
BBX 14 12 0 0
BITMAP
F0F0
F0F0
F0F0
F0F0
F0F0
F0F0
F0F0
F0F0
3F3C
3F3C
00FC
00FC
ENDCHAR
STARTCHAR U+0174
ENCODING 372
SWIDTH 2000 0
DWIDTH 16 0
BBX 14 14 0 2
BITMAP
03C0
03C0
3C3C
3C3C
0000
0000
F03C
F03C
F33C
F33C
FFFC
FFFC
F03C
F03C
ENDCHAR
STARTCHAR U+0175
ENCODING 373
SWIDTH 2000 0
DWIDTH 16 0
BBX 14 14 0 2
BITMAP
03C0
03C0
3C3C
3C3C
0000
0000
F03C
F03C
F33C
F33C
3FF0
3FF0
3CF0
3CF0
ENDCHAR
STARTCHAR U+0176
ENCODING 374
SWIDTH 2000 0
DWIDTH 16 0
BBX 12 14 2 2
BITMAP
0F00
0F00
F0F0
F0F0
0000
0000
F0F0
F0F0
3FC0
3FC0
0F00
0F00
0F00
0F00
ENDCHAR
STARTCHAR U+0177
ENCODING 375
SWIDTH 2000 0
DWIDTH 16 0
BBX 12 16 2 0
BITMAP
0F00
0F00
F0F0
F0F0
0000
0000
F0F0
F0F0
F0F0
F0F0
3FF0
3FF0
00F0
00F0
3FC0
3FC0
ENDCHAR
STARTCHAR U+0178
ENCODING 376
SWIDTH 2000 0
DWIDTH 16 0
BBX 12 14 2 2
BITMAP
F0F0
F0F0
0000
0000
F0F0
F0F0
F0F0
F0F0
3FC0
3FC0
0F00
0F00
0F00
0F00
ENDCHAR
STARTCHAR U+0179
ENCODING 377
SWIDTH 2000 0
DWIDTH 16 0
BBX 14 14 0 2
BITMAP
00FC
00FC
0000
0000
FFFC
FFFC
00F0
00F0
0FC0
0FC0
3C00
3C00
FFFC
FFFC
ENDCHAR
STARTCHAR U+017A
ENCODING 378
SWIDTH 2000 0
DWIDTH 16 0
BBX 12 14 2 2
BITMAP
03F0
03F0
0000
0000
FFF0
FFF0
03C0
03C0
0F00
0F00
3C00
3C00
FFF0
FFF0
ENDCHAR
STARTCHAR U+017B
ENCODING 379
SWIDTH 2000 0
DWIDTH 16 0
BBX 14 14 0 2
BITMAP
03C0
03C0
0000
0000
FFFC
FFFC
00F0
00F0
0FC0
0FC0
3C00
3C00
FFFC
FFFC
ENDCHAR
STARTCHAR U+017C
ENCODING 380
SWIDTH 2000 0
DWIDTH 16 0
BBX 12 14 2 2
BITMAP
0F00
0F00
0000
0000
FFF0
FFF0
03C0
03C0
0F00
0F00
3C00
3C00
FFF0
FFF0
ENDCHAR
STARTCHAR U+017D
ENCODING 381
SWIDTH 2000 0
DWIDTH 16 0
BBX 12 14 2 2
BITMAP
F0F0
F0F0
0F00
0F00
0000
0000
FFF0
FFF0
03C0
03C0
3C00
3C00
FFF0
FFF0
ENDCHAR
STARTCHAR U+017E
ENCODING 382
SWIDTH 2000 0
DWIDTH 16 0
BBX 12 14 2 2
BITMAP
F0F0
F0F0
0F00
0F00
0000
0000
FFF0
FFF0
03C0
03C0
3C00
3C00
FFF0
FFF0
ENDCHAR
STARTCHAR U+017F
ENCODING 383
SWIDTH 2000 0
DWIDTH 16 0
BBX 12 14 2 2
BITMAP
3FC0
3FC0
F0F0
F0F0
F000
F000
F000
F000
F000
F000
F000
F000
F000
F000
ENDCHAR
STARTCHAR U+0180
ENCODING 384
SWIDTH 2000 0
DWIDTH 16 0
BBX 14 14 0 2
BITMAP
3C00
3C00
FFC0
FFC0
3C00
3C00
3FF0
3FF0
3C3C
3C3C
3C3C
3C3C
3FF0
3FF0
ENDCHAR
STARTCHAR U+0181
ENCODING 385
SWIDTH 2000 0
DWIDTH 16 0
BBX 14 14 0 2
BITMAP
3FF0
3FF0
CF3C
CF3C
CF3C
CF3C
0FF0
0FF0
0F3C
0F3C
0F3C
0F3C
0FF0
0FF0
ENDCHAR
STARTCHAR U+0182
ENCODING 386
SWIDTH 2000 0
DWIDTH 16 0
BBX 12 14 2 2
BITMAP
FFF0
FFF0
F000
F000
F000
F000
FFC0
FFC0
F0F0
F0F0
F0F0
F0F0
FFC0
FFC0
ENDCHAR
STARTCHAR U+0183
ENCODING 387
SWIDTH 2000 0
DWIDTH 16 0
BBX 12 14 2 2
BITMAP
FFC0
FFC0
F000
F000
FFC0
FFC0
F0F0
F0F0
F0F0
F0F0
F0F0
F0F0
FFC0
FFC0
ENDCHAR
STARTCHAR U+0184
ENCODING 388
SWIDTH 2000 0
DWIDTH 16 0
BBX 14 14 0 2
BITMAP
3C00
3C00
FC00
FC00
3C00
3C00
3FF0
3FF0
3C3C
3C3C
3C3C
3C3C
3FF0
3FF0
ENDCHAR
STARTCHAR U+0185
ENCODING 389
SWIDTH 2000 0
DWIDTH 16 0
BBX 14 14 0 2
BITMAP
3C00
3C00
FC00
FC00
3C00
3C00
3FF0
3FF0
3C3C
3C3C
3C3C
3C3C
0FF0
0FF0
ENDCHAR
STARTCHAR U+0186
ENCODING 390
SWIDTH 2000 0
DWIDTH 16 0
BBX 12 14 2 2
BITMAP
3FC0
3FC0
F0F0
F0F0
00F0
00F0
00F0
00F0
00F0
00F0
F0F0
F0F0
3FC0
3FC0
ENDCHAR
STARTCHAR U+0187
ENCODING 391
SWIDTH 2000 0
DWIDTH 16 0
BBX 14 14 0 2
BITMAP
003C
003C
3FFC
3FFC
F000
F000
F000
F000
F000
F000
F000
F000
3FFC
3FFC
ENDCHAR
STARTCHAR U+0188
ENCODING 392
SWIDTH 2000 0
DWIDTH 16 0
BBX 14 14 0 2
BITMAP
003C
003C
00F0
00F0
3FF0
3FF0
F000
F000
F000
F000
F000
F000
3FF0
3FF0
ENDCHAR
STARTCHAR U+0189
ENCODING 393
SWIDTH 2000 0
DWIDTH 16 0
BBX 14 14 0 2
BITMAP
3FC0
3FC0
3CF0
3CF0
3C3C
3C3C
FF3C
FF3C
3C3C
3C3C
3CF0
3CF0
3FC0
3FC0
ENDCHAR
STARTCHAR U+018A
ENCODING 394
SWIDTH 2000 0
DWIDTH 16 0
BBX 14 14 0 2
BITMAP
3FF0
3FF0
CF3C
CF3C
CF3C
CF3C
0F3C
0F3C
0F3C
0F3C
0F3C
0F3C
3FF0
3FF0
ENDCHAR
STARTCHAR U+018B
ENCODING 395
SWIDTH 2000 0
DWIDTH 16 0
BBX 12 14 2 2
BITMAP
3FF0
3FF0
00F0
00F0
00F0
00F0
3FF0
3FF0
F0F0
F0F0
F0F0
F0F0
3FF0
3FF0
ENDCHAR
STARTCHAR U+018C
ENCODING 396
SWIDTH 2000 0
DWIDTH 16 0
BBX 12 14 2 2
BITMAP
3FF0
3FF0
00F0
00F0
3FF0
3FF0
F0F0
F0F0
F0F0
F0F0
F0F0
F0F0
3FF0
3FF0
ENDCHAR
STARTCHAR U+018D
ENCODING 397
SWIDTH 2000 0
DWIDTH 16 0
BBX 12 12 2 0
BITMAP
3FC0
3FC0
F0F0
F0F0
F0F0
F0F0
3FC0
3FC0
00F0
00F0
0FC0
0FC0
ENDCHAR
STARTCHAR U+018E
ENCODING 398
SWIDTH 2000 0
DWIDTH 16 0
BBX 12 14 2 2
BITMAP
FFF0
FFF0
00F0
00F0
00F0
00F0
3FF0
3FF0
00F0
00F0
00F0
00F0
FFF0
FFF0
ENDCHAR
STARTCHAR U+018F
ENCODING 399
SWIDTH 2000 0
DWIDTH 16 0
BBX 12 14 2 2
BITMAP
3FC0
3FC0
F0F0
F0F0
00F0
00F0
FFF0
FFF0
F0F0
F0F0
F0F0
F0F0
3FC0
3FC0
ENDCHAR
STARTCHAR U+0190
ENCODING 400
SWIDTH 2000 0
DWIDTH 16 0
BBX 12 14 2 2
BITMAP
3FC0
3FC0
F0F0
F0F0
F000
F000
3F00
3F00
F000
F000
F0F0
F0F0
3FC0
3FC0
ENDCHAR
STARTCHAR U+0191
ENCODING 401
SWIDTH 2000 0
DWIDTH 16 0
BBX 14 16 0 0
BITMAP
3FFC
3FFC
3C00
3C00
3C00
3C00
3FF0
3FF0
3C00
3C00
3C00
3C00
3C00
3C00
F000
F000
ENDCHAR
STARTCHAR U+0192
ENCODING 402
SWIDTH 2000 0
DWIDTH 16 0
BBX 16 16 0 0
BITMAP
00FC
00FC
03CF
03CF
03C0
03C0
0FF0
0FF0
03C0
03C0
03C0
03C0
F3C0
F3C0
3F00
3F00
ENDCHAR
STARTCHAR U+0193
ENCODING 403
SWIDTH 2000 0
DWIDTH 16 0
BBX 14 14 0 2
BITMAP
003C
003C
3FF0
3FF0
F000
F000
F000
F000
F3F0
F3F0
F0F0
F0F0
3FF0
3FF0
ENDCHAR
STARTCHAR U+0194
ENCODING 404
SWIDTH 2000 0
DWIDTH 16 0
BBX 14 14 0 2
BITMAP
F03C
F03C
F03C
F03C
F03C
F03C
3CF0
3CF0
0FC0
0FC0
3CF0
3CF0
0FC0
0FC0
ENDCHAR
STARTCHAR U+0195
ENCODING 405
SWIDTH 2000 0
DWIDTH 16 0
BBX 16 14 0 2
BITMAP
F000
F000
F000
F000
FF0F
FF0F
F3CF
F3CF
F3CF
F3CF
F3CF
F3CF
F0FC
F0FC
ENDCHAR
STARTCHAR U+0197
ENCODING 407
SWIDTH 2000 0
DWIDTH 16 0
BBX 12 14 2 2
BITMAP
FFF0
FFF0
0F00
0F00
0F00
0F00
FFF0
FFF0
0F00
0F00
0F00
0F00
FFF0
FFF0
ENDCHAR
STARTCHAR U+0198
ENCODING 408
SWIDTH 2000 0
DWIDTH 16 0
BBX 14 14 0 2
BITMAP
F0FC
F0FC
F3CC
F3CC
F3C0
F3C0
FF00
FF00
F3C0
F3C0
F0F0
F0F0
F0F0
F0F0
ENDCHAR
STARTCHAR U+0199
ENCODING 409
SWIDTH 2000 0
DWIDTH 16 0
BBX 12 14 2 2
BITMAP
3FC0
3FC0
F000
F000
F0F0
F0F0
F3C0
F3C0
FF00
FF00
F3C0
F3C0
F0F0
F0F0
ENDCHAR
STARTCHAR U+019A
ENCODING 410
SWIDTH 2000 0
DWIDTH 16 0
BBX 12 14 2 2
BITMAP
FF00
FF00
0F00
0F00
0F00
0F00
FFF0
FFF0
0F00
0F00
0F00
0F00
0FF0
0FF0
ENDCHAR
STARTCHAR U+019B
ENCODING 411
SWIDTH 2000 0
DWIDTH 16 0
BBX 14 14 0 2
BITMAP
00F0
00F0
0FFC
0FFC
00F0
00F0
3FF0
3FF0
F0F0
F0F0
F0F0
F0F0
F0F0
F0F0
ENDCHAR
STARTCHAR U+019C
ENCODING 412
SWIDTH 2000 0
DWIDTH 16 0
BBX 14 14 0 2
BITMAP
F33C
F33C
F33C
F33C
F33C
F33C
F33C
F33C
F33C
F33C
F33C
F33C
3FFC
3FFC
ENDCHAR
STARTCHAR U+019D
ENCODING 413
SWIDTH 2000 0
DWIDTH 16 0
BBX 14 16 0 0
BITMAP
F03C
F03C
FC3C
FC3C
FF3C
FF3C
FFFC
FFFC
F3FC
F3FC
F0FC
F0FC
F03C
F03C
F000
F000
ENDCHAR
STARTCHAR U+019E
ENCODING 414
SWIDTH 2000 0
DWIDTH 16 0
BBX 12 12 2 0
BITMAP
FFC0
FFC0
F0F0
F0F0
F0F0
F0F0
F0F0
F0F0
F0F0
F0F0
00F0
00F0
ENDCHAR
STARTCHAR U+019F
ENCODING 415
SWIDTH 2000 0
DWIDTH 16 0
BBX 12 14 2 2
BITMAP
3FC0
3FC0
F0F0
F0F0
F0F0
F0F0
FFF0
FFF0
F0F0
F0F0
F0F0
F0F0
3FC0
3FC0
ENDCHAR
STARTCHAR U+01CD
ENCODING 461
SWIDTH 2000 0
DWIDTH 16 0
BBX 12 14 2 2
BITMAP
F0F0
F0F0
0F00
0F00
0000
0000
3FC0
3FC0
F0F0
F0F0
FFF0
FFF0
F0F0
F0F0
ENDCHAR
STARTCHAR U+01CE
ENCODING 462
SWIDTH 2000 0
DWIDTH 16 0
BBX 14 14 0 2
BITMAP
3C3C
3C3C
03C0
03C0
0000
0000
0FFC
0FFC
3C3C
3C3C
F03C
F03C
3FFC
3FFC
ENDCHAR
STARTCHAR U+01CF
ENCODING 463
SWIDTH 2000 0
DWIDTH 16 0
BBX 12 14 2 2
BITMAP
F0F0
F0F0
0F00
0F00
0000
0000
FFF0
FFF0
0F00
0F00
0F00
0F00
FFF0
FFF0
ENDCHAR
STARTCHAR U+01D0
ENCODING 464
SWIDTH 2000 0
DWIDTH 16 0
BBX 12 14 2 2
BITMAP
F0F0
F0F0
0F00
0F00
0000
0000
3F00
3F00
0F00
0F00
0F00
0F00
3FC0
3FC0
ENDCHAR
STARTCHAR U+01D1
ENCODING 465
SWIDTH 2000 0
DWIDTH 16 0
BBX 14 14 0 2
BITMAP
3C3C
3C3C
03C0
03C0
0000
0000
3FF0
3FF0
F03C
F03C
F03C
F03C
3FF0
3FF0
ENDCHAR
STARTCHAR U+01D2
ENCODING 466
SWIDTH 2000 0
DWIDTH 16 0
BBX 12 14 2 2
BITMAP
F0F0
F0F0
0F00
0F00
0000
0000
3FC0
3FC0
F0F0
F0F0
F0F0
F0F0
3FC0
3FC0
ENDCHAR
STARTCHAR U+01D3
ENCODING 467
SWIDTH 2000 0
DWIDTH 16 0
BBX 14 14 0 2
BITMAP
3C3C
3C3C
03C0
03C0
0000
0000
F03C
F03C
F03C
F03C
F03C
F03C
3FF0
3FF0
ENDCHAR
STARTCHAR U+01D4
ENCODING 468
SWIDTH 2000 0
DWIDTH 16 0
BBX 12 14 2 2
BITMAP
F0F0
F0F0
0F00
0F00
0000
0000
F0F0
F0F0
F0F0
F0F0
F0F0
F0F0
3FF0
3FF0
ENDCHAR
STARTCHAR U+01D5
ENCODING 469
SWIDTH 2000 0
DWIDTH 16 0
BBX 14 14 0 2
BITMAP
FFFC
FFFC
3CF0
3CF0
0000
0000
F03C
F03C
F03C
F03C
F03C
F03C
3FF0
3FF0
ENDCHAR
STARTCHAR U+01D6
ENCODING 470
SWIDTH 2000 0
DWIDTH 16 0
BBX 14 14 0 2
BITMAP
FFFC
FFFC
3CF0
3CF0
0000
0000
3C3C
3C3C
3C3C
3C3C
3C3C
3C3C
0FFC
0FFC
ENDCHAR
STARTCHAR U+01D7
ENCODING 471
SWIDTH 2000 0
DWIDTH 16 0
BBX 16 14 0 2
BITMAP
00F0
00F0
F3CF
F3CF
0000
0000
F03C
F03C
F03C
F03C
F03C
F03C
3FF0
3FF0
ENDCHAR
STARTCHAR U+01D8
ENCODING 472
SWIDTH 2000 0
DWIDTH 16 0
BBX 16 14 0 2
BITMAP
00F0
00F0
F3CF
F3CF
0000
0000
3C3C
3C3C
3C3C
3C3C
3C3C
3C3C
0FFC
0FFC
ENDCHAR
STARTCHAR U+01D9
ENCODING 473
SWIDTH 2000 0
DWIDTH 16 0
BBX 16 14 0 2
BITMAP
0FF0
0FF0
F3CF
F3CF
0000
0000
F03C
F03C
F03C
F03C
F03C
F03C
3FF0
3FF0
ENDCHAR
STARTCHAR U+01DA
ENCODING 474
SWIDTH 2000 0
DWIDTH 16 0
BBX 16 14 0 2
BITMAP
0FF0
0FF0
F3CF
F3CF
0000
0000
3C3C
3C3C
3C3C
3C3C
3C3C
3C3C
0FFC
0FFC
ENDCHAR
STARTCHAR U+01DB
ENCODING 475
SWIDTH 2000 0
DWIDTH 16 0
BBX 16 14 0 2
BITMAP
0F00
0F00
F3CF
F3CF
0000
0000
F03C
F03C
F03C
F03C
F03C
F03C
3FF0
3FF0
ENDCHAR
STARTCHAR U+01DC
ENCODING 476
SWIDTH 2000 0
DWIDTH 16 0
BBX 16 14 0 2
BITMAP
0F00
0F00
F3CF
F3CF
0000
0000
3C3C
3C3C
3C3C
3C3C
3C3C
3C3C
0FFC
0FFC
ENDCHAR
STARTCHAR U+01DD
ENCODING 477
SWIDTH 2000 0
DWIDTH 16 0
BBX 12 10 2 2
BITMAP
3FC0
3FC0
00F0
00F0
FFF0
FFF0
F0F0
F0F0
3FC0
3FC0
ENDCHAR
STARTCHAR U+01DE
ENCODING 478
SWIDTH 2000 0
DWIDTH 16 0
BBX 14 14 0 2
BITMAP
FFFC
FFFC
3CF0
3CF0
0000
0000
0FF0
0FF0
3C3C
3C3C
3FFC
3FFC
3C3C
3C3C
ENDCHAR
STARTCHAR U+01DF
ENCODING 479
SWIDTH 2000 0
DWIDTH 16 0
BBX 14 14 0 2
BITMAP
FFFC
FFFC
3CF0
3CF0
0000
0000
0FFC
0FFC
3C3C
3C3C
F03C
F03C
3FFC
3FFC
ENDCHAR
STARTCHAR U+01E0
ENCODING 480
SWIDTH 2000 0
DWIDTH 16 0
BBX 14 14 0 2
BITMAP
FFFC
FFFC
3CF0
3CF0
0000
0000
0FF0
0FF0
3C3C
3C3C
3FFC
3FFC
3C3C
3C3C
ENDCHAR
STARTCHAR U+01E1
ENCODING 481
SWIDTH 2000 0
DWIDTH 16 0
BBX 14 14 0 2
BITMAP
FFFC
FFFC
3CF0
3CF0
0000
0000
0FFC
0FFC
3C3C
3C3C
F03C
F03C
3FFC
3FFC
ENDCHAR
STARTCHAR U+01E2
ENCODING 482
SWIDTH 2000 0
DWIDTH 16 0
BBX 16 14 0 2
BITMAP
3FFC
3FFC
0000
0000
3FFF
3FFF
F0F0
F0F0
FFFC
FFFC
F0F0
F0F0
F0FF
F0FF
ENDCHAR
STARTCHAR U+01E3
ENCODING 483
SWIDTH 2000 0
DWIDTH 16 0
BBX 16 14 0 2
BITMAP
3FFC
3FFC
0000
0000
3FFC
3FFC
03CF
03CF
3FFF
3FFF
F3C0
F3C0
3F3F
3F3F
ENDCHAR
STARTCHAR U+01E6
ENCODING 486
SWIDTH 2000 0
DWIDTH 16 0
BBX 12 14 2 2
BITMAP
F0F0
F0F0
0F00
0F00
0000
0000
3FF0
3FF0
F000
F000
F0F0
F0F0
3FF0
3FF0
ENDCHAR
STARTCHAR U+01E7
ENCODING 487
SWIDTH 2000 0
DWIDTH 16 0
BBX 12 16 2 0
BITMAP
F0F0
F0F0
0F00
0F00
0000
0000
3FF0
3FF0
F0F0
F0F0
3FF0
3FF0
00F0
00F0
FFC0
FFC0
ENDCHAR
STARTCHAR U+01E8
ENCODING 488
SWIDTH 2000 0
DWIDTH 16 0
BBX 14 14 0 2
BITMAP
3C3C
3C3C
03C0
03C0
0000
0000
F0FC
F0FC
FFC0
FFC0
F0F0
F0F0
F03C
F03C
ENDCHAR
STARTCHAR U+01F0
ENCODING 496
SWIDTH 2000 0
DWIDTH 16 0
BBX 12 16 2 0
BITMAP
F0F0
F0F0
0F00
0F00
0000
0000
03C0
03C0
03C0
03C0
03C0
03C0
03C0
03C0
FF00
FF00
ENDCHAR
STARTCHAR U+01F4
ENCODING 500
SWIDTH 2000 0
DWIDTH 16 0
BBX 12 14 2 2
BITMAP
03F0
03F0
0000
0000
3FF0
3FF0
F000
F000
F3F0
F3F0
F0F0
F0F0
3FF0
3FF0
ENDCHAR
STARTCHAR U+01F5
ENCODING 501
SWIDTH 2000 0
DWIDTH 16 0
BBX 12 16 2 0
BITMAP
03F0
03F0
0000
0000
3FF0
3FF0
F0F0
F0F0
F0F0
F0F0
3FF0
3FF0
00F0
00F0
FFC0
FFC0
ENDCHAR
STARTCHAR U+01F8
ENCODING 504
SWIDTH 2000 0
DWIDTH 16 0
BBX 14 14 0 2
BITMAP
3F00
3F00
0000
0000
F03C
F03C
FC3C
FC3C
FF3C
FF3C
F3FC
F3FC
F0FC
F0FC
ENDCHAR
STARTCHAR U+01F9
ENCODING 505
SWIDTH 2000 0
DWIDTH 16 0
BBX 12 14 2 2
BITMAP
FC00
FC00
0000
0000
FF00
FF00
F3C0
F3C0
F3C0
F3C0
F3C0
F3C0
F0F0
F0F0
ENDCHAR
STARTCHAR U+01FA
ENCODING 506
SWIDTH 2000 0
DWIDTH 16 0
BBX 12 14 2 2
BITMAP
F0F0
F0F0
F3C0
F3C0
0000
0000
3FC0
3FC0
F0F0
F0F0
FFF0
FFF0
F0F0
F0F0
ENDCHAR
STARTCHAR U+01FB
ENCODING 507
SWIDTH 2000 0
DWIDTH 16 0
BBX 14 14 0 2
BITMAP
3C3C
3C3C
3CF0
3CF0
0000
0000
0FFC
0FFC
3C3C
3C3C
F03C
F03C
3FFC
3FFC
ENDCHAR
STARTCHAR U+01FC
ENCODING 508
SWIDTH 2000 0
DWIDTH 16 0
BBX 16 14 0 2
BITMAP
00FC
00FC
0000
0000
3FFF
3FFF
F0F0
F0F0
FFFC
FFFC
F0F0
F0F0
F0FF
F0FF
ENDCHAR
STARTCHAR U+01FD
ENCODING 509
SWIDTH 2000 0
DWIDTH 16 0
BBX 16 14 0 2
BITMAP
00FC
00FC
0000
0000
3FFC
3FFC
03CF
03CF
3FFF
3FFF
F3C0
F3C0
3F3F
3F3F
ENDCHAR
STARTCHAR U+01FE
ENCODING 510
SWIDTH 2000 0
DWIDTH 16 0
BBX 12 14 2 2
BITMAP
03F0
03F0
0000
0000
3FF0
3FF0
F0F0
F0F0
FFF0
FFF0
F0F0
F0F0
FFC0
FFC0
ENDCHAR
STARTCHAR U+01FF
ENCODING 511
SWIDTH 2000 0
DWIDTH 16 0
BBX 14 16 0 0
BITMAP
00FC
00FC
000C
000C
3FF0
3FF0
F0FC
F0FC
F33C
F33C
FC3C
FC3C
3FF0
3FF0
C000
C000
ENDCHAR
STARTCHAR U+0200
ENCODING 512
SWIDTH 2000 0
DWIDTH 16 0
BBX 14 14 0 2
BITMAP
F0F0
F0F0
3C3C
3C3C
0000
0000
0FF0
0FF0
3C3C
3C3C
3FFC
3FFC
3C3C
3C3C
ENDCHAR
STARTCHAR U+0201
ENCODING 513
SWIDTH 2000 0
DWIDTH 16 0
BBX 14 14 0 2
BITMAP
F0F0
F0F0
3C3C
3C3C
0FF0
0FF0
3CF0
3CF0
3CF0
3CF0
3CF0
3CF0
0F3C
0F3C
ENDCHAR
STARTCHAR U+0202
ENCODING 514
SWIDTH 2000 0
DWIDTH 16 0
BBX 14 14 0 2
BITMAP
3FF0
3FF0
F03C
F03C
0000
0000
0FF0
0FF0
3C3C
3C3C
3FFC
3FFC
3C3C
3C3C
ENDCHAR
STARTCHAR U+0203
ENCODING 515
SWIDTH 2000 0
DWIDTH 16 0
BBX 14 12 0 0
BITMAP
0FF0
0FF0
3CF0
3CF0
3CF0
3CF0
3CF0
3CF0
3FFC
3FFC
F03C
F03C
ENDCHAR
STARTCHAR U+0204
ENCODING 516
SWIDTH 2000 0
DWIDTH 16 0
BBX 14 14 0 2
BITMAP
F0F0
F0F0
3C3C
3C3C
0000
0000
FFFC
FFFC
FF00
FF00
F000
F000
FFFC
FFFC
ENDCHAR
STARTCHAR U+0205
ENCODING 517
SWIDTH 2000 0
DWIDTH 16 0
BBX 14 14 0 2
BITMAP
F0F0
F0F0
3C3C
3C3C
0FFC
0FFC
3C3C
3C3C
3FFC
3FFC
3C00
3C00
3FF0
3FF0
ENDCHAR
STARTCHAR U+0206
ENCODING 518
SWIDTH 2000 0
DWIDTH 16 0
BBX 14 14 0 2
BITMAP
3FF0
3FF0
F03C
F03C
0000
0000
FFFC
FFFC
FF00
FF00
F000
F000
FFFC
FFFC
ENDCHAR
STARTCHAR U+0207
ENCODING 519
SWIDTH 2000 0
DWIDTH 16 0
BBX 14 12 0 0
BITMAP
0FFC
0FFC
3C3C
3C3C
3FFC
3FFC
3C00
3C00
3FF0
3FF0
F03C
F03C
ENDCHAR
STARTCHAR U+0208
ENCODING 520
SWIDTH 2000 0
DWIDTH 16 0
BBX 14 14 0 2
BITMAP
F0F0
F0F0
3C3C
3C3C
0000
0000
3FFC
3FFC
03C0
03C0
03C0
03C0
3FFC
3FFC
ENDCHAR
STARTCHAR U+0209
ENCODING 521
SWIDTH 2000 0
DWIDTH 16 0
BBX 14 14 0 2
BITMAP
F0F0
F0F0
3C3C
3C3C
0000
0000
0FC0
0FC0
03C0
03C0
03C0
03C0
0FF0
0FF0
ENDCHAR
STARTCHAR U+020A
ENCODING 522
SWIDTH 2000 0
DWIDTH 16 0
BBX 14 14 0 2
BITMAP
3FF0
3FF0
F03C
F03C
0000
0000
3FFC
3FFC
03C0
03C0
03C0
03C0
3FFC
3FFC
ENDCHAR
STARTCHAR U+020B
ENCODING 523
SWIDTH 2000 0
DWIDTH 16 0
BBX 14 10 0 0
BITMAP
0FC0
0FC0
03C0
03C0
03C0
03C0
3FF0
3FF0
F03C
F03C
ENDCHAR
STARTCHAR U+020C
ENCODING 524
SWIDTH 2000 0
DWIDTH 16 0
BBX 14 14 0 2
BITMAP
F0F0
F0F0
3C3C
3C3C
0000
0000
3FF0
3FF0
F03C
F03C
F03C
F03C
3FF0
3FF0
ENDCHAR
STARTCHAR U+020D
ENCODING 525
SWIDTH 2000 0
DWIDTH 16 0
BBX 14 14 0 2
BITMAP
F0F0
F0F0
3C3C
3C3C
0FFC
0FFC
3C3C
3C3C
3C3C
3C3C
3C3C
3C3C
3FF0
3FF0
ENDCHAR
STARTCHAR U+020E
ENCODING 526
SWIDTH 2000 0
DWIDTH 16 0
BBX 14 14 0 2
BITMAP
3FF0
3FF0
F03C
F03C
0000
0000
3FF0
3FF0
F03C
F03C
F03C
F03C
3FF0
3FF0
ENDCHAR
STARTCHAR U+020F
ENCODING 527
SWIDTH 2000 0
DWIDTH 16 0
BBX 14 12 0 0
BITMAP
0FFC
0FFC
3C3C
3C3C
3C3C
3C3C
3C3C
3C3C
3FF0
3FF0
F03C
F03C
ENDCHAR
STARTCHAR U+0210
ENCODING 528
SWIDTH 2000 0
DWIDTH 16 0
BBX 14 14 0 2
BITMAP
F0F0
F0F0
3C3C
3C3C
0000
0000
3FF0
3FF0
3C3C
3C3C
3FF0
3FF0
3C3C
3C3C
ENDCHAR
STARTCHAR U+0211
ENCODING 529
SWIDTH 2000 0
DWIDTH 16 0
BBX 14 14 0 2
BITMAP
F0F0
F0F0
3C3C
3C3C
0000
0000
3FF0
3FF0
3C3C
3C3C
3C00
3C00
3C00
3C00
ENDCHAR
STARTCHAR U+0212
ENCODING 530
SWIDTH 2000 0
DWIDTH 16 0
BBX 14 14 0 2
BITMAP
3FF0
3FF0
F03C
F03C
0000
0000
3FF0
3FF0
3C3C
3C3C
3FF0
3FF0
3C3C
3C3C
ENDCHAR
STARTCHAR U+0213
ENCODING 531
SWIDTH 2000 0
DWIDTH 16 0
BBX 14 10 0 0
BITMAP
3FF0
3FF0
3C3C
3C3C
3C00
3C00
3FF0
3FF0
F03C
F03C
ENDCHAR
STARTCHAR U+0214
ENCODING 532
SWIDTH 2000 0
DWIDTH 16 0
BBX 14 14 0 2
BITMAP
F0F0
F0F0
3C3C
3C3C
0000
0000
F03C
F03C
F03C
F03C
F03C
F03C
3FF0
3FF0
ENDCHAR
STARTCHAR U+0215
ENCODING 533
SWIDTH 2000 0
DWIDTH 16 0
BBX 14 14 0 2
BITMAP
F0F0
F0F0
3C3C
3C3C
F0F0
F0F0
F0F0
F0F0
F0F0
F0F0
F0F0
F0F0
3F3C
3F3C
ENDCHAR
STARTCHAR U+0216
ENCODING 534
SWIDTH 2000 0
DWIDTH 16 0
BBX 14 14 0 2
BITMAP
3FF0
3FF0
F03C
F03C
0000
0000
F03C
F03C
F03C
F03C
F03C
F03C
3FF0
3FF0
ENDCHAR
STARTCHAR U+0217
ENCODING 535
SWIDTH 2000 0
DWIDTH 16 0
BBX 14 12 0 0
BITMAP
F0F0
F0F0
F0F0
F0F0
F0F0
F0F0
F0F0
F0F0
3FFC
3FFC
F03C
F03C
ENDCHAR
STARTCHAR U+0218
ENCODING 536
SWIDTH 2000 0
DWIDTH 16 0
BBX 14 16 0 0
BITMAP
03F0
03F0
0F3C
0F3C
3C00
3C00
0FF0
0FF0
003C
003C
F03C
F03C
3FF0
3FF0
0F00
0F00
ENDCHAR
STARTCHAR U+0219
ENCODING 537
SWIDTH 2000 0
DWIDTH 16 0
BBX 12 12 2 0
BITMAP
3FF0
3FF0
F000
F000
FFF0
FFF0
00F0
00F0
FFC0
FFC0
3C00
3C00
ENDCHAR
STARTCHAR U+021A
ENCODING 538
SWIDTH 2000 0
DWIDTH 16 0
BBX 14 16 0 0
BITMAP
3FFC
3FFC
F3C0
F3C0
33C0
33C0
03C0
03C0
0F00
0F00
0F00
0F00
0FC0
0FC0
0F00
0F00
ENDCHAR
STARTCHAR U+021B
ENCODING 539
SWIDTH 2000 0
DWIDTH 16 0
BBX 12 16 2 0
BITMAP
0C00
0C00
0F00
0F00
FFF0
FFF0
0F00
0F00
0F00
0F00
0F00
0F00
0FC0
0FC0
3C00
3C00
ENDCHAR
STARTCHAR U+0226
ENCODING 550
SWIDTH 2000 0
DWIDTH 16 0
BBX 12 14 2 2
BITMAP
0F00
0F00
0000
0000
3FC0
3FC0
F0F0
F0F0
FFF0
FFF0
F0F0
F0F0
F0F0
F0F0
ENDCHAR
STARTCHAR U+0227
ENCODING 551
SWIDTH 2000 0
DWIDTH 16 0
BBX 12 14 2 2
BITMAP
0F00
0F00
0000
0000
3FC0
3FC0
F3C0
F3C0
F3C0
F3C0
F3C0
F3C0
3CF0
3CF0
ENDCHAR
STARTCHAR U+022A
ENCODING 554
SWIDTH 2000 0
DWIDTH 16 0
BBX 14 14 0 2
BITMAP
FFFC
FFFC
3CF0
3CF0
0000
0000
3FF0
3FF0
F03C
F03C
F03C
F03C
3FF0
3FF0
ENDCHAR
STARTCHAR U+022B
ENCODING 555
SWIDTH 2000 0
DWIDTH 16 0
BBX 14 14 0 2
BITMAP
FFFC
FFFC
3CF0
3CF0
0000
0000
0FF0
0FF0
3C3C
3C3C
3C3C
3C3C
0FF0
0FF0
ENDCHAR
STARTCHAR U+022C
ENCODING 556
SWIDTH 2000 0
DWIDTH 16 0
BBX 14 14 0 2
BITMAP
FFFC
FFFC
3C30
3C30
C3C0
C3C0
3FF0
3FF0
F03C
F03C
F03C
F03C
3FF0
3FF0
ENDCHAR
STARTCHAR U+022D
ENCODING 557
SWIDTH 2000 0
DWIDTH 16 0
BBX 14 14 0 2
BITMAP
FFFC
FFFC
3C30
3C30
C3C0
C3C0
0FF0
0FF0
3C3C
3C3C
3C3C
3C3C
0FF0
0FF0
ENDCHAR
STARTCHAR U+022E
ENCODING 558
SWIDTH 2000 0
DWIDTH 16 0
BBX 14 14 0 2
BITMAP
03C0
03C0
0000
0000
3FF0
3FF0
F03C
F03C
F03C
F03C
F03C
F03C
3FF0
3FF0
ENDCHAR
STARTCHAR U+022F
ENCODING 559
SWIDTH 2000 0
DWIDTH 16 0
BBX 12 14 2 2
BITMAP
0F00
0F00
0000
0000
3FF0
3FF0
F0F0
F0F0
F0F0
F0F0
F0F0
F0F0
FFC0
FFC0
ENDCHAR
STARTCHAR U+0230
ENCODING 560
SWIDTH 2000 0
DWIDTH 16 0
BBX 14 14 0 2
BITMAP
FFFC
FFFC
3CF0
3CF0
0000
0000
3FF0
3FF0
F03C
F03C
F03C
F03C
3FF0
3FF0
ENDCHAR
STARTCHAR U+0231
ENCODING 561
SWIDTH 2000 0
DWIDTH 16 0
BBX 14 14 0 2
BITMAP
FFFC
FFFC
3CF0
3CF0
0000
0000
0FF0
0FF0
3C3C
3C3C
3C3C
3C3C
0FF0
0FF0
ENDCHAR
STARTCHAR U+0232
ENCODING 562
SWIDTH 2000 0
DWIDTH 16 0
BBX 12 14 2 2
BITMAP
FFF0
FFF0
0000
0000
F0F0
F0F0
F0F0
F0F0
3FC0
3FC0
0F00
0F00
0F00
0F00
ENDCHAR
STARTCHAR U+0233
ENCODING 563
SWIDTH 2000 0
DWIDTH 16 0
BBX 14 16 0 0
BITMAP
3FFC
3FFC
0000
0000
F0FC
F0FC
F0F0
F0F0
F0F0
F0F0
3FF0
3FF0
00F0
00F0
0FC0
0FC0
ENDCHAR
STARTCHAR U+0258
ENCODING 600
SWIDTH 2000 0
DWIDTH 16 0
BBX 12 10 2 2
BITMAP
3FC0
3FC0
F0F0
F0F0
FFF0
FFF0
00F0
00F0
3FC0
3FC0
ENDCHAR
STARTCHAR U+0259
ENCODING 601
SWIDTH 2000 0
DWIDTH 16 0
BBX 12 10 2 2
BITMAP
3FC0
3FC0
00F0
00F0
FFF0
FFF0
F0F0
F0F0
3FC0
3FC0
ENDCHAR
STARTCHAR U+0263
ENCODING 611
SWIDTH 2000 0
DWIDTH 16 0
BBX 14 12 0 0
BITMAP
F03C
F03C
F03C
F03C
3CF0
3CF0
0FC0
0FC0
3CF0
3CF0
0FC0
0FC0
ENDCHAR
STARTCHAR U+0294
ENCODING 660
SWIDTH 2000 0
DWIDTH 16 0
BBX 12 14 2 2
BITMAP
3FC0
3FC0
F0F0
F0F0
00F0
00F0
03C0
03C0
0F00
0F00
0F00
0F00
0F00
0F00
ENDCHAR
STARTCHAR U+02C6
ENCODING 710
SWIDTH 2000 0
DWIDTH 16 0
BBX 12 4 2 12
BITMAP
0F00
0F00
F0F0
F0F0
ENDCHAR
STARTCHAR U+02C9
ENCODING 713
SWIDTH 2000 0
DWIDTH 16 0
BBX 8 2 4 14
BITMAP
FF00
FF00
ENDCHAR
STARTCHAR U+02CD
ENCODING 717
SWIDTH 2000 0
DWIDTH 16 0
BBX 8 2 4 0
BITMAP
FF00
FF00
ENDCHAR
STARTCHAR U+02DC
ENCODING 732
SWIDTH 2000 0
DWIDTH 16 0
BBX 14 6 0 10
BITMAP
FFFC
FFFC
3C30
3C30
C3C0
C3C0
ENDCHAR
STARTCHAR U+0300
ENCODING 768
SWIDTH 2000 0
DWIDTH 16 0
BBX 6 2 2 14
BITMAP
FC00
FC00
ENDCHAR
STARTCHAR U+0301
ENCODING 769
SWIDTH 2000 0
DWIDTH 16 0
BBX 6 2 8 14
BITMAP
FC00
FC00
ENDCHAR
STARTCHAR U+0302
ENCODING 770
SWIDTH 2000 0
DWIDTH 16 0
BBX 12 4 2 12
BITMAP
0F00
0F00
F0F0
F0F0
ENDCHAR
STARTCHAR U+0303
ENCODING 771
SWIDTH 2000 0
DWIDTH 16 0
BBX 14 4 0 12
BITMAP
3F3C
3F3C
F3F0
F3F0
ENDCHAR
STARTCHAR U+0304
ENCODING 772
SWIDTH 2000 0
DWIDTH 16 0
BBX 12 2 2 14
BITMAP
FFF0
FFF0
ENDCHAR
STARTCHAR U+0305
ENCODING 773
SWIDTH 2000 0
DWIDTH 16 0
BBX 16 2 0 14
BITMAP
FFFF
FFFF
ENDCHAR
STARTCHAR U+0306
ENCODING 774
SWIDTH 2000 0
DWIDTH 16 0
BBX 14 4 0 12
BITMAP
F03C
F03C
3FF0
3FF0
ENDCHAR
STARTCHAR U+0307
ENCODING 775
SWIDTH 2000 0
DWIDTH 16 0
BBX 4 2 6 14
BITMAP
F000
F000
ENDCHAR
STARTCHAR U+0308
ENCODING 776
SWIDTH 2000 0
DWIDTH 16 0
BBX 12 2 2 14
BITMAP
F0F0
F0F0
ENDCHAR
STARTCHAR U+0309
ENCODING 777
SWIDTH 2000 0
DWIDTH 16 0
BBX 6 6 6 10
BITMAP
F000
F000
0C00
0C00
3000
3000
ENDCHAR
STARTCHAR U+030A
ENCODING 778
SWIDTH 2000 0
DWIDTH 16 0
BBX 4 4 6 12
BITMAP
F000
F000
F000
F000
ENDCHAR
STARTCHAR U+030B
ENCODING 779
SWIDTH 2000 0
DWIDTH 16 0
BBX 14 4 0 12
BITMAP
3C3C
3C3C
F0F0
F0F0
ENDCHAR
STARTCHAR U+030C
ENCODING 780
SWIDTH 2000 0
DWIDTH 16 0
BBX 12 4 2 12
BITMAP
F0F0
F0F0
0F00
0F00
ENDCHAR
STARTCHAR U+030D
ENCODING 781
SWIDTH 2000 0
DWIDTH 16 0
BBX 8 4 4 12
BITMAP
C300
C300
C300
C300
ENDCHAR
STARTCHAR U+030F
ENCODING 783
SWIDTH 2000 0
DWIDTH 16 0
BBX 14 4 0 12
BITMAP
F0F0
F0F0
3C3C
3C3C
ENDCHAR
STARTCHAR U+0310
ENCODING 784
SWIDTH 2000 0
DWIDTH 16 0
BBX 12 6 2 10
BITMAP
CF30
CF30
30C0
30C0
0F00
0F00
ENDCHAR
STARTCHAR U+0311
ENCODING 785
SWIDTH 2000 0
DWIDTH 16 0
BBX 14 4 0 12
BITMAP
3FF0
3FF0
F03C
F03C
ENDCHAR
STARTCHAR U+0313
ENCODING 787
SWIDTH 2000 0
DWIDTH 16 0
BBX 6 4 4 12
BITMAP
3C00
3C00
F000
F000
ENDCHAR
STARTCHAR U+0314
ENCODING 788
SWIDTH 2000 0
DWIDTH 16 0
BBX 6 4 4 12
BITMAP
F000
F000
3C00
3C00
ENDCHAR
STARTCHAR U+0315
ENCODING 789
SWIDTH 2000 0
DWIDTH 16 0
BBX 6 4 10 12
BITMAP
3C00
3C00
F000
F000
ENDCHAR
STARTCHAR U+0316
ENCODING 790
SWIDTH 2000 0
DWIDTH 16 0
BBX 8 2 6 0
BITMAP
FF00
FF00
ENDCHAR
STARTCHAR U+0317
ENCODING 791
SWIDTH 2000 0
DWIDTH 16 0
BBX 8 2 2 0
BITMAP
FF00
FF00
ENDCHAR
STARTCHAR U+0318
ENCODING 792
SWIDTH 2000 0
DWIDTH 16 0
BBX 8 4 4 0
BITMAP
C000
C000
FF00
FF00
ENDCHAR
STARTCHAR U+031B
ENCODING 795
SWIDTH 2000 0
DWIDTH 16 0
BBX 6 4 10 12
BITMAP
3C00
3C00
F000
F000
ENDCHAR
STARTCHAR U+031C
ENCODING 796
SWIDTH 2000 0
DWIDTH 16 0
BBX 4 2 4 0
BITMAP
F000
F000
ENDCHAR
STARTCHAR U+031F
ENCODING 799
SWIDTH 2000 0
DWIDTH 16 0
BBX 10 4 2 0
BITMAP
0C00
0C00
FFC0
FFC0
ENDCHAR
STARTCHAR U+0320
ENCODING 800
SWIDTH 2000 0
DWIDTH 16 0
BBX 8 4 4 0
BITMAP
FF00
FF00
C300
C300
ENDCHAR
STARTCHAR U+0321
ENCODING 801
SWIDTH 2000 0
DWIDTH 16 0
BBX 10 4 4 0
BITMAP
03C0
03C0
FF00
FF00
ENDCHAR
STARTCHAR U+0322
ENCODING 802
SWIDTH 2000 0
DWIDTH 16 0
BBX 8 4 8 0
BITMAP
F000
F000
3F00
3F00
ENDCHAR
STARTCHAR U+0323
ENCODING 803
SWIDTH 2000 0
DWIDTH 16 0
BBX 4 2 6 0
BITMAP
F000
F000
ENDCHAR
STARTCHAR U+0324
ENCODING 804
SWIDTH 2000 0
DWIDTH 16 0
BBX 12 2 2 0
BITMAP
F0F0
F0F0
ENDCHAR
STARTCHAR U+0325
ENCODING 805
SWIDTH 2000 0
DWIDTH 16 0
BBX 4 2 6 0
BITMAP
F000
F000
ENDCHAR
STARTCHAR U+0326
ENCODING 806
SWIDTH 2000 0
DWIDTH 16 0
BBX 6 4 4 0
BITMAP
3C00
3C00
F000
F000
ENDCHAR
STARTCHAR U+0327
ENCODING 807
SWIDTH 2000 0
DWIDTH 16 0
BBX 4 4 6 0
BITMAP
3000
3000
F000
F000
ENDCHAR
STARTCHAR U+0328
ENCODING 808
SWIDTH 2000 0
DWIDTH 16 0
BBX 6 2 8 0
BITMAP
FC00
FC00
ENDCHAR
STARTCHAR U+0329
ENCODING 809
SWIDTH 2000 0
DWIDTH 16 0
BBX 2 4 6 0
BITMAP
C000
C000
C000
C000
ENDCHAR
STARTCHAR U+032B
ENCODING 811
SWIDTH 2000 0
DWIDTH 16 0
BBX 14 4 0 0
BITMAP
C30C
C30C
3CF0
3CF0
ENDCHAR
STARTCHAR U+032C
ENCODING 812
SWIDTH 2000 0
DWIDTH 16 0
BBX 12 4 2 0
BITMAP
F0F0
F0F0
0F00
0F00
ENDCHAR
STARTCHAR U+032E
ENCODING 814
SWIDTH 2000 0
DWIDTH 16 0
BBX 14 4 0 0
BITMAP
F03C
F03C
3FF0
3FF0
ENDCHAR
STARTCHAR U+0330
ENCODING 816
SWIDTH 2000 0
DWIDTH 16 0
BBX 14 4 0 6
BITMAP
3F3C
3F3C
F3F0
F3F0
ENDCHAR
STARTCHAR U+0332
ENCODING 818
SWIDTH 2000 0
DWIDTH 16 0
BBX 16 2 0 0
BITMAP
FFFF
FFFF
ENDCHAR
STARTCHAR U+0333
ENCODING 819
SWIDTH 2000 0
DWIDTH 16 0
BBX 16 4 0 0
BITMAP
FFFF
FFFF
FFFF
FFFF
ENDCHAR
STARTCHAR U+0335
ENCODING 821
SWIDTH 2000 0
DWIDTH 16 0
BBX 12 2 2 8
BITMAP
FFF0
FFF0
ENDCHAR
STARTCHAR U+0336
ENCODING 822
SWIDTH 2000 0
DWIDTH 16 0
BBX 16 2 0 8
BITMAP
FFFF
FFFF
ENDCHAR
STARTCHAR U+0337
ENCODING 823
SWIDTH 2000 0
DWIDTH 16 0
BBX 12 10 2 4
BITMAP
00F0
00F0
03C0
03C0
0F00
0F00
3C00
3C00
F000
F000
ENDCHAR
STARTCHAR U+0338
ENCODING 824
SWIDTH 2000 0
DWIDTH 16 0
BBX 16 16 0 0
BITMAP
000F
000F
003C
003C
00F0
00F0
03C0
03C0
0F00
0F00
3C00
3C00
F000
F000
C000
C000
ENDCHAR
STARTCHAR U+0339
ENCODING 825
SWIDTH 2000 0
DWIDTH 16 0
BBX 4 2 8 0
BITMAP
F000
F000
ENDCHAR
STARTCHAR U+033A
ENCODING 826
SWIDTH 2000 0
DWIDTH 16 0
BBX 8 4 4 0
BITMAP
C300
C300
FF00
FF00
ENDCHAR
STARTCHAR U+033B
ENCODING 827
SWIDTH 2000 0
DWIDTH 16 0
BBX 8 4 4 0
BITMAP
FF00
FF00
FF00
FF00
ENDCHAR
STARTCHAR U+033C
ENCODING 828
SWIDTH 2000 0
DWIDTH 16 0
BBX 14 4 0 0
BITMAP
3CF0
3CF0
C30C
C30C
ENDCHAR
STARTCHAR U+033D
ENCODING 829
SWIDTH 2000 0
DWIDTH 16 0
BBX 10 6 2 10
BITMAP
C0C0
C0C0
3F00
3F00
C0C0
C0C0
ENDCHAR
STARTCHAR U+033E
ENCODING 830
SWIDTH 2000 0
DWIDTH 16 0
BBX 16 4 0 12
BITMAP
FFFF
FFFF
FFFF
FFFF
ENDCHAR
STARTCHAR U+0340
ENCODING 832
SWIDTH 2000 0
DWIDTH 16 0
BBX 6 2 2 14
BITMAP
FC00
FC00
ENDCHAR
STARTCHAR U+0341
ENCODING 833
SWIDTH 2000 0
DWIDTH 16 0
BBX 6 2 8 14
BITMAP
FC00
FC00
ENDCHAR
STARTCHAR U+0342
ENCODING 834
SWIDTH 2000 0
DWIDTH 16 0
BBX 14 4 0 12
BITMAP
3F3C
3F3C
F3F0
F3F0
ENDCHAR
STARTCHAR U+0343
ENCODING 835
SWIDTH 2000 0
DWIDTH 16 0
BBX 6 4 4 12
BITMAP
3C00
3C00
F000
F000
ENDCHAR
STARTCHAR U+0344
ENCODING 836
SWIDTH 2000 0
DWIDTH 16 0
BBX 16 4 0 12
BITMAP
00F0
00F0
F3CF
F3CF
ENDCHAR
STARTCHAR U+034F
ENCODING 847
SWIDTH 2000 0
DWIDTH 16 0
BBX 2 2 14 0
BITMAP
0000
0000
ENDCHAR
STARTCHAR U+0362
ENCODING 866
SWIDTH 2000 0
DWIDTH 16 0
BBX 14 4 2 0
BITMAP
0030
0030
FFFC
FFFC
ENDCHAR
STARTCHAR U+0391
ENCODING 913
SWIDTH 2000 0
DWIDTH 16 0
BBX 12 14 2 2
BITMAP
0F00
0F00
3FC0
3FC0
F0F0
F0F0
F0F0
F0F0
FFF0
FFF0
F0F0
F0F0
F0F0
F0F0
ENDCHAR
STARTCHAR U+0392
ENCODING 914
SWIDTH 2000 0
DWIDTH 16 0
BBX 12 14 2 2
BITMAP
FFC0
FFC0
F0F0
F0F0
F0F0
F0F0
FFC0
FFC0
F0F0
F0F0
F0F0
F0F0
FFC0
FFC0
ENDCHAR
STARTCHAR U+0393
ENCODING 915
SWIDTH 2000 0
DWIDTH 16 0
BBX 12 14 2 2
BITMAP
FFF0
FFF0
F000
F000
F000
F000
F000
F000
F000
F000
F000
F000
F000
F000
ENDCHAR
STARTCHAR U+0394
ENCODING 916
SWIDTH 2000 0
DWIDTH 16 0
BBX 14 14 0 2
BITMAP
0300
0300
0FC0
0FC0
3CF0
3CF0
F03C
F03C
F03C
F03C
F03C
F03C
FFFC
FFFC
ENDCHAR
STARTCHAR U+0395
ENCODING 917
SWIDTH 2000 0
DWIDTH 16 0
BBX 12 14 2 2
BITMAP
FFF0
FFF0
F000
F000
F000
F000
FFC0
FFC0
F000
F000
F000
F000
FFF0
FFF0
ENDCHAR
STARTCHAR U+0396
ENCODING 918
SWIDTH 2000 0
DWIDTH 16 0
BBX 12 14 2 2
BITMAP
FFF0
FFF0
00F0
00F0
03C0
03C0
0F00
0F00
3C00
3C00
F000
F000
FFF0
FFF0
ENDCHAR
STARTCHAR U+0397
ENCODING 919
SWIDTH 2000 0
DWIDTH 16 0
BBX 12 14 2 2
BITMAP
F0F0
F0F0
F0F0
F0F0
F0F0
F0F0
FFF0
FFF0
F0F0
F0F0
F0F0
F0F0
F0F0
F0F0
ENDCHAR
STARTCHAR U+0398
ENCODING 920
SWIDTH 2000 0
DWIDTH 16 0
BBX 14 14 0 2
BITMAP
3FF0
3FF0
F03C
F03C
F03C
F03C
FFFC
FFFC
F03C
F03C
F03C
F03C
3FF0
3FF0
ENDCHAR
STARTCHAR U+0399
ENCODING 921
SWIDTH 2000 0
DWIDTH 16 0
BBX 12 14 2 2
BITMAP
FFF0
FFF0
0F00
0F00
0F00
0F00
0F00
0F00
0F00
0F00
0F00
0F00
FFF0
FFF0
ENDCHAR
STARTCHAR U+039A
ENCODING 922
SWIDTH 2000 0
DWIDTH 16 0
BBX 14 14 0 2
BITMAP
F03C
F03C
F0F0
F0F0
F3C0
F3C0
FF00
FF00
F3C0
F3C0
F0F0
F0F0
F03C
F03C
ENDCHAR
STARTCHAR U+039B
ENCODING 923
SWIDTH 2000 0
DWIDTH 16 0
BBX 14 14 0 2
BITMAP
0300
0300
0FC0
0FC0
3CF0
3CF0
F03C
F03C
F03C
F03C
F03C
F03C
F03C
F03C
ENDCHAR
STARTCHAR U+039C
ENCODING 924
SWIDTH 2000 0
DWIDTH 16 0
BBX 14 14 0 2
BITMAP
F03C
F03C
FCFC
FCFC
FFFC
FFFC
F33C
F33C
F03C
F03C
F03C
F03C
F03C
F03C
ENDCHAR
STARTCHAR U+039D
ENCODING 925
SWIDTH 2000 0
DWIDTH 16 0
BBX 14 14 0 2
BITMAP
F03C
F03C
FC3C
FC3C
FF3C
FF3C
F3FC
F3FC
F0FC
F0FC
F03C
F03C
F03C
F03C
ENDCHAR
STARTCHAR U+039E
ENCODING 926
SWIDTH 2000 0
DWIDTH 16 0
BBX 14 14 0 2
BITMAP
FFFC
FFFC
F03C
F03C
0000
0000
3FF0
3FF0
0000
0000
F03C
F03C
FFFC
FFFC
ENDCHAR
STARTCHAR U+039F
ENCODING 927
SWIDTH 2000 0
DWIDTH 16 0
BBX 12 14 2 2
BITMAP
3FC0
3FC0
F0F0
F0F0
F0F0
F0F0
F0F0
F0F0
F0F0
F0F0
F0F0
F0F0
3FC0
3FC0
ENDCHAR
STARTCHAR U+03A0
ENCODING 928
SWIDTH 2000 0
DWIDTH 16 0
BBX 14 14 0 2
BITMAP
FFFC
FFFC
F03C
F03C
F03C
F03C
F03C
F03C
F03C
F03C
F03C
F03C
F03C
F03C
ENDCHAR
STARTCHAR U+03A1
ENCODING 929
SWIDTH 2000 0
DWIDTH 16 0
BBX 12 14 2 2
BITMAP
FFC0
FFC0
F0F0
F0F0
F0F0
F0F0
FFC0
FFC0
F000
F000
F000
F000
F000
F000
ENDCHAR
STARTCHAR U+03A3
ENCODING 931
SWIDTH 2000 0
DWIDTH 16 0
BBX 14 14 0 2
BITMAP
FFFC
FFFC
3C00
3C00
0F00
0F00
03C0
03C0
0F00
0F00
3C00
3C00
FFFC
FFFC
ENDCHAR
STARTCHAR U+03A4
ENCODING 932
SWIDTH 2000 0
DWIDTH 16 0
BBX 12 14 2 2
BITMAP
FFF0
FFF0
0F00
0F00
0F00
0F00
0F00
0F00
0F00
0F00
0F00
0F00
0F00
0F00
ENDCHAR
STARTCHAR U+03A5
ENCODING 933
SWIDTH 2000 0
DWIDTH 16 0
BBX 12 14 2 2
BITMAP
F0F0
F0F0
F0F0
F0F0
F0F0
F0F0
3FC0
3FC0
0F00
0F00
0F00
0F00
0F00
0F00
ENDCHAR
STARTCHAR U+03A6
ENCODING 934
SWIDTH 2000 0
DWIDTH 16 0
BBX 14 14 0 2
BITMAP
0300
0300
3FF0
3FF0
F33C
F33C
F33C
F33C
F33C
F33C
3FF0
3FF0
0300
0300
ENDCHAR
STARTCHAR U+03A7
ENCODING 935
SWIDTH 2000 0
DWIDTH 16 0
BBX 16 14 0 2
BITMAP
F00F
F00F
3C3C
3C3C
0FF0
0FF0
03C0
03C0
0FF0
0FF0
3C3C
3C3C
F00F
F00F
ENDCHAR
STARTCHAR U+03A8
ENCODING 936
SWIDTH 2000 0
DWIDTH 16 0
BBX 14 14 0 2
BITMAP
0300
0300
F33C
F33C
F33C
F33C
F33C
F33C
F33C
F33C
3FF0
3FF0
0300
0300
ENDCHAR
STARTCHAR U+03A9
ENCODING 937
SWIDTH 2000 0
DWIDTH 16 0
BBX 14 14 0 2
BITMAP
3FF0
3FF0
F03C
F03C
F03C
F03C
F03C
F03C
F03C
F03C
3CF0
3CF0
FCFC
FCFC
ENDCHAR
STARTCHAR U+03B1
ENCODING 945
SWIDTH 2000 0
DWIDTH 16 0
BBX 14 10 0 2
BITMAP
3F3C
3F3C
F0FC
F0FC
F03C
F03C
F0FC
F0FC
3F3C
3F3C
ENDCHAR
STARTCHAR U+03B2
ENCODING 946
SWIDTH 2000 0
DWIDTH 16 0
BBX 14 16 0 0
BITMAP
3FF0
3FF0
F03C
F03C
F03C
F03C
FFF0
FFF0
F03C
F03C
FC3C
FC3C
F3F0
F3F0
F000
F000
ENDCHAR
STARTCHAR U+03B3
ENCODING 947
SWIDTH 2000 0
DWIDTH 16 0
BBX 14 12 0 0
BITMAP
F03C
F03C
3CF0
3CF0
0FC0
0FC0
3CF0
3CF0
3CF0
3CF0
0FC0
0FC0
ENDCHAR
STARTCHAR U+03B4
ENCODING 948
SWIDTH 2000 0
DWIDTH 16 0
BBX 14 14 0 2
BITMAP
FFFC
FFFC
3C00
3C00
0F00
0F00
3FF0
3FF0
F03C
F03C
F03C
F03C
3FF0
3FF0
ENDCHAR
STARTCHAR U+03B5
ENCODING 949
SWIDTH 2000 0
DWIDTH 16 0
BBX 12 10 2 2
BITMAP
3FF0
3FF0
F000
F000
3FC0
3FC0
F000
F000
3FF0
3FF0
ENDCHAR
STARTCHAR U+03B6
ENCODING 950
SWIDTH 2000 0
DWIDTH 16 0
BBX 14 16 0 0
BITMAP
FFFC
FFFC
F03C
F03C
00F0
00F0
3FC0
3FC0
F000
F000
F000
F000
3FF0
3FF0
000C
000C
ENDCHAR
STARTCHAR U+03B7
ENCODING 951
SWIDTH 2000 0
DWIDTH 16 0
BBX 12 12 2 0
BITMAP
FFC0
FFC0
F0F0
F0F0
F0F0
F0F0
F0F0
F0F0
F0F0
F0F0
00F0
00F0
ENDCHAR
STARTCHAR U+03B8
ENCODING 952
SWIDTH 2000 0
DWIDTH 16 0
BBX 12 14 2 2
BITMAP
3FC0
3FC0
F0F0
F0F0
F0F0
F0F0
FFF0
FFF0
F0F0
F0F0
F0F0
F0F0
3FC0
3FC0
ENDCHAR
STARTCHAR U+03B9
ENCODING 953
SWIDTH 2000 0
DWIDTH 16 0
BBX 6 10 6 2
BITMAP
F000
F000
F000
F000
F000
F000
F000
F000
3C00
3C00
ENDCHAR
STARTCHAR U+03BA
ENCODING 954
SWIDTH 2000 0
DWIDTH 16 0
BBX 12 10 2 2
BITMAP
F0F0
F0F0
F3C0
F3C0
FF00
FF00
F3C0
F3C0
F0F0
F0F0
ENDCHAR
STARTCHAR U+03BB
ENCODING 955
SWIDTH 2000 0
DWIDTH 16 0
BBX 14 14 0 2
BITMAP
3FC0
3FC0
F0F0
F0F0
003C
003C
3FFC
3FFC
F03C
F03C
F03C
F03C
F03C
F03C
ENDCHAR
STARTCHAR U+03BC
ENCODING 956
SWIDTH 2000 0
DWIDTH 16 0
BBX 14 12 0 0
BITMAP
F0F0
F0F0
F0F0
F0F0
F0F0
F0F0
F0F0
F0F0
FF3C
FF3C
F000
F000
ENDCHAR
STARTCHAR U+03BD
ENCODING 957
SWIDTH 2000 0
DWIDTH 16 0
BBX 12 10 2 2
BITMAP
F0F0
F0F0
F0F0
F0F0
F0F0
F0F0
3FC0
3FC0
0F00
0F00
ENDCHAR
STARTCHAR U+03BE
ENCODING 958
SWIDTH 2000 0
DWIDTH 16 0
BBX 14 16 0 0
BITMAP
FFFC
FFFC
003C
003C
3FF0
3FF0
F000
F000
3F00
3F00
F000
F000
3FF0
3FF0
000C
000C
ENDCHAR
STARTCHAR U+03BF
ENCODING 959
SWIDTH 2000 0
DWIDTH 16 0
BBX 12 10 2 2
BITMAP
3FC0
3FC0
F0F0
F0F0
F0F0
F0F0
F0F0
F0F0
3FC0
3FC0
ENDCHAR
STARTCHAR U+03C0
ENCODING 960
SWIDTH 2000 0
DWIDTH 16 0
BBX 14 10 0 2
BITMAP
FFFC
FFFC
3CF0
3CF0
3CF0
3CF0
3CF0
3CF0
3CF0
3CF0
ENDCHAR
STARTCHAR U+03C1
ENCODING 961
SWIDTH 2000 0
DWIDTH 16 0
BBX 12 12 2 0
BITMAP
3FC0
3FC0
F0F0
F0F0
F0F0
F0F0
FFC0
FFC0
F000
F000
F000
F000
ENDCHAR
STARTCHAR U+03C2
ENCODING 962
SWIDTH 2000 0
DWIDTH 16 0
BBX 14 12 0 0
BITMAP
3FF0
3FF0
F03C
F03C
F000
F000
F000
F000
3FF0
3FF0
003C
003C
ENDCHAR
STARTCHAR U+03C3
ENCODING 963
SWIDTH 2000 0
DWIDTH 16 0
BBX 14 10 0 2
BITMAP
3FFC
3FFC
F0F0
F0F0
F03C
F03C
F03C
F03C
3FF0
3FF0
ENDCHAR
STARTCHAR U+03C4
ENCODING 964
SWIDTH 2000 0
DWIDTH 16 0
BBX 12 10 2 2
BITMAP
FFF0
FFF0
0F00
0F00
0F00
0F00
0F00
0F00
03C0
03C0
ENDCHAR
STARTCHAR U+03C5
ENCODING 965
SWIDTH 2000 0
DWIDTH 16 0
BBX 14 10 0 2
BITMAP
F03C
F03C
3C3C
3C3C
3C3C
3C3C
3C3C
3C3C
0FF0
0FF0
ENDCHAR
STARTCHAR U+03C6
ENCODING 966
SWIDTH 2000 0
DWIDTH 16 0
BBX 16 12 0 0
BITMAP
3CFC
3CFC
F3CF
F3CF
F3CF
F3CF
3FFC
3FFC
03C0
03C0
03C0
03C0
ENDCHAR
STARTCHAR U+03C7
ENCODING 967
SWIDTH 2000 0
DWIDTH 16 0
BBX 14 10 0 2
BITMAP
F03C
F03C
3CF0
3CF0
0FC0
0FC0
3CF0
3CF0
F03C
F03C
ENDCHAR
STARTCHAR U+03C8
ENCODING 968
SWIDTH 2000 0
DWIDTH 16 0
BBX 16 12 0 0
BITMAP
F00F
F00F
F3CF
F3CF
F3CF
F3CF
3FFC
3FFC
03C0
03C0
03C0
03C0
ENDCHAR
STARTCHAR U+03C9
ENCODING 969
SWIDTH 2000 0
DWIDTH 16 0
BBX 14 10 0 2
BITMAP
F03C
F03C
F33C
F33C
F33C
F33C
FFFC
FFFC
3CF0
3CF0
ENDCHAR
STARTCHAR U+0400
ENCODING 1024
SWIDTH 2000 0
DWIDTH 16 0
BBX 12 14 2 2
BITMAP
FC00
FC00
0000
0000
3FC0
3FC0
F0F0
F0F0
FFF0
FFF0
F0F0
F0F0
F0F0
F0F0
ENDCHAR
STARTCHAR U+0401
ENCODING 1025
SWIDTH 2000 0
DWIDTH 16 0
BBX 12 14 2 2
BITMAP
F0F0
F0F0
0000
0000
3FC0
3FC0
F0F0
F0F0
FFF0
FFF0
F0F0
F0F0
F0F0
F0F0
ENDCHAR
STARTCHAR U+0405
ENCODING 1029
SWIDTH 2000 0
DWIDTH 16 0
BBX 14 14 0 2
BITMAP
03F0
03F0
0F3C
0F3C
3C00
3C00
0FF0
0FF0
003C
003C
F03C
F03C
3FF0
3FF0
ENDCHAR
STARTCHAR U+0406
ENCODING 1030
SWIDTH 2000 0
DWIDTH 16 0
BBX 12 14 2 2
BITMAP
0FF0
0FF0
FF00
FF00
0F00
0F00
0F00
0F00
0F00
0F00
0FF0
0FF0
FF00
FF00
ENDCHAR
STARTCHAR U+0407
ENCODING 1031
SWIDTH 2000 0
DWIDTH 16 0
BBX 12 14 2 2
BITMAP
F0F0
F0F0
0000
0000
FFF0
FFF0
0F00
0F00
0F00
0F00
0F00
0F00
FFF0
FFF0
ENDCHAR
STARTCHAR U+0408
ENCODING 1032
SWIDTH 2000 0
DWIDTH 16 0
BBX 14 14 0 2
BITMAP
0FFC
0FFC
3CF0
3CF0
00F0
00F0
00F0
00F0
F0F0
F0F0
F0F0
F0F0
3FC0
3FC0
ENDCHAR
STARTCHAR U+0409
ENCODING 1033
SWIDTH 2000 0
DWIDTH 16 0
BBX 16 14 0 2
BITMAP
0FF0
0FF0
3CF0
3CF0
3CF0
3CF0
3CFC
3CFC
3CF3
3CF3
3CF3
3CF3
F0FC
F0FC
ENDCHAR
STARTCHAR U+0410
ENCODING 1040
SWIDTH 2000 0
DWIDTH 16 0
BBX 12 14 2 2
BITMAP
0F00
0F00
3FC0
3FC0
F0F0
F0F0
F0F0
F0F0
FFF0
FFF0
F0F0
F0F0
F0F0
F0F0
ENDCHAR
STARTCHAR U+0411
ENCODING 1041
SWIDTH 2000 0
DWIDTH 16 0
BBX 12 14 2 2
BITMAP
FFF0
FFF0
F000
F000
F000
F000
FFC0
FFC0
F0F0
F0F0
F0F0
F0F0
FFC0
FFC0
ENDCHAR
STARTCHAR U+0412
ENCODING 1042
SWIDTH 2000 0
DWIDTH 16 0
BBX 12 14 2 2
BITMAP
FFC0
FFC0
F0F0
F0F0
F0F0
F0F0
FFC0
FFC0
F0F0
F0F0
F0F0
F0F0
FFC0
FFC0
ENDCHAR
STARTCHAR U+0413
ENCODING 1043
SWIDTH 2000 0
DWIDTH 16 0
BBX 12 14 2 2
BITMAP
FFF0
FFF0
F000
F000
F000
F000
F000
F000
F000
F000
F000
F000
F000
F000
ENDCHAR
STARTCHAR U+0414
ENCODING 1044
SWIDTH 2000 0
DWIDTH 16 0
BBX 16 16 0 0
BITMAP
03FC
03FC
0F3C
0F3C
3C3C
3C3C
3C3C
3C3C
3C3C
3C3C
3C3C
3C3C
FFFF
FFFF
F00F
F00F
ENDCHAR
STARTCHAR U+0415
ENCODING 1045
SWIDTH 2000 0
DWIDTH 16 0
BBX 12 14 2 2
BITMAP
FFF0
FFF0
F000
F000
F000
F000
FFC0
FFC0
F000
F000
F000
F000
FFF0
FFF0
ENDCHAR
STARTCHAR U+0416
ENCODING 1046
SWIDTH 2000 0
DWIDTH 16 0
BBX 14 14 0 2
BITMAP
F33C
F33C
F33C
F33C
3FF0
3FF0
0FC0
0FC0
3FF0
3FF0
F33C
F33C
F33C
F33C
ENDCHAR
STARTCHAR U+0417
ENCODING 1047
SWIDTH 2000 0
DWIDTH 16 0
BBX 12 14 2 2
BITMAP
3FC0
3FC0
F0F0
F0F0
00F0
00F0
0FC0
0FC0
00F0
00F0
F0F0
F0F0
3FC0
3FC0
ENDCHAR
STARTCHAR U+0418
ENCODING 1048
SWIDTH 2000 0
DWIDTH 16 0
BBX 14 14 0 2
BITMAP
F03C
F03C
F03C
F03C
F0FC
F0FC
F3FC
F3FC
FF3C
FF3C
FC3C
FC3C
F03C
F03C
ENDCHAR
STARTCHAR U+0419
ENCODING 1049
SWIDTH 2000 0
DWIDTH 16 0
BBX 14 14 0 2
BITMAP
0FC0
0FC0
F03C
F03C
F0FC
F0FC
F3FC
F3FC
FF3C
FF3C
FC3C
FC3C
F03C
F03C
ENDCHAR
STARTCHAR U+041A
ENCODING 1050
SWIDTH 2000 0
DWIDTH 16 0
BBX 14 14 0 2
BITMAP
F03C
F03C
F0F0
F0F0
F3C0
F3C0
FF00
FF00
F3C0
F3C0
F0F0
F0F0
F03C
F03C
ENDCHAR
STARTCHAR U+041B
ENCODING 1051
SWIDTH 2000 0
DWIDTH 16 0
BBX 14 14 0 2
BITMAP
03FC
03FC
0F3C
0F3C
3C3C
3C3C
3C3C
3C3C
3C3C
3C3C
3C3C
3C3C
F03C
F03C
ENDCHAR
STARTCHAR U+041C
ENCODING 1052
SWIDTH 2000 0
DWIDTH 16 0
BBX 14 14 0 2
BITMAP
F03C
F03C
FCFC
FCFC
FFFC
FFFC
F33C
F33C
F03C
F03C
F03C
F03C
F03C
F03C
ENDCHAR
STARTCHAR U+041D
ENCODING 1053
SWIDTH 2000 0
DWIDTH 16 0
BBX 12 14 2 2
BITMAP
F0F0
F0F0
F0F0
F0F0
F0F0
F0F0
FFF0
FFF0
F0F0
F0F0
F0F0
F0F0
F0F0
F0F0
ENDCHAR
STARTCHAR U+041E
ENCODING 1054
SWIDTH 2000 0
DWIDTH 16 0
BBX 12 14 2 2
BITMAP
3FC0
3FC0
F0F0
F0F0
F0F0
F0F0
F0F0
F0F0
F0F0
F0F0
F0F0
F0F0
3FC0
3FC0
ENDCHAR
STARTCHAR U+041F
ENCODING 1055
SWIDTH 2000 0
DWIDTH 16 0
BBX 12 14 2 2
BITMAP
FFF0
FFF0
F0F0
F0F0
F0F0
F0F0
F0F0
F0F0
F0F0
F0F0
F0F0
F0F0
F0F0
F0F0
ENDCHAR
STARTCHAR U+0420
ENCODING 1056
SWIDTH 2000 0
DWIDTH 16 0
BBX 12 14 2 2
BITMAP
FFC0
FFC0
F0F0
F0F0
F0F0
F0F0
FFC0
FFC0
F000
F000
F000
F000
F000
F000
ENDCHAR
STARTCHAR U+0421
ENCODING 1057
SWIDTH 2000 0
DWIDTH 16 0
BBX 12 14 2 2
BITMAP
3FC0
3FC0
F0F0
F0F0
F000
F000
F000
F000
F000
F000
F0F0
F0F0
3FC0
3FC0
ENDCHAR
STARTCHAR U+0422
ENCODING 1058
SWIDTH 2000 0
DWIDTH 16 0
BBX 12 14 2 2
BITMAP
FFF0
FFF0
0F00
0F00
0F00
0F00
0F00
0F00
0F00
0F00
0F00
0F00
0F00
0F00
ENDCHAR
STARTCHAR U+0423
ENCODING 1059
SWIDTH 2000 0
DWIDTH 16 0
BBX 12 14 2 2
BITMAP
F0F0
F0F0
F0F0
F0F0
F0F0
F0F0
3FF0
3FF0
00F0
00F0
00F0
00F0
FFC0
FFC0
ENDCHAR
STARTCHAR U+0424
ENCODING 1060
SWIDTH 2000 0
DWIDTH 16 0
BBX 14 14 0 2
BITMAP
0300
0300
3FF0
3FF0
F33C
F33C
F33C
F33C
F33C
F33C
3FF0
3FF0
0300
0300
ENDCHAR
STARTCHAR U+0425
ENCODING 1061
SWIDTH 2000 0
DWIDTH 16 0
BBX 16 14 0 2
BITMAP
F00F
F00F
3C3C
3C3C
0FF0
0FF0
03C0
03C0
0FF0
0FF0
3C3C
3C3C
F00F
F00F
ENDCHAR
STARTCHAR U+0426
ENCODING 1062
SWIDTH 2000 0
DWIDTH 16 0
BBX 14 16 0 0
BITMAP
F0F0
F0F0
F0F0
F0F0
F0F0
F0F0
F0F0
F0F0
F0F0
F0F0
F0F0
F0F0
FFFC
FFFC
003C
003C
ENDCHAR
STARTCHAR U+0427
ENCODING 1063
SWIDTH 2000 0
DWIDTH 16 0
BBX 14 14 0 2
BITMAP
F03C
F03C
F03C
F03C
F03C
F03C
3FFC
3FFC
003C
003C
003C
003C
003C
003C
ENDCHAR
STARTCHAR U+0428
ENCODING 1064
SWIDTH 2000 0
DWIDTH 16 0
BBX 14 14 0 2
BITMAP
F33C
F33C
F33C
F33C
F33C
F33C
F33C
F33C
F33C
F33C
F33C
F33C
FFFC
FFFC
ENDCHAR
STARTCHAR U+0429
ENCODING 1065
SWIDTH 2000 0
DWIDTH 16 0
BBX 16 16 0 0
BITMAP
F33C
F33C
F33C
F33C
F33C
F33C
F33C
F33C
F33C
F33C
F33C
F33C
FFFF
FFFF
000F
000F
ENDCHAR
STARTCHAR U+042A
ENCODING 1066
SWIDTH 2000 0
DWIDTH 16 0
BBX 14 14 0 2
BITMAP
FF00
FF00
FF00
FF00
CF00
CF00
0FF0
0FF0
0F3C
0F3C
0F3C
0F3C
0FF0
0FF0
ENDCHAR
STARTCHAR U+042B
ENCODING 1067
SWIDTH 2000 0
DWIDTH 16 0
BBX 14 14 0 2
BITMAP
F03C
F03C
F03C
F03C
F03C
F03C
FF3C
FF3C
F3FC
F3FC
F3FC
F3FC
FF3C
FF3C
ENDCHAR
STARTCHAR U+042C
ENCODING 1068
SWIDTH 2000 0
DWIDTH 16 0
BBX 12 14 2 2
BITMAP
F000
F000
F000
F000
F000
F000
FFC0
FFC0
F0F0
F0F0
F0F0
F0F0
FFC0
FFC0
ENDCHAR
STARTCHAR U+042D
ENCODING 1069
SWIDTH 2000 0
DWIDTH 16 0
BBX 14 14 0 2
BITMAP
3FC0
3FC0
F0F0
F0F0
003C
003C
0FFC
0FFC
003C
003C
F0F0
F0F0
3FC0
3FC0
ENDCHAR
STARTCHAR U+042E
ENCODING 1070
SWIDTH 2000 0
DWIDTH 16 0
BBX 14 14 0 2
BITMAP
F3F0
F3F0
F33C
F33C
F33C
F33C
FF3C
FF3C
F33C
F33C
F33C
F33C
F3F0
F3F0
ENDCHAR
STARTCHAR U+042F
ENCODING 1071
SWIDTH 2000 0
DWIDTH 16 0
BBX 12 14 2 2
BITMAP
3FF0
3FF0
F0F0
F0F0
F0F0
F0F0
F0F0
F0F0
3FF0
3FF0
3CF0
3CF0
F0F0
F0F0
ENDCHAR
STARTCHAR U+0430
ENCODING 1072
SWIDTH 2000 0
DWIDTH 16 0
BBX 12 10 2 2
BITMAP
3FC0
3FC0
00F0
00F0
3FF0
3FF0
F0F0
F0F0
3FF0
3FF0
ENDCHAR
STARTCHAR U+0431
ENCODING 1073
SWIDTH 2000 0
DWIDTH 16 0
BBX 12 14 2 2
BITMAP
00F0
00F0
3FC0
3FC0
F000
F000
FFC0
FFC0
F0F0
F0F0
F0F0
F0F0
3FC0
3FC0
ENDCHAR
STARTCHAR U+0432
ENCODING 1074
SWIDTH 2000 0
DWIDTH 16 0
BBX 12 10 2 2
BITMAP
FFC0
FFC0
F0F0
F0F0
FFC0
FFC0
F0F0
F0F0
FFC0
FFC0
ENDCHAR
STARTCHAR U+0433
ENCODING 1075
SWIDTH 2000 0
DWIDTH 16 0
BBX 12 10 2 2
BITMAP
FFF0
FFF0
F000
F000
F000
F000
F000
F000
F000
F000
ENDCHAR
STARTCHAR U+0434
ENCODING 1076
SWIDTH 2000 0
DWIDTH 16 0
BBX 14 12 0 0
BITMAP
0FF0
0FF0
3CF0
3CF0
3CF0
3CF0
3CF0
3CF0
FFFC
FFFC
F03C
F03C
ENDCHAR
STARTCHAR U+0435
ENCODING 1077
SWIDTH 2000 0
DWIDTH 16 0
BBX 12 10 2 2
BITMAP
3FC0
3FC0
F0F0
F0F0
FFF0
FFF0
F000
F000
3FC0
3FC0
ENDCHAR
STARTCHAR U+0436
ENCODING 1078
SWIDTH 2000 0
DWIDTH 16 0
BBX 14 10 0 2
BITMAP
F33C
F33C
3FF0
3FF0
0FC0
0FC0
3FF0
3FF0
F33C
F33C
ENDCHAR
STARTCHAR U+0437
ENCODING 1079
SWIDTH 2000 0
DWIDTH 16 0
BBX 14 10 0 2
BITMAP
3FF0
3FF0
F03C
F03C
03F0
03F0
F03C
F03C
3FF0
3FF0
ENDCHAR
STARTCHAR U+0438
ENCODING 1080
SWIDTH 2000 0
DWIDTH 16 0
BBX 14 10 0 2
BITMAP
F03C
F03C
F0FC
F0FC
F3FC
F3FC
FF3C
FF3C
FC3C
FC3C
ENDCHAR
STARTCHAR U+0439
ENCODING 1081
SWIDTH 2000 0
DWIDTH 16 0
BBX 14 12 0 2
BITMAP
0FC0
0FC0
F03C
F03C
F0FC
F0FC
F3FC
F3FC
FF3C
FF3C
FC3C
FC3C
ENDCHAR
STARTCHAR U+043A
ENCODING 1082
SWIDTH 2000 0
DWIDTH 16 0
BBX 12 10 2 2
BITMAP
F0F0
F0F0
F3C0
F3C0
FF00
FF00
F3C0
F3C0
F0F0
F0F0
ENDCHAR
STARTCHAR U+043B
ENCODING 1083
SWIDTH 2000 0
DWIDTH 16 0
BBX 14 10 0 2
BITMAP
0FFC
0FFC
3C3C
3C3C
3C3C
3C3C
3C3C
3C3C
FC3C
FC3C
ENDCHAR
STARTCHAR U+043C
ENCODING 1084
SWIDTH 2000 0
DWIDTH 16 0
BBX 14 10 0 2
BITMAP
F03C
F03C
FFFC
FFFC
FFFC
FFFC
F33C
F33C
F03C
F03C
ENDCHAR
STARTCHAR U+043D
ENCODING 1085
SWIDTH 2000 0
DWIDTH 16 0
BBX 12 10 2 2
BITMAP
F0F0
F0F0
F0F0
F0F0
FFF0
FFF0
F0F0
F0F0
F0F0
F0F0
ENDCHAR
STARTCHAR U+043E
ENCODING 1086
SWIDTH 2000 0
DWIDTH 16 0
BBX 12 10 2 2
BITMAP
3FC0
3FC0
F0F0
F0F0
F0F0
F0F0
F0F0
F0F0
3FC0
3FC0
ENDCHAR
STARTCHAR U+043F
ENCODING 1087
SWIDTH 2000 0
DWIDTH 16 0
BBX 12 10 2 2
BITMAP
FFF0
FFF0
F0F0
F0F0
F0F0
F0F0
F0F0
F0F0
F0F0
F0F0
ENDCHAR
STARTCHAR U+0440
ENCODING 1088
SWIDTH 2000 0
DWIDTH 16 0
BBX 12 12 2 0
BITMAP
FFC0
FFC0
F0F0
F0F0
F0F0
F0F0
FFC0
FFC0
F000
F000
F000
F000
ENDCHAR
STARTCHAR U+0441
ENCODING 1089
SWIDTH 2000 0
DWIDTH 16 0
BBX 10 10 2 2
BITMAP
3FC0
3FC0
F000
F000
F000
F000
F000
F000
3FC0
3FC0
ENDCHAR
STARTCHAR U+0442
ENCODING 1090
SWIDTH 2000 0
DWIDTH 16 0
BBX 12 10 2 2
BITMAP
FFF0
FFF0
0F00
0F00
0F00
0F00
0F00
0F00
0F00
0F00
ENDCHAR
STARTCHAR U+0443
ENCODING 1091
SWIDTH 2000 0
DWIDTH 16 0
BBX 12 12 2 0
BITMAP
F0F0
F0F0
F0F0
F0F0
F0F0
F0F0
3FF0
3FF0
00F0
00F0
3FC0
3FC0
ENDCHAR
STARTCHAR U+0444
ENCODING 1092
SWIDTH 2000 0
DWIDTH 16 0
BBX 14 16 0 0
BITMAP
0300
0300
0300
0300
3FF0
3FF0
F33C
F33C
F33C
F33C
3FF0
3FF0
0300
0300
0300
0300
ENDCHAR
STARTCHAR U+0445
ENCODING 1093
SWIDTH 2000 0
DWIDTH 16 0
BBX 14 10 0 2
BITMAP
F03C
F03C
3CF0
3CF0
0FC0
0FC0
3CF0
3CF0
F03C
F03C
ENDCHAR
STARTCHAR U+0446
ENCODING 1094
SWIDTH 2000 0
DWIDTH 16 0
BBX 14 12 0 0
BITMAP
F0F0
F0F0
F0F0
F0F0
F0F0
F0F0
F0F0
F0F0
FFFC
FFFC
003C
003C
ENDCHAR
STARTCHAR U+0447
ENCODING 1095
SWIDTH 2000 0
DWIDTH 16 0
BBX 12 10 2 2
BITMAP
F0F0
F0F0
F0F0
F0F0
3FF0
3FF0
00F0
00F0
00F0
00F0
ENDCHAR
STARTCHAR U+0448
ENCODING 1096
SWIDTH 2000 0
DWIDTH 16 0
BBX 14 10 0 2
BITMAP
F33C
F33C
F33C
F33C
F33C
F33C
F33C
F33C
FFFC
FFFC
ENDCHAR
STARTCHAR U+0449
ENCODING 1097
SWIDTH 2000 0
DWIDTH 16 0
BBX 14 12 0 0
BITMAP
F33C
F33C
F33C
F33C
F33C
F33C
F33C
F33C
FFFC
FFFC
003C
003C
ENDCHAR
STARTCHAR U+044A
ENCODING 1098
SWIDTH 2000 0
DWIDTH 16 0
BBX 14 10 0 2
BITMAP
FC00
FC00
FC00
FC00
3FF0
3FF0
3C3C
3C3C
3FF0
3FF0
ENDCHAR
STARTCHAR U+044B
ENCODING 1099
SWIDTH 2000 0
DWIDTH 16 0
BBX 14 10 0 2
BITMAP
F03C
F03C
F03C
F03C
FF3C
FF3C
F3FC
F3FC
FF3C
FF3C
ENDCHAR
STARTCHAR U+044C
ENCODING 1100
SWIDTH 2000 0
DWIDTH 16 0
BBX 12 10 2 2
BITMAP
F000
F000
F000
F000
FFC0
FFC0
F0F0
F0F0
FFC0
FFC0
ENDCHAR
STARTCHAR U+044D
ENCODING 1101
SWIDTH 2000 0
DWIDTH 16 0
BBX 14 10 0 2
BITMAP
3FF0
3FF0
F03C
F03C
03FC
03FC
F03C
F03C
3FF0
3FF0
ENDCHAR
STARTCHAR U+044E
ENCODING 1102
SWIDTH 2000 0
DWIDTH 16 0
BBX 14 10 0 2
BITMAP
F0F0
F0F0
F33C
F33C
FF3C
FF3C
F33C
F33C
F0F0
F0F0
ENDCHAR
STARTCHAR U+044F
ENCODING 1103
SWIDTH 2000 0
DWIDTH 16 0
BBX 12 10 2 2
BITMAP
3FF0
3FF0
F0F0
F0F0
3FF0
3FF0
3CF0
3CF0
F0F0
F0F0
ENDCHAR
STARTCHAR U+0450
ENCODING 1104
SWIDTH 2000 0
DWIDTH 16 0
BBX 12 14 2 2
BITMAP
FC00
FC00
0000
0000
3FF0
3FF0
F0F0
F0F0
FFF0
FFF0
F000
F000
FFC0
FFC0
ENDCHAR
STARTCHAR U+0451
ENCODING 1105
SWIDTH 2000 0
DWIDTH 16 0
BBX 12 14 2 2
BITMAP
F0F0
F0F0
0000
0000
3FF0
3FF0
F0F0
F0F0
FFF0
FFF0
F000
F000
FFC0
FFC0
ENDCHAR
STARTCHAR U+0455
ENCODING 1109
SWIDTH 2000 0
DWIDTH 16 0
BBX 12 10 2 2
BITMAP
3FF0
3FF0
F000
F000
FFF0
FFF0
00F0
00F0
FFC0
FFC0
ENDCHAR
STARTCHAR U+0456
ENCODING 1110
SWIDTH 2000 0
DWIDTH 16 0
BBX 6 12 6 2
BITMAP
F000
F000
0000
0000
F000
F000
F000
F000
F000
F000
3C00
3C00
ENDCHAR
STARTCHAR U+0457
ENCODING 1111
SWIDTH 2000 0
DWIDTH 16 0
BBX 12 14 2 2
BITMAP
F0F0
F0F0
0000
0000
3F00
3F00
0F00
0F00
0F00
0F00
0F00
0F00
3FC0
3FC0
ENDCHAR
STARTCHAR U+0458
ENCODING 1112
SWIDTH 2000 0
DWIDTH 16 0
BBX 12 14 2 0
BITMAP
03C0
03C0
0000
0000
03F0
03F0
03C0
03C0
03C0
03C0
03C0
03C0
FF00
FF00
ENDCHAR
STARTCHAR U+04D0
ENCODING 1232
SWIDTH 2000 0
DWIDTH 16 0
BBX 14 14 0 2
BITMAP
F03C
F03C
3FF0
3FF0
0000
0000
0FF0
0FF0
3C3C
3C3C
3FFC
3FFC
3C3C
3C3C
ENDCHAR
STARTCHAR U+04D1
ENCODING 1233
SWIDTH 2000 0
DWIDTH 16 0
BBX 14 14 0 2
BITMAP
F03C
F03C
3FF0
3FF0
0FF0
0FF0
3CF0
3CF0
3CF0
3CF0
3CF0
3CF0
0F3C
0F3C
ENDCHAR
STARTCHAR U+04D2
ENCODING 1234
SWIDTH 2000 0
DWIDTH 16 0
BBX 12 14 2 2
BITMAP
F0F0
F0F0
0000
0000
3FC0
3FC0
F0F0
F0F0
FFF0
FFF0
F0F0
F0F0
F0F0
F0F0
ENDCHAR
STARTCHAR U+04D3
ENCODING 1235
SWIDTH 2000 0
DWIDTH 16 0
BBX 12 14 2 2
BITMAP
F0F0
F0F0
0000
0000
3FC0
3FC0
F3C0
F3C0
F3C0
F3C0
F3C0
F3C0
3CF0
3CF0
ENDCHAR
STARTCHAR U+04D4
ENCODING 1236
SWIDTH 2000 0
DWIDTH 16 0
BBX 16 14 0 2
BITMAP
0FFF
0FFF
3CF0
3CF0
F0F0
F0F0
FFFC
FFFC
F0F0
F0F0
F0F0
F0F0
F0FF
F0FF
ENDCHAR
STARTCHAR U+04D5
ENCODING 1237
SWIDTH 2000 0
DWIDTH 16 0
BBX 16 10 0 2
BITMAP
3FFC
3FFC
03CF
03CF
3FFF
3FFF
F3C0
F3C0
3F3F
3F3F
ENDCHAR
STARTCHAR U+04D6
ENCODING 1238
SWIDTH 2000 0
DWIDTH 16 0
BBX 14 14 0 2
BITMAP
F03C
F03C
3FF0
3FF0
0000
0000
FFFC
FFFC
FF00
FF00
F000
F000
FFFC
FFFC
ENDCHAR
STARTCHAR U+04D7
ENCODING 1239
SWIDTH 2000 0
DWIDTH 16 0
BBX 14 14 0 2
BITMAP
F03C
F03C
3FF0
3FF0
0FFC
0FFC
3C3C
3C3C
3FFC
3FFC
3C00
3C00
3FF0
3FF0
ENDCHAR
STARTCHAR U+04E6
ENCODING 1254
SWIDTH 2000 0
DWIDTH 16 0
BBX 14 14 0 2
BITMAP
3C3C
3C3C
0000
0000
3FF0
3FF0
F03C
F03C
F03C
F03C
F03C
F03C
3FF0
3FF0
ENDCHAR
STARTCHAR U+04E7
ENCODING 1255
SWIDTH 2000 0
DWIDTH 16 0
BBX 12 14 2 2
BITMAP
F0F0
F0F0
0000
0000
3FF0
3FF0
F0F0
F0F0
F0F0
F0F0
F0F0
F0F0
FFC0
FFC0
ENDCHAR
STARTCHAR U+04F1
ENCODING 1265
SWIDTH 2000 0
DWIDTH 16 0
BBX 14 16 0 0
BITMAP
3C3C
3C3C
0000
0000
F0FC
F0FC
F0F0
F0F0
F0F0
F0F0
3FF0
3FF0
00F0
00F0
0FC0
0FC0
ENDCHAR
STARTCHAR U+05D0
ENCODING 1488
SWIDTH 2000 0
DWIDTH 16 0
BBX 12 10 2 4
BITMAP
F0F0
F0F0
FCF0
FCF0
3FC0
3FC0
F3F0
F3F0
F0F0
F0F0
ENDCHAR
STARTCHAR U+05D1
ENCODING 1489
SWIDTH 2000 0
DWIDTH 16 0
BBX 12 10 2 4
BITMAP
FF00
FF00
03C0
03C0
03C0
03C0
03C0
03C0
FFF0
FFF0
ENDCHAR
STARTCHAR U+05D2
ENCODING 1490
SWIDTH 2000 0
DWIDTH 16 0
BBX 10 10 4 4
BITMAP
3F00
3F00
03C0
03C0
0FC0
0FC0
3FC0
3FC0
F3C0
F3C0
ENDCHAR
STARTCHAR U+05D3
ENCODING 1491
SWIDTH 2000 0
DWIDTH 16 0
BBX 12 10 2 4
BITMAP
FFF0
FFF0
03C0
03C0
03C0
03C0
03C0
03C0
03C0
03C0
ENDCHAR
STARTCHAR U+05D4
ENCODING 1492
SWIDTH 2000 0
DWIDTH 16 0
BBX 12 10 2 4
BITMAP
FFC0
FFC0
00F0
00F0
F0F0
F0F0
F0F0
F0F0
F0F0
F0F0
ENDCHAR
STARTCHAR U+05D5
ENCODING 1493
SWIDTH 2000 0
DWIDTH 16 0
BBX 6 10 6 4
BITMAP
F000
F000
3C00
3C00
3C00
3C00
3C00
3C00
3C00
3C00
ENDCHAR
STARTCHAR U+05D6
ENCODING 1494
SWIDTH 2000 0
DWIDTH 16 0
BBX 12 10 2 4
BITMAP
FFF0
FFF0
03C0
03C0
0F00
0F00
0F00
0F00
0F00
0F00
ENDCHAR
STARTCHAR U+05D7
ENCODING 1495
SWIDTH 2000 0
DWIDTH 16 0
BBX 12 10 2 4
BITMAP
FFC0
FFC0
3CF0
3CF0
3CF0
3CF0
3CF0
3CF0
3CF0
3CF0
ENDCHAR
STARTCHAR U+05D8
ENCODING 1496
SWIDTH 2000 0
DWIDTH 16 0
BBX 12 12 2 4
BITMAP
F000
F000
F3C0
F3C0
F0F0
F0F0
F0F0
F0F0
F0F0
F0F0
3FC0
3FC0
ENDCHAR
STARTCHAR U+05D9
ENCODING 1497
SWIDTH 2000 0
DWIDTH 16 0
BBX 8 6 4 8
BITMAP
FC00
FC00
0F00
0F00
0F00
0F00
ENDCHAR
STARTCHAR U+05DA
ENCODING 1498
SWIDTH 2000 0
DWIDTH 16 0
BBX 12 14 2 0
BITMAP
FFC0
FFC0
00F0
00F0
00F0
00F0
00F0
00F0
00F0
00F0
00F0
00F0
00F0
00F0
ENDCHAR
STARTCHAR U+05DB
ENCODING 1499
SWIDTH 2000 0
DWIDTH 16 0
BBX 10 10 4 4
BITMAP
FF00
FF00
03C0
03C0
03C0
03C0
03C0
03C0
FF00
FF00
ENDCHAR
STARTCHAR U+05DC
ENCODING 1500
SWIDTH 2000 0
DWIDTH 16 0
BBX 12 14 2 2
BITMAP
F000
F000
FFC0
FFC0
00F0
00F0
00F0
00F0
03C0
03C0
0F00
0F00
0F00
0F00
ENDCHAR
STARTCHAR U+05DD
ENCODING 1501
SWIDTH 2000 0
DWIDTH 16 0
BBX 14 10 0 4
BITMAP
FFF0
FFF0
3C3C
3C3C
3C3C
3C3C
3C3C
3C3C
3FFC
3FFC
ENDCHAR
STARTCHAR U+05DE
ENCODING 1502
SWIDTH 2000 0
DWIDTH 16 0
BBX 12 12 2 2
BITMAP
FFC0
FFC0
F0F0
F0F0
F0F0
F0F0
F0F0
F0F0
F0F0
F0F0
F3F0
F3F0
ENDCHAR
STARTCHAR U+05DF
ENCODING 1503
SWIDTH 2000 0
DWIDTH 16 0
BBX 6 12 6 2
BITMAP
F000
F000
3C00
3C00
3C00
3C00
3C00
3C00
3C00
3C00
3C00
3C00
ENDCHAR
STARTCHAR U+05E0
ENCODING 1504
SWIDTH 2000 0
DWIDTH 16 0
BBX 8 10 4 4
BITMAP
3C00
3C00
0F00
0F00
0F00
0F00
0F00
0F00
FF00
FF00
ENDCHAR
STARTCHAR U+05E1
ENCODING 1505
SWIDTH 2000 0
DWIDTH 16 0
BBX 12 10 2 4
BITMAP
FFF0
FFF0
F0F0
F0F0
F0F0
F0F0
F0F0
F0F0
3FC0
3FC0
ENDCHAR
STARTCHAR U+05E2
ENCODING 1506
SWIDTH 2000 0
DWIDTH 16 0
BBX 14 10 0 4
BITMAP
3C3C
3C3C
3C3C
3C3C
3C3C
3C3C
3C3C
3C3C
FFF0
FFF0
ENDCHAR
STARTCHAR U+05E3
ENCODING 1507
SWIDTH 2000 0
DWIDTH 16 0
BBX 12 12 2 2
BITMAP
FFC0
FFC0
F0F0
F0F0
3CF0
3CF0
00F0
00F0
00F0
00F0
00F0
00F0
ENDCHAR
STARTCHAR U+05E4
ENCODING 1508
SWIDTH 2000 0
DWIDTH 16 0
BBX 12 10 2 4
BITMAP
FFC0
FFC0
F0F0
F0F0
3CF0
3CF0
00F0
00F0
FFC0
FFC0
ENDCHAR
STARTCHAR U+05E5
ENCODING 1509
SWIDTH 2000 0
DWIDTH 16 0
BBX 10 12 4 2
BITMAP
F3C0
F3C0
F3C0
F3C0
3F00
3F00
3C00
3C00
3C00
3C00
3C00
3C00
ENDCHAR
STARTCHAR U+05E6
ENCODING 1510
SWIDTH 2000 0
DWIDTH 16 0
BBX 12 10 2 4
BITMAP
F0F0
F0F0
F0F0
F0F0
3FC0
3FC0
03F0
03F0
FFF0
FFF0
ENDCHAR
STARTCHAR U+05E7
ENCODING 1511
SWIDTH 2000 0
DWIDTH 16 0
BBX 10 12 4 2
BITMAP
FFC0
FFC0
03C0
03C0
F3C0
F3C0
F3C0
F3C0
F300
F300
F000
F000
ENDCHAR
STARTCHAR U+05E8
ENCODING 1512
SWIDTH 2000 0
DWIDTH 16 0
BBX 10 10 2 4
BITMAP
FF00
FF00
03C0
03C0
03C0
03C0
03C0
03C0
03C0
03C0
ENDCHAR
STARTCHAR U+05E9
ENCODING 1513
SWIDTH 2000 0
DWIDTH 16 0
BBX 14 10 0 4
BITMAP
F33C
F33C
F33C
F33C
F33C
F33C
FC3C
FC3C
3FF0
3FF0
ENDCHAR
STARTCHAR U+05EA
ENCODING 1514
SWIDTH 2000 0
DWIDTH 16 0
BBX 14 10 0 4
BITMAP
FFFC
FFFC
3C3C
3C3C
3C3C
3C3C
3C3C
3C3C
F03C
F03C
ENDCHAR
STARTCHAR U+0623
ENCODING 1571
SWIDTH 2000 0
DWIDTH 16 0
BBX 6 12 4 4
BITMAP
3C00
3C00
F000
F000
0C00
0C00
0C00
0C00
0C00
0C00
0C00
0C00
ENDCHAR
STARTCHAR U+0627
ENCODING 1575
SWIDTH 2000 0
DWIDTH 16 0
BBX 2 10 8 6
BITMAP
C000
C000
C000
C000
C000
C000
C000
C000
C000
C000
ENDCHAR
STARTCHAR U+0628
ENCODING 1576
SWIDTH 2000 0
DWIDTH 16 0
BBX 16 10 0 2
BITMAP
C003
C003
C003
C003
3FFC
3FFC
0000
0000
03C0
03C0
ENDCHAR
STARTCHAR U+0629
ENCODING 1577
SWIDTH 2000 0
DWIDTH 16 0
BBX 10 10 6 6
BITMAP
F3C0
F3C0
0000
0000
3FC0
3FC0
30C0
30C0
3FC0
3FC0
ENDCHAR
STARTCHAR U+062A
ENCODING 1578
SWIDTH 2000 0
DWIDTH 16 0
BBX 16 10 0 6
BITMAP
0F3C
0F3C
0000
0000
C003
C003
C003
C003
3FFC
3FFC
ENDCHAR
STARTCHAR U+062B
ENCODING 1579
SWIDTH 2000 0
DWIDTH 16 0
BBX 16 10 0 6
BITMAP
03C0
03C0
3C3C
3C3C
0000
0000
C003
C003
3FFC
3FFC
ENDCHAR
STARTCHAR U+062C
ENCODING 1580
SWIDTH 2000 0
DWIDTH 16 0
BBX 12 12 4 0
BITMAP
3F00
3F00
00C0
00C0
3FF0
3FF0
C000
C000
CF00
CF00
3FF0
3FF0
ENDCHAR
STARTCHAR U+062D
ENCODING 1581
SWIDTH 2000 0
DWIDTH 16 0
BBX 12 12 4 0
BITMAP
3F00
3F00
00C0
00C0
3FF0
3FF0
C000
C000
C000
C000
3FF0
3FF0
ENDCHAR
STARTCHAR U+062F
ENCODING 1583
SWIDTH 2000 0
DWIDTH 16 0
BBX 10 8 6 6
BITMAP
0C00
0C00
0300
0300
C0C0
C0C0
FFC0
FFC0
ENDCHAR
STARTCHAR U+0630
ENCODING 1584
SWIDTH 2000 0
DWIDTH 16 0
BBX 12 10 4 6
BITMAP
F000
F000
0300
0300
00C0
00C0
3030
3030
3FF0
3FF0
ENDCHAR
STARTCHAR U+0631
ENCODING 1585
SWIDTH 2000 0
DWIDTH 16 0
BBX 12 8 4 2
BITMAP
0030
0030
0030
0030
00C0
00C0
FF00
FF00
ENDCHAR
STARTCHAR U+0632
ENCODING 1586
SWIDTH 2000 0
DWIDTH 16 0
BBX 12 12 4 2
BITMAP
00F0
00F0
0000
0000
0030
0030
0030
0030
00C0
00C0
FF00
FF00
ENDCHAR
STARTCHAR U+0633
ENCODING 1587
SWIDTH 2000 0
DWIDTH 16 0
BBX 14 8 2 2
BITMAP
CCCC
CCCC
CFFC
CFFC
CC00
CC00
3000
3000
ENDCHAR
STARTCHAR U+0634
ENCODING 1588
SWIDTH 2000 0
DWIDTH 16 0
BBX 14 14 2 2
BITMAP
00C0
00C0
0330
0330
0000
0000
CCCC
CCCC
CFFC
CFFC
CC00
CC00
3000
3000
ENDCHAR
STARTCHAR U+0635
ENCODING 1589
SWIDTH 2000 0
DWIDTH 16 0
BBX 14 10 2 2
BITMAP
00FC
00FC
CF0C
CF0C
CFFC
CFFC
CC00
CC00
3000
3000
ENDCHAR
STARTCHAR U+0637
ENCODING 1591
SWIDTH 2000 0
DWIDTH 16 0
BBX 16 10 0 6
BITMAP
0300
0300
0300
0300
033F
033F
03C3
03C3
FFFF
FFFF
ENDCHAR
STARTCHAR U+0638
ENCODING 1592
SWIDTH 2000 0
DWIDTH 16 0
BBX 16 10 0 6
BITMAP
033C
033C
0300
0300
033F
033F
03C3
03C3
FFFF
FFFF
ENDCHAR
STARTCHAR U+0639
ENCODING 1593
SWIDTH 2000 0
DWIDTH 16 0
BBX 10 12 4 2
BITMAP
0FC0
0FC0
0C00
0C00
3FC0
3FC0
C000
C000
C000
C000
3FC0
3FC0
ENDCHAR
STARTCHAR U+063A
ENCODING 1594
SWIDTH 2000 0
DWIDTH 16 0
BBX 10 14 4 2
BITMAP
F000
F000
0FC0
0FC0
0C00
0C00
3FC0
3FC0
C000
C000
C000
C000
3FC0
3FC0
ENDCHAR
STARTCHAR U+0640
ENCODING 1600
SWIDTH 2000 0
DWIDTH 16 0
BBX 16 2 0 6
BITMAP
FFFF
FFFF
ENDCHAR
STARTCHAR U+0641
ENCODING 1601
SWIDTH 2000 0
DWIDTH 16 0
BBX 16 10 0 6
BITMAP
003C
003C
0000
0000
C0FF
C0FF
C0C3
C0C3
3FFF
3FFF
ENDCHAR
STARTCHAR U+0642
ENCODING 1602
SWIDTH 2000 0
DWIDTH 16 0
BBX 16 14 0 2
BITMAP
03CF
03CF
0000
0000
00FF
00FF
C0C3
C0C3
C0FF
C0FF
C003
C003
3FFC
3FFC
ENDCHAR
STARTCHAR U+0643
ENCODING 1603
SWIDTH 2000 0
DWIDTH 16 0
BBX 14 10 2 6
BITMAP
000C
000C
03CC
03CC
CF0C
CF0C
C00C
C00C
3FF0
3FF0
ENDCHAR
STARTCHAR U+0644
ENCODING 1604
SWIDTH 2000 0
DWIDTH 16 0
BBX 16 14 0 2
BITMAP
0003
0003
0003
0003
0003
0003
0003
0003
C003
C003
C003
C003
3FFC
3FFC
ENDCHAR
STARTCHAR U+0645
ENCODING 1605
SWIDTH 2000 0
DWIDTH 16 0
BBX 12 12 4 0
BITMAP
00C0
00C0
0330
0330
3F30
3F30
C0C0
C0C0
C000
C000
C000
C000
ENDCHAR
STARTCHAR U+0646
ENCODING 1606
SWIDTH 2000 0
DWIDTH 16 0
BBX 16 10 0 6
BITMAP
03C0
03C0
C003
C003
C003
C003
C003
C003
3FFC
3FFC
ENDCHAR
STARTCHAR U+0647
ENCODING 1607
SWIDTH 2000 0
DWIDTH 16 0
BBX 6 6 6 6
BITMAP
FC00
FC00
CC00
CC00
FC00
FC00
ENDCHAR
STARTCHAR U+0648
ENCODING 1608
SWIDTH 2000 0
DWIDTH 16 0
BBX 12 10 4 2
BITMAP
00C0
00C0
0330
0330
03F0
03F0
0030
0030
FFC0
FFC0
ENDCHAR
STARTCHAR U+0649
ENCODING 1609
SWIDTH 2000 0
DWIDTH 16 0
BBX 14 10 2 2
BITMAP
003C
003C
00C0
00C0
C03C
C03C
C00C
C00C
3FF0
3FF0
ENDCHAR
STARTCHAR U+064A
ENCODING 1610
SWIDTH 2000 0
DWIDTH 16 0
BBX 14 14 2 0
BITMAP
003C
003C
00C0
00C0
C03C
C03C
C00C
C00C
3FF0
3FF0
0000
0000
3CF0
3CF0
ENDCHAR
STARTCHAR U+0671
ENCODING 1649
SWIDTH 2000 0
DWIDTH 16 0
BBX 12 12 2 4
BITMAP
0FC0
0FC0
3C30
3C30
C3C0
C3C0
0C00
0C00
0C00
0C00
0C00
0C00
ENDCHAR
STARTCHAR U+0672
ENCODING 1650
SWIDTH 2000 0
DWIDTH 16 0
BBX 12 12 2 4
BITMAP
00F0
00F0
3300
3300
C0F0
C0F0
0C00
0C00
0C00
0C00
0C00
0C00
ENDCHAR
STARTCHAR U+0673
ENCODING 1651
SWIDTH 2000 0
DWIDTH 16 0
BBX 12 14 2 2
BITMAP
0C00
0C00
0C00
0C00
0C00
0C00
0C00
0C00
00F0
00F0
3300
3300
C0F0
C0F0
ENDCHAR
STARTCHAR U+1560
ENCODING 5472
SWIDTH 2000 0
DWIDTH 16 0
BBX 14 14 0 2
BITMAP
03C0
03C0
0000
0000
3FFC
3FFC
F000
F000
0FF0
0FF0
003C
003C
FFF0
FFF0
ENDCHAR
STARTCHAR U+1561
ENCODING 5473
SWIDTH 2000 0
DWIDTH 16 0
BBX 12 14 2 2
BITMAP
0F00
0F00
0000
0000
3FF0
3FF0
F000
F000
FFF0
FFF0
00F0
00F0
FFC0
FFC0
ENDCHAR
STARTCHAR U+1562
ENCODING 5474
SWIDTH 2000 0
DWIDTH 16 0
BBX 14 16 0 0
BITMAP
03F0
03F0
0F3C
0F3C
3C00
3C00
0FF0
0FF0
003C
003C
F03C
F03C
3FF0
3FF0
03C0
03C0
ENDCHAR
STARTCHAR U+1563
ENCODING 5475
SWIDTH 2000 0
DWIDTH 16 0
BBX 12 12 2 0
BITMAP
3FF0
3FF0
F000
F000
FFF0
FFF0
00F0
00F0
FFC0
FFC0
0F00
0F00
ENDCHAR
STARTCHAR U+156A
ENCODING 5482
SWIDTH 2000 0
DWIDTH 16 0
BBX 12 14 2 2
BITMAP
0F00
0F00
0000
0000
FFF0
FFF0
0F00
0F00
0F00
0F00
0F00
0F00
0F00
0F00
ENDCHAR
STARTCHAR U+156C
ENCODING 5484
SWIDTH 2000 0
DWIDTH 16 0
BBX 14 16 0 0
BITMAP
3FFC
3FFC
F3C0
F3C0
33C0
33C0
03C0
03C0
0F00
0F00
0F00
0F00
0F00
0F00
03C0
03C0
ENDCHAR
STARTCHAR U+156D
ENCODING 5485
SWIDTH 2000 0
DWIDTH 16 0
BBX 12 16 2 0
BITMAP
0C00
0C00
0F00
0F00
FFF0
FFF0
0F00
0F00
0F00
0F00
0F00
0F00
03C0
03C0
0F00
0F00
ENDCHAR
STARTCHAR U+156E
ENCODING 5486
SWIDTH 2000 0
DWIDTH 16 0
BBX 14 16 0 0
BITMAP
3FFC
3FFC
F3C0
F3C0
33C0
33C0
03C0
03C0
0F00
0F00
0F00
0F00
0F00
0F00
3FFC
3FFC
ENDCHAR
STARTCHAR U+156F
ENCODING 5487
SWIDTH 2000 0
DWIDTH 16 0
BBX 12 16 2 0
BITMAP
0C00
0C00
0F00
0F00
FFF0
FFF0
0F00
0F00
0F00
0F00
0F00
0F00
03C0
03C0
FFF0
FFF0
ENDCHAR
STARTCHAR U+1570
ENCODING 5488
SWIDTH 2000 0
DWIDTH 16 0
BBX 14 16 0 0
BITMAP
3FFC
3FFC
F3C0
F3C0
33C0
33C0
03C0
03C0
0F00
0F00
0F00
0F00
3F3C
3F3C
0FF0
0FF0
ENDCHAR
STARTCHAR U+1571
ENCODING 5489
SWIDTH 2000 0
DWIDTH 16 0
BBX 12 16 2 0
BITMAP
0C00
0C00
0F00
0F00
FFF0
FFF0
0F00
0F00
0F00
0F00
0F00
0F00
F3F0
F3F0
3FC0
3FC0
ENDCHAR
STARTCHAR U+15EC
ENCODING 5612
SWIDTH 2000 0
DWIDTH 16 0
BBX 12 16 2 0
BITMAP
FFF0
FFF0
0000
0000
FFC0
FFC0
F0F0
F0F0
FFC0
FFC0
F0F0
F0F0
F0F0
F0F0
0F00
0F00
ENDCHAR
STARTCHAR U+15ED
ENCODING 5613
SWIDTH 2000 0
DWIDTH 16 0
BBX 12 16 2 0
BITMAP
FFF0
FFF0
0000
0000
FFC0
FFC0
F0F0
F0F0
F000
F000
F000
F000
F000
F000
0F00
0F00
ENDCHAR
STARTCHAR U+15EF
ENCODING 5615
SWIDTH 2000 0
DWIDTH 16 0
BBX 12 12 2 0
BITMAP
F3C0
F3C0
FCF0
FCF0
F000
F000
F000
F000
F000
F000
FFF0
FFF0
ENDCHAR
STARTCHAR U+16A0
ENCODING 5792
SWIDTH 2000 0
DWIDTH 16 0
BBX 10 14 2 2
BITMAP
F3C0
F3C0
FF00
FF00
F000
F000
F3C0
F3C0
FF00
FF00
F000
F000
F000
F000
ENDCHAR
STARTCHAR U+16A1
ENCODING 5793
SWIDTH 2000 0
DWIDTH 16 0
BBX 14 14 0 2
BITMAP
F33C
F33C
F0F0
F0F0
FFC0
FFC0
F000
F000
F0F0
F0F0
FFC0
FFC0
F000
F000
ENDCHAR
STARTCHAR U+16A2
ENCODING 5794
SWIDTH 2000 0
DWIDTH 16 0
BBX 12 14 2 2
BITMAP
F000
F000
FC00
FC00
FF00
FF00
F3C0
F3C0
F0F0
F0F0
F0F0
F0F0
F0F0
F0F0
ENDCHAR
STARTCHAR U+16A3
ENCODING 5795
SWIDTH 2000 0
DWIDTH 16 0
BBX 14 14 0 2
BITMAP
F000
F000
FC00
FC00
FF00
FF00
F3C0
F3C0
F0F0
F0F0
F03C
F03C
F33C
F33C
ENDCHAR
STARTCHAR U+16A4
ENCODING 5796
SWIDTH 2000 0
DWIDTH 16 0
BBX 14 14 0 2
BITMAP
0FC0
0FC0
3CF0
3CF0
3CF0
3CF0
F03C
F03C
F33C
F33C
F03C
F03C
F03C
F03C
ENDCHAR
STARTCHAR U+16A5
ENCODING 5797
SWIDTH 2000 0
DWIDTH 16 0
BBX 12 14 2 2
BITMAP
0F00
0F00
0F00
0F00
3FC0
3FC0
3FC0
3FC0
F0F0
F0F0
F0F0
F0F0
F0F0
F0F0
ENDCHAR
STARTCHAR U+16A6
ENCODING 5798
SWIDTH 2000 0
DWIDTH 16 0
BBX 10 14 4 2
BITMAP
F000
F000
F000
F000
FF00
FF00
F3C0
F3C0
FF00
FF00
F000
F000
F000
F000
ENDCHAR
STARTCHAR U+16A7
ENCODING 5799
SWIDTH 2000 0
DWIDTH 16 0
BBX 14 14 0 2
BITMAP
F000
F000
FFF0
FFF0
F03C
F03C
F33C
F33C
F03C
F03C
FFF0
FFF0
F000
F000
ENDCHAR
STARTCHAR U+16A8
ENCODING 5800
SWIDTH 2000 0
DWIDTH 16 0
BBX 10 14 4 2
BITMAP
FF00
FF00
F3C0
F3C0
F000
F000
FF00
FF00
F3C0
F3C0
F000
F000
F000
F000
ENDCHAR
STARTCHAR U+16A9
ENCODING 5801
SWIDTH 2000 0
DWIDTH 16 0
BBX 12 14 2 2
BITMAP
FCF0
FCF0
F3C0
F3C0
F000
F000
FCF0
FCF0
F3C0
F3C0
F000
F000
F000
F000
ENDCHAR
STARTCHAR U+16AA
ENCODING 5802
SWIDTH 2000 0
DWIDTH 16 0
BBX 12 14 2 2
BITMAP
FCF0
FCF0
F3C0
F3C0
F000
F000
FF00
FF00
F3C0
F3C0
F000
F000
F000
F000
ENDCHAR
STARTCHAR U+16AB
ENCODING 5803
SWIDTH 2000 0
DWIDTH 16 0
BBX 10 14 4 2
BITMAP
FF00
FF00
F3C0
F3C0
F000
F000
FF00
FF00
F3C0
F3C0
F000
F000
F000
F000
ENDCHAR
STARTCHAR U+16B1
ENCODING 5809
SWIDTH 2000 0
DWIDTH 16 0
BBX 12 14 2 2
BITMAP
FF00
FF00
F3C0
F3C0
F0F0
F0F0
F3C0
F3C0
FF00
FF00
F3C0
F3C0
F0F0
F0F0
ENDCHAR
STARTCHAR U+16B2
ENCODING 5810
SWIDTH 2000 0
DWIDTH 16 0
BBX 8 10 2 4
BITMAP
0F00
0F00
3C00
3C00
F000
F000
3C00
3C00
0F00
0F00
ENDCHAR
STARTCHAR U+16B3
ENCODING 5811
SWIDTH 2000 0
DWIDTH 16 0
BBX 12 14 2 2
BITMAP
F000
F000
F000
F000
F000
F000
FC00
FC00
FF00
FF00
F3C0
F3C0
F0F0
F0F0
ENDCHAR
STARTCHAR U+16B4
ENCODING 5812
SWIDTH 2000 0
DWIDTH 16 0
BBX 10 14 4 2
BITMAP
F3C0
F3C0
F3C0
F3C0
FF00
FF00
F000
F000
F000
F000
F000
F000
F000
F000
ENDCHAR
STARTCHAR U+16B5
ENCODING 5813
SWIDTH 2000 0
DWIDTH 16 0
BBX 14 14 0 2
BITMAP
F33C
F33C
F03C
F03C
F0F0
F0F0
F3C0
F3C0
FF00
FF00
F000
F000
F000
F000
ENDCHAR
STARTCHAR U+16B6
ENCODING 5814
SWIDTH 2000 0
DWIDTH 16 0
BBX 12 14 2 2
BITMAP
3CF0
3CF0
3CF0
3CF0
FFC0
FFC0
3C00
3C00
3C00
3C00
3C00
3C00
3C00
3C00
ENDCHAR
STARTCHAR U+16B7
ENCODING 5815
SWIDTH 2000 0
DWIDTH 16 0
BBX 12 14 2 2
BITMAP
F0F0
F0F0
F0F0
F0F0
3FC0
3FC0
0F00
0F00
3FC0
3FC0
F0F0
F0F0
F0F0
F0F0
ENDCHAR
STARTCHAR U+16B8
ENCODING 5816
SWIDTH 2000 0
DWIDTH 16 0
BBX 12 14 2 2
BITMAP
F0F0
F0F0
F0F0
F0F0
3FC0
3FC0
CF30
CF30
3FC0
3FC0
F0F0
F0F0
F0F0
F0F0
ENDCHAR
STARTCHAR U+16B9
ENCODING 5817
SWIDTH 2000 0
DWIDTH 16 0
BBX 12 14 2 2
BITMAP
FF00
FF00
F3C0
F3C0
F0F0
F0F0
F3C0
F3C0
FF00
FF00
F000
F000
F000
F000
ENDCHAR
STARTCHAR U+16BA
ENCODING 5818
SWIDTH 2000 0
DWIDTH 16 0
BBX 12 14 2 2
BITMAP
F0F0
F0F0
F0F0
F0F0
FCF0
FCF0
F3F0
F3F0
F0F0
F0F0
F0F0
F0F0
F0F0
F0F0
ENDCHAR
STARTCHAR U+16BB
ENCODING 5819
SWIDTH 2000 0
DWIDTH 16 0
BBX 12 14 2 2
BITMAP
F0F0
F0F0
F0F0
F0F0
FCF0
FCF0
F3F0
F3F0
FCF0
FCF0
F3F0
F3F0
F0F0
F0F0
ENDCHAR
STARTCHAR U+16BC
ENCODING 5820
SWIDTH 2000 0
DWIDTH 16 0
BBX 12 14 2 2
BITMAP
0F00
0F00
0F00
0F00
CF30
CF30
3FC0
3FC0
CF30
CF30
0F00
0F00
0F00
0F00
ENDCHAR
STARTCHAR U+16BD
ENCODING 5821
SWIDTH 2000 0
DWIDTH 16 0
BBX 8 14 4 2
BITMAP
3C00
3C00
3C00
3C00
3C00
3C00
FF00
FF00
3C00
3C00
3C00
3C00
3C00
3C00
ENDCHAR
STARTCHAR U+16BE
ENCODING 5822
SWIDTH 2000 0
DWIDTH 16 0
BBX 12 14 2 2
BITMAP
0F00
0F00
0F00
0F00
CF00
CF00
FFF0
FFF0
0F30
0F30
0F00
0F00
0F00
0F00
ENDCHAR
STARTCHAR U+16BF
ENCODING 5823
SWIDTH 2000 0
DWIDTH 16 0
BBX 10 14 4 2
BITMAP
F000
F000
F000
F000
F000
F000
FF00
FF00
F3C0
F3C0
F000
F000
F000
F000
ENDCHAR
STARTCHAR U+16C0
ENCODING 5824
SWIDTH 2000 0
DWIDTH 16 0
BBX 12 14 2 2
BITMAP
0F00
0F00
0F00
0F00
CF00
CF00
FFF0
FFF0
0F30
0F30
0F00
0F00
0F00
0F00
ENDCHAR
STARTCHAR U+16C1
ENCODING 5825
SWIDTH 2000 0
DWIDTH 16 0
BBX 4 14 6 2
BITMAP
F000
F000
F000
F000
F000
F000
F000
F000
F000
F000
F000
F000
F000
F000
ENDCHAR
STARTCHAR U+16C2
ENCODING 5826
SWIDTH 2000 0
DWIDTH 16 0
BBX 8 14 4 2
BITMAP
3C00
3C00
3C00
3C00
3C00
3C00
FF00
FF00
3C00
3C00
3C00
3C00
3C00
3C00
ENDCHAR
STARTCHAR U+16C3
ENCODING 5827
SWIDTH 2000 0
DWIDTH 16 0
BBX 14 8 0 4
BITMAP
3C00
3C00
F0F0
F0F0
3C3C
3C3C
00F0
00F0
ENDCHAR
STARTCHAR U+16C4
ENCODING 5828
SWIDTH 2000 0
DWIDTH 16 0
BBX 12 14 2 2
BITMAP
0F00
0F00
0F00
0F00
3FC0
3FC0
CF30
CF30
3FC0
3FC0
0F00
0F00
0F00
0F00
ENDCHAR
STARTCHAR U+16C5
ENCODING 5829
SWIDTH 2000 0
DWIDTH 16 0
BBX 12 14 2 2
BITMAP
0F00
0F00
0F00
0F00
0F30
0F30
FFF0
FFF0
CF00
CF00
0F00
0F00
0F00
0F00
ENDCHAR
STARTCHAR U+16C6
ENCODING 5830
SWIDTH 2000 0
DWIDTH 16 0
BBX 10 14 2 2
BITMAP
03C0
03C0
03C0
03C0
03C0
03C0
3FC0
3FC0
F3C0
F3C0
03C0
03C0
03C0
03C0
ENDCHAR
STARTCHAR U+16C7
ENCODING 5831
SWIDTH 2000 0
DWIDTH 16 0
BBX 12 14 2 2
BITMAP
0FC0
0FC0
0F30
0F30
0F00
0F00
0F00
0F00
0F00
0F00
CF00
CF00
3F00
3F00
ENDCHAR
STARTCHAR U+16C8
ENCODING 5832
SWIDTH 2000 0
DWIDTH 16 0
BBX 12 14 2 2
BITMAP
F0F0
F0F0
F0F0
F0F0
FFC0
FFC0
F000
F000
FFC0
FFC0
F0F0
F0F0
F0F0
F0F0
ENDCHAR
STARTCHAR U+16C9
ENCODING 5833
SWIDTH 2000 0
DWIDTH 16 0
BBX 14 14 0 2
BITMAP
F33C
F33C
F33C
F33C
3FF0
3FF0
03C0
03C0
03C0
03C0
03C0
03C0
03C0
03C0
ENDCHAR
STARTCHAR U+16CA
ENCODING 5834
SWIDTH 2000 0
DWIDTH 16 0
BBX 8 14 4 2
BITMAP
3F00
3F00
F000
F000
3C00
3C00
0F00
0F00
3C00
3C00
F000
F000
3F00
3F00
ENDCHAR
STARTCHAR U+16CB
ENCODING 5835
SWIDTH 2000 0
DWIDTH 16 0
BBX 8 14 4 2
BITMAP
F000
F000
F000
F000
F300
F300
FF00
FF00
CF00
CF00
0F00
0F00
0F00
0F00
ENDCHAR
STARTCHAR U+16CC
ENCODING 5836
SWIDTH 2000 0
DWIDTH 16 0
BBX 4 8 6 8
BITMAP
F000
F000
F000
F000
F000
F000
F000
F000
ENDCHAR
STARTCHAR U+16CD
ENCODING 5837
SWIDTH 2000 0
DWIDTH 16 0
BBX 8 8 4 8
BITMAP
3C00
3C00
3C00
3C00
3C00
3C00
FF00
FF00
ENDCHAR
STARTCHAR U+16CE
ENCODING 5838
SWIDTH 2000 0
DWIDTH 16 0
BBX 12 8 2 8
BITMAP
0F00
0F00
CF30
CF30
3FC0
3FC0
0F00
0F00
ENDCHAR
STARTCHAR U+16CF
ENCODING 5839
SWIDTH 2000 0
DWIDTH 16 0
BBX 12 14 2 2
BITMAP
0F00
0F00
3FC0
3FC0
CF30
CF30
0F00
0F00
0F00
0F00
0F00
0F00
0F00
0F00
ENDCHAR
STARTCHAR U+16D0
ENCODING 5840
SWIDTH 2000 0
DWIDTH 16 0
BBX 10 14 2 2
BITMAP
03C0
03C0
3FC0
3FC0
F3C0
F3C0
03C0
03C0
03C0
03C0
03C0
03C0
03C0
03C0
ENDCHAR
STARTCHAR U+16D1
ENCODING 5841
SWIDTH 2000 0
DWIDTH 16 0
BBX 12 14 2 2
BITMAP
03C0
03C0
3FC0
3FC0
F3C0
F3C0
03C0
03C0
0FF0
0FF0
03C0
03C0
03C0
03C0
ENDCHAR
STARTCHAR U+16D2
ENCODING 5842
SWIDTH 2000 0
DWIDTH 16 0
BBX 12 14 2 2
BITMAP
FF00
FF00
F3C0
F3C0
FF00
FF00
F3C0
F3C0
F0F0
F0F0
F3C0
F3C0
FF00
FF00
ENDCHAR
STARTCHAR U+16D3
ENCODING 5843
SWIDTH 2000 0
DWIDTH 16 0
BBX 10 14 2 2
BITMAP
F000
F000
F3C0
F3C0
FF00
FF00
F0C0
F0C0
FF00
FF00
F000
F000
F000
F000
ENDCHAR
STARTCHAR U+16D4
ENCODING 5844
SWIDTH 2000 0
DWIDTH 16 0
BBX 14 14 0 2
BITMAP
FFF0
FFF0
F33C
F33C
FFF0
FFF0
F03C
F03C
F33C
F33C
F03C
F03C
FFF0
FFF0
ENDCHAR
STARTCHAR U+16D5
ENCODING 5845
SWIDTH 2000 0
DWIDTH 16 0
BBX 12 14 2 2
BITMAP
F0F0
F0F0
F3C0
F3C0
FFC0
FFC0
F000
F000
FF00
FF00
F3C0
F3C0
F0F0
F0F0
ENDCHAR
STARTCHAR U+16D6
ENCODING 5846
SWIDTH 2000 0
DWIDTH 16 0
BBX 14 14 0 2
BITMAP
C00C
C00C
F03C
F03C
FFFC
FFFC
F33C
F33C
F03C
F03C
F03C
F03C
F03C
F03C
ENDCHAR
STARTCHAR U+16D7
ENCODING 5847
SWIDTH 2000 0
DWIDTH 16 0
BBX 12 14 2 2
BITMAP
F0F0
F0F0
FFF0
FFF0
CF30
CF30
FFF0
FFF0
F0F0
F0F0
F0F0
F0F0
F0F0
F0F0
ENDCHAR
STARTCHAR U+16D8
ENCODING 5848
SWIDTH 2000 0
DWIDTH 16 0
BBX 12 14 2 2
BITMAP
CF30
CF30
FFF0
FFF0
0F00
0F00
0F00
0F00
0F00
0F00
0F00
0F00
0F00
0F00
ENDCHAR
STARTCHAR U+16D9
ENCODING 5849
SWIDTH 2000 0
DWIDTH 16 0
BBX 8 14 4 2
BITMAP
FF00
FF00
3C00
3C00
3C00
3C00
3C00
3C00
3C00
3C00
3C00
3C00
3C00
3C00
ENDCHAR
STARTCHAR U+16DA
ENCODING 5850
SWIDTH 2000 0
DWIDTH 16 0
BBX 10 14 4 2
BITMAP
FC00
FC00
FF00
FF00
F3C0
F3C0
F000
F000
F000
F000
F000
F000
F000
F000
ENDCHAR
STARTCHAR U+16DB
ENCODING 5851
SWIDTH 2000 0
DWIDTH 16 0
BBX 12 14 2 2
BITMAP
3F00
3F00
3FC0
3FC0
3CF0
3CF0
3C00
3C00
FF00
FF00
3C00
3C00
3C00
3C00
ENDCHAR
STARTCHAR U+16DC
ENCODING 5852
SWIDTH 2000 0
DWIDTH 16 0
BBX 12 10 2 4
BITMAP
0F00
0F00
3FC0
3FC0
F0F0
F0F0
3FC0
3FC0
0F00
0F00
ENDCHAR
STARTCHAR U+16DD
ENCODING 5853
SWIDTH 2000 0
DWIDTH 16 0
BBX 12 14 2 2
BITMAP
F0F0
F0F0
F0F0
F0F0
3FC0
3FC0
F0F0
F0F0
3FC0
3FC0
F0F0
F0F0
F0F0
F0F0
ENDCHAR
STARTCHAR U+16DE
ENCODING 5854
SWIDTH 2000 0
DWIDTH 16 0
BBX 12 14 2 2
BITMAP
C030
C030
F0F0
F0F0
FFF0
FFF0
CF30
CF30
FFF0
FFF0
F0F0
F0F0
C030
C030
ENDCHAR
STARTCHAR U+16DF
ENCODING 5855
SWIDTH 2000 0
DWIDTH 16 0
BBX 12 14 2 2
BITMAP
0F00
0F00
3FC0
3FC0
F0F0
F0F0
3FC0
3FC0
0F00
0F00
3FC0
3FC0
F0F0
F0F0
ENDCHAR
STARTCHAR U+16E0
ENCODING 5856
SWIDTH 2000 0
DWIDTH 16 0
BBX 12 14 2 2
BITMAP
CF30
CF30
FFF0
FFF0
CF30
CF30
0F00
0F00
0F00
0F00
0F00
0F00
0F00
0F00
ENDCHAR
STARTCHAR U+16E1
ENCODING 5857
SWIDTH 2000 0
DWIDTH 16 0
BBX 8 10 2 4
BITMAP
0F00
0F00
3C00
3C00
F000
F000
3C00
3C00
0F00
0F00
ENDCHAR
STARTCHAR U+16E2
ENCODING 5858
SWIDTH 2000 0
DWIDTH 16 0
BBX 12 16 2 0
BITMAP
CF00
CF00
FF00
FF00
CF00
CF00
0F00
0F00
0F00
0F00
0F30
0F30
0FF0
0FF0
0F30
0F30
ENDCHAR
STARTCHAR U+16E3
ENCODING 5859
SWIDTH 2000 0
DWIDTH 16 0
BBX 14 14 0 2
BITMAP
03C0
03C0
03C0
03C0
03C0
03C0
03C0
03C0
3FF0
3FF0
F33C
F33C
F33C
F33C
ENDCHAR
STARTCHAR U+16E4
ENCODING 5860
SWIDTH 2000 0
DWIDTH 16 0
BBX 14 14 0 2
BITMAP
F33C
F33C
F33C
F33C
3FF0
3FF0
F33C
F33C
3FF0
3FF0
F33C
F33C
F33C
F33C
ENDCHAR
STARTCHAR U+16E5
ENCODING 5861
SWIDTH 2000 0
DWIDTH 16 0
BBX 12 14 2 2
BITMAP
C030
C030
F0F0
F0F0
FFF0
FFF0
F0F0
F0F0
FFF0
FFF0
F0F0
F0F0
C030
C030
ENDCHAR
STARTCHAR U+16E6
ENCODING 5862
SWIDTH 2000 0
DWIDTH 16 0
BBX 14 14 0 2
BITMAP
FC00
FC00
FFC0
FFC0
F0FC
F0FC
F03C
F03C
FFFC
FFFC
F33C
F33C
F33C
F33C
ENDCHAR
STARTCHAR U+16E7
ENCODING 5863
SWIDTH 2000 0
DWIDTH 16 0
BBX 4 8 6 2
BITMAP
F000
F000
F000
F000
F000
F000
F000
F000
ENDCHAR
STARTCHAR U+16E8
ENCODING 5864
SWIDTH 2000 0
DWIDTH 16 0
BBX 12 14 2 2
BITMAP
0F00
0F00
3FC0
3FC0
CF30
CF30
0F00
0F00
CF30
CF30
3FC0
3FC0
0F00
0F00
ENDCHAR
STARTCHAR U+16E9
ENCODING 5865
SWIDTH 2000 0
DWIDTH 16 0
BBX 12 14 0 2
BITMAP
0FF0
0FF0
3CF0
3CF0
F0F0
F0F0
3CF0
3CF0
0FF0
0FF0
00F0
00F0
00F0
00F0
ENDCHAR
STARTCHAR U+16EA
ENCODING 5866
SWIDTH 2000 0
DWIDTH 16 0
BBX 14 14 0 2
BITMAP
3C00
3C00
FF00
FF00
3C30
3C30
3FF0
3FF0
30F0
30F0
03FC
03FC
00F0
00F0
ENDCHAR
STARTCHAR U+16EB
ENCODING 5867
SWIDTH 2000 0
DWIDTH 16 0
BBX 4 2 6 8
BITMAP
F000
F000
ENDCHAR
STARTCHAR U+16EC
ENCODING 5868
SWIDTH 2000 0
DWIDTH 16 0
BBX 4 8 6 4
BITMAP
F000
F000
0000
0000
0000
0000
F000
F000
ENDCHAR
STARTCHAR U+16ED
ENCODING 5869
SWIDTH 2000 0
DWIDTH 16 0
BBX 12 14 2 2
BITMAP
3FC0
3FC0
0F00
0F00
CF30
CF30
FFF0
FFF0
CF30
CF30
0F00
0F00
3FC0
3FC0
ENDCHAR
STARTCHAR U+16EE
ENCODING 5870
SWIDTH 2000 0
DWIDTH 16 0
BBX 14 14 0 2
BITMAP
0FC0
0FC0
0FF0
0FF0
0F3C
0F3C
FF00
FF00
CF00
CF00
0F00
0F00
0F00
0F00
ENDCHAR
STARTCHAR U+16EF
ENCODING 5871
SWIDTH 2000 0
DWIDTH 16 0
BBX 14 14 0 2
BITMAP
F33C
F33C
F33C
F33C
3FF0
3FF0
03C0
03C0
3FF0
3FF0
F33C
F33C
F33C
F33C
ENDCHAR
STARTCHAR U+16F0
ENCODING 5872
SWIDTH 2000 0
DWIDTH 16 0
BBX 14 14 0 2
BITMAP
0300
0300
0300
0300
3FF0
3FF0
F33C
F33C
3FF0
3FF0
0300
0300
0300
0300
ENDCHAR
STARTCHAR U+16F1
ENCODING 5873
SWIDTH 2000 0
DWIDTH 16 0
BBX 12 14 2 2
BITMAP
F000
F000
F000
F000
F000
F000
FFC0
FFC0
F3C0
F3C0
F0F0
F0F0
F0F0
F0F0
ENDCHAR
STARTCHAR U+16F2
ENCODING 5874
SWIDTH 2000 0
DWIDTH 16 0
BBX 8 14 4 2
BITMAP
0F00
0F00
0F00
0F00
CF00
CF00
FF00
FF00
F300
F300
F000
F000
F000
F000
ENDCHAR
STARTCHAR U+16F3
ENCODING 5875
SWIDTH 2000 0
DWIDTH 16 0
BBX 12 14 2 2
BITMAP
0F00
0F00
3FC0
3FC0
CF30
CF30
3FC0
3FC0
0F00
0F00
0F00
0F00
0F00
0F00
ENDCHAR
STARTCHAR U+16F4
ENCODING 5876
SWIDTH 2000 0
DWIDTH 16 0
BBX 12 14 2 2
BITMAP
3C00
3C00
3C00
3C00
3CF0
3CF0
3FC0
3FC0
F3C0
F3C0
03C0
03C0
03C0
03C0
ENDCHAR
STARTCHAR U+16F5
ENCODING 5877
SWIDTH 2000 0
DWIDTH 16 0
BBX 6 14 4 2
BITMAP
3C00
3C00
F000
F000
3C00
3C00
F000
F000
3C00
3C00
F000
F000
3C00
3C00
ENDCHAR
STARTCHAR U+16F6
ENCODING 5878
SWIDTH 2000 0
DWIDTH 16 0
BBX 12 14 2 2
BITMAP
F000
F000
F000
F000
3CF0
3CF0
0F00
0F00
F3C0
F3C0
00F0
00F0
00F0
00F0
ENDCHAR
STARTCHAR U+16F7
ENCODING 5879
SWIDTH 2000 0
DWIDTH 16 0
BBX 12 14 2 2
BITMAP
F000
F000
F000
F000
FFC0
FFC0
F0F0
F0F0
F0F0
F0F0
F0F0
F0F0
F0F0
F0F0
ENDCHAR
STARTCHAR U+16F8
ENCODING 5880
SWIDTH 2000 0
DWIDTH 16 0
BBX 12 14 2 2
BITMAP
0F00
0F00
0F00
0F00
0F00
0F00
0F00
0F00
3FC0
3FC0
F0F0
F0F0
F0F0
F0F0
ENDCHAR
STARTCHAR U+1E00
ENCODING 7680
SWIDTH 2000 0
DWIDTH 16 0
BBX 14 16 0 0
BITMAP
03FC
03FC
3CF0
3CF0
F0F0
F0F0
FFF0
FFF0
F0F0
F0F0
3CF0
3CF0
FCFC
FCFC
03C0
03C0
ENDCHAR
STARTCHAR U+1E01
ENCODING 7681
SWIDTH 2000 0
DWIDTH 16 0
BBX 12 12 2 0
BITMAP
3FC0
3FC0
F3C0
F3C0
F3C0
F3C0
F3C0
F3C0
3CF0
3CF0
0F00
0F00
ENDCHAR
STARTCHAR U+1E02
ENCODING 7682
SWIDTH 2000 0
DWIDTH 16 0
BBX 12 14 2 2
BITMAP
0F00
0F00
0000
0000
FFC0
FFC0
F0F0
F0F0
FFC0
FFC0
F0F0
F0F0
FFC0
FFC0
ENDCHAR
STARTCHAR U+1E04
ENCODING 7684
SWIDTH 2000 0
DWIDTH 16 0
BBX 14 16 0 0
BITMAP
FFC0
FFC0
3CF0
3CF0
FFC0
FFC0
3CF0
3CF0
3C3C
3C3C
3C3C
3C3C
FFF0
FFF0
03C0
03C0
ENDCHAR
STARTCHAR U+1E05
ENCODING 7685
SWIDTH 2000 0
DWIDTH 16 0
BBX 12 16 2 0
BITMAP
3C00
3C00
3C00
3C00
3FC0
3FC0
3CF0
3CF0
3CF0
3CF0
3CF0
3CF0
F3C0
F3C0
0F00
0F00
ENDCHAR
STARTCHAR U+1E06
ENCODING 7686
SWIDTH 2000 0
DWIDTH 16 0
BBX 14 16 0 0
BITMAP
FFC0
FFC0
3CF0
3CF0
FFC0
FFC0
3CF0
3CF0
3C3C
3C3C
3C3C
3C3C
FFF0
FFF0
3FFC
3FFC
ENDCHAR
STARTCHAR U+1E07
ENCODING 7687
SWIDTH 2000 0
DWIDTH 16 0
BBX 12 16 2 0
BITMAP
3C00
3C00
3C00
3C00
3FC0
3FC0
3CF0
3CF0
3CF0
3CF0
3CF0
3CF0
F3C0
F3C0
FFF0
FFF0
ENDCHAR
STARTCHAR U+1E0A
ENCODING 7690
SWIDTH 2000 0
DWIDTH 16 0
BBX 12 14 2 2
BITMAP
0F00
0F00
0000
0000
FFC0
FFC0
F0F0
F0F0
F0F0
F0F0
F0F0
F0F0
FFC0
FFC0
ENDCHAR
STARTCHAR U+1E0C
ENCODING 7692
SWIDTH 2000 0
DWIDTH 16 0
BBX 14 16 0 0
BITMAP
FF00
FF00
3FC0
3FC0
3CF0
3CF0
3C3C
3C3C
3C3C
3C3C
3C3C
3C3C
FFF0
FFF0
03C0
03C0
ENDCHAR
STARTCHAR U+1E0D
ENCODING 7693
SWIDTH 2000 0
DWIDTH 16 0
BBX 12 16 2 0
BITMAP
0F00
0F00
03C0
03C0
3FC0
3FC0
F3C0
F3C0
F3C0
F3C0
F3C0
F3C0
3FF0
3FF0
0F00
0F00
ENDCHAR
STARTCHAR U+1E0E
ENCODING 7694
SWIDTH 2000 0
DWIDTH 16 0
BBX 14 16 0 0
BITMAP
FF00
FF00
3FC0
3FC0
3CF0
3CF0
3C3C
3C3C
3C3C
3C3C
3C3C
3C3C
FFF0
FFF0
3FFC
3FFC
ENDCHAR
STARTCHAR U+1E0F
ENCODING 7695
SWIDTH 2000 0
DWIDTH 16 0
BBX 12 16 2 0
BITMAP
0F00
0F00
03C0
03C0
3FC0
3FC0
F3C0
F3C0
F3C0
F3C0
F3C0
F3C0
3FF0
3FF0
FFF0
FFF0
ENDCHAR
STARTCHAR U+1E41
ENCODING 7745
SWIDTH 2000 0
DWIDTH 16 0
BBX 14 14 0 2
BITMAP
03C0
03C0
0000
0000
3C3C
3C3C
FFFC
FFFC
F33C
F33C
F03C
F03C
F03C
F03C
ENDCHAR
STARTCHAR U+1E42
ENCODING 7746
SWIDTH 2000 0
DWIDTH 16 0
BBX 14 16 0 0
BITMAP
3C3C
3C3C
F0FC
F0FC
FFFC
FFFC
F33C
F33C
F03C
F03C
F03C
F03C
F0F0
F0F0
03C0
03C0
ENDCHAR
STARTCHAR U+1E43
ENCODING 7747
SWIDTH 2000 0
DWIDTH 16 0
BBX 14 12 0 0
BITMAP
3C3C
3C3C
FFFC
FFFC
F33C
F33C
F03C
F03C
F03C
F03C
03C0
03C0
ENDCHAR
STARTCHAR U+1E44
ENCODING 7748
SWIDTH 2000 0
DWIDTH 16 0
BBX 14 14 0 2
BITMAP
03C0
03C0
0000
0000
F03C
F03C
FC3C
FC3C
FF3C
FF3C
F3FC
F3FC
F0FC
F0FC
ENDCHAR
STARTCHAR U+1E45
ENCODING 7749
SWIDTH 2000 0
DWIDTH 16 0
BBX 12 14 2 2
BITMAP
0F00
0F00
0000
0000
FF00
FF00
F3C0
F3C0
F3C0
F3C0
F3C0
F3C0
F0F0
F0F0
ENDCHAR
STARTCHAR U+1E46
ENCODING 7750
SWIDTH 2000 0
DWIDTH 16 0
BBX 14 16 0 0
BITMAP
FC3C
FC3C
3F3C
3F3C
3FFC
3FFC
3CFC
3CFC
3C3C
3C3C
3C3C
3C3C
F0F0
F0F0
03C0
03C0
ENDCHAR
STARTCHAR U+1E47
ENCODING 7751
SWIDTH 2000 0
DWIDTH 16 0
BBX 12 12 2 0
BITMAP
FF00
FF00
F3C0
F3C0
F3C0
F3C0
F3C0
F3C0
F0F0
F0F0
0F00
0F00
ENDCHAR
STARTCHAR U+1E48
ENCODING 7752
SWIDTH 2000 0
DWIDTH 16 0
BBX 14 16 0 0
BITMAP
FC3C
FC3C
3F3C
3F3C
3FFC
3FFC
3CFC
3CFC
3C3C
3C3C
3C3C
3C3C
F0F0
F0F0
3FFC
3FFC
ENDCHAR
STARTCHAR U+1E49
ENCODING 7753
SWIDTH 2000 0
DWIDTH 16 0
BBX 12 12 2 0
BITMAP
FF00
FF00
F3C0
F3C0
F3C0
F3C0
F3C0
F3C0
F0F0
F0F0
FFF0
FFF0
ENDCHAR
STARTCHAR U+1E4A
ENCODING 7754
SWIDTH 2000 0
DWIDTH 16 0
BBX 14 16 0 0
BITMAP
FC3C
FC3C
3F3C
3F3C
3FFC
3FFC
3CFC
3CFC
3C3C
3C3C
3C3C
3C3C
FCFC
FCFC
0FF0
0FF0
ENDCHAR
STARTCHAR U+1E4B
ENCODING 7755
SWIDTH 2000 0
DWIDTH 16 0
BBX 12 12 2 0
BITMAP
FF00
FF00
F3C0
F3C0
F3C0
F3C0
F3C0
F3C0
F0F0
F0F0
3FC0
3FC0
ENDCHAR
STARTCHAR U+1E58
ENCODING 7768
SWIDTH 2000 0
DWIDTH 16 0
BBX 12 14 2 2
BITMAP
0F00
0F00
0000
0000
FFC0
FFC0
F0F0
F0F0
FFC0
FFC0
F0F0
F0F0
F0F0
F0F0
ENDCHAR
STARTCHAR U+1E59
ENCODING 7769
SWIDTH 2000 0
DWIDTH 16 0
BBX 12 14 2 2
BITMAP
0F00
0F00
0000
0000
FFC0
FFC0
F0F0
F0F0
F000
F000
F000
F000
F000
F000
ENDCHAR
STARTCHAR U+1E5A
ENCODING 7770
SWIDTH 2000 0
DWIDTH 16 0
BBX 14 16 0 0
BITMAP
F3F0
F3F0
3C3C
3C3C
3CF0
3CF0
3FC0
3FC0
3CF0
3CF0
3CF0
3CF0
F03C
F03C
03C0
03C0
ENDCHAR
STARTCHAR U+1E5B
ENCODING 7771
SWIDTH 2000 0
DWIDTH 16 0
BBX 12 12 2 0
BITMAP
F3C0
F3C0
FCF0
FCF0
F000
F000
F000
F000
F000
F000
0F00
0F00
ENDCHAR
STARTCHAR U+1E5E
ENCODING 7774
SWIDTH 2000 0
DWIDTH 16 0
BBX 14 16 0 0
BITMAP
F3F0
F3F0
3C3C
3C3C
3CF0
3CF0
3FC0
3FC0
3CF0
3CF0
3CF0
3CF0
F03C
F03C
3FFC
3FFC
ENDCHAR
STARTCHAR U+2010
ENCODING 8208
SWIDTH 2000 0
DWIDTH 16 0
BBX 8 2 4 8
BITMAP
FF00
FF00
ENDCHAR
STARTCHAR U+2011
ENCODING 8209
SWIDTH 2000 0
DWIDTH 16 0
BBX 8 2 4 8
BITMAP
FF00
FF00
ENDCHAR
STARTCHAR U+2012
ENCODING 8210
SWIDTH 2000 0
DWIDTH 16 0
BBX 10 2 2 8
BITMAP
FFC0
FFC0
ENDCHAR
STARTCHAR U+2013
ENCODING 8211
SWIDTH 2000 0
DWIDTH 16 0
BBX 14 2 0 8
BITMAP
FFFC
FFFC
ENDCHAR
STARTCHAR U+2014
ENCODING 8212
SWIDTH 2000 0
DWIDTH 16 0
BBX 16 2 0 8
BITMAP
FFFF
FFFF
ENDCHAR
STARTCHAR U+2015
ENCODING 8213
SWIDTH 2000 0
DWIDTH 16 0
BBX 14 2 0 8
BITMAP
FFFC
FFFC
ENDCHAR
STARTCHAR U+2016
ENCODING 8214
SWIDTH 2000 0
DWIDTH 16 0
BBX 10 14 2 2
BITMAP
F3C0
F3C0
F3C0
F3C0
F3C0
F3C0
F3C0
F3C0
F3C0
F3C0
F3C0
F3C0
F3C0
F3C0
ENDCHAR
STARTCHAR U+2017
ENCODING 8215
SWIDTH 2000 0
DWIDTH 16 0
BBX 16 6 0 0
BITMAP
FFFF
FFFF
0000
0000
FFFF
FFFF
ENDCHAR
STARTCHAR U+2018
ENCODING 8216
SWIDTH 2000 0
DWIDTH 16 0
BBX 6 2 2 14
BITMAP
FC00
FC00
ENDCHAR
STARTCHAR U+2019
ENCODING 8217
SWIDTH 2000 0
DWIDTH 16 0
BBX 6 2 8 14
BITMAP
FC00
FC00
ENDCHAR
STARTCHAR U+201C
ENCODING 8220
SWIDTH 2000 0
DWIDTH 16 0
BBX 14 4 0 12
BITMAP
F0F0
F0F0
3C3C
3C3C
ENDCHAR
STARTCHAR U+201D
ENCODING 8221
SWIDTH 2000 0
DWIDTH 16 0
BBX 14 4 0 12
BITMAP
3C3C
3C3C
F0F0
F0F0
ENDCHAR
STARTCHAR U+2020
ENCODING 8224
SWIDTH 2000 0
DWIDTH 16 0
BBX 12 14 2 2
BITMAP
0F00
0F00
0F00
0F00
FFF0
FFF0
0F00
0F00
0F00
0F00
0F00
0F00
0F00
0F00
ENDCHAR
STARTCHAR U+2021
ENCODING 8225
SWIDTH 2000 0
DWIDTH 16 0
BBX 12 14 2 2
BITMAP
0F00
0F00
0F00
0F00
FFF0
FFF0
0F00
0F00
FFF0
FFF0
0F00
0F00
0F00
0F00
ENDCHAR
STARTCHAR U+2022
ENCODING 8226
SWIDTH 2000 0
DWIDTH 16 0
BBX 8 8 4 4
BITMAP
3C00
3C00
FF00
FF00
FF00
FF00
3C00
3C00
ENDCHAR
STARTCHAR U+2024
ENCODING 8228
SWIDTH 2000 0
DWIDTH 16 0
BBX 4 4 6 2
BITMAP
F000
F000
F000
F000
ENDCHAR
STARTCHAR U+2025
ENCODING 8229
SWIDTH 2000 0
DWIDTH 16 0
BBX 12 4 2 2
BITMAP
F0F0
F0F0
F0F0
F0F0
ENDCHAR
STARTCHAR U+2026
ENCODING 8230
SWIDTH 2000 0
DWIDTH 16 0
BBX 14 4 0 2
BITMAP
C30C
C30C
C30C
C30C
ENDCHAR
STARTCHAR U+2030
ENCODING 8240
SWIDTH 2000 0
DWIDTH 16 0
BBX 16 12 0 2
BITMAP
F03C
F03C
F0F0
F0F0
03C0
03C0
3C00
3C00
F3CF
F3CF
F3CF
F3CF
ENDCHAR
STARTCHAR U+2031
ENCODING 8241
SWIDTH 2000 0
DWIDTH 16 0
BBX 16 12 0 2
BITMAP
F03C
F03C
F0F0
F0F0
03C0
03C0
3C00
3C00
F333
F333
F333
F333
ENDCHAR
STARTCHAR U+203C
ENCODING 8252
SWIDTH 2000 0
DWIDTH 16 0
BBX 12 14 2 2
BITMAP
F0F0
F0F0
F0F0
F0F0
F0F0
F0F0
F0F0
F0F0
F0F0
F0F0
0000
0000
F0F0
F0F0
ENDCHAR
STARTCHAR U+2047
ENCODING 8263
SWIDTH 2000 0
DWIDTH 16 0
BBX 14 14 0 2
BITMAP
F0F0
F0F0
3C3C
3C3C
3C3C
3C3C
F0F0
F0F0
F0F0
F0F0
0000
0000
F0F0
F0F0
ENDCHAR
STARTCHAR U+2048
ENCODING 8264
SWIDTH 2000 0
DWIDTH 16 0
BBX 14 14 0 2
BITMAP
FC3C
FC3C
0F3C
0F3C
0F3C
0F3C
3C3C
3C3C
F03C
F03C
0000
0000
F03C
F03C
ENDCHAR
STARTCHAR U+2049
ENCODING 8265
SWIDTH 2000 0
DWIDTH 16 0
BBX 14 14 0 2
BITMAP
F3F0
F3F0
F03C
F03C
F03C
F03C
F0F0
F0F0
F3C0
F3C0
0000
0000
F3C0
F3C0
ENDCHAR
STARTCHAR U+2070
ENCODING 8304
SWIDTH 2000 0
DWIDTH 16 0
BBX 10 10 2 6
BITMAP
3F00
3F00
F3C0
F3C0
F3C0
F3C0
F3C0
F3C0
3F00
3F00
ENDCHAR
STARTCHAR U+2074
ENCODING 8308
SWIDTH 2000 0
DWIDTH 16 0
BBX 12 10 2 6
BITMAP
0FC0
0FC0
33C0
33C0
F3C0
F3C0
FFF0
FFF0
03C0
03C0
ENDCHAR
STARTCHAR U+2075
ENCODING 8309
SWIDTH 2000 0
DWIDTH 16 0
BBX 10 10 2 6
BITMAP
FFC0
FFC0
F000
F000
FF00
FF00
03C0
03C0
FF00
FF00
ENDCHAR
STARTCHAR U+2076
ENCODING 8310
SWIDTH 2000 0
DWIDTH 16 0
BBX 10 10 2 6
BITMAP
3F00
3F00
F000
F000
FF00
FF00
F3C0
F3C0
3F00
3F00
ENDCHAR
STARTCHAR U+2077
ENCODING 8311
SWIDTH 2000 0
DWIDTH 16 0
BBX 10 10 2 6
BITMAP
FFC0
FFC0
03C0
03C0
0F00
0F00
3C00
3C00
3C00
3C00
ENDCHAR
STARTCHAR U+2078
ENCODING 8312
SWIDTH 2000 0
DWIDTH 16 0
BBX 10 10 2 6
BITMAP
3F00
3F00
F3C0
F3C0
3F00
3F00
F3C0
F3C0
3F00
3F00
ENDCHAR
STARTCHAR U+2079
ENCODING 8313
SWIDTH 2000 0
DWIDTH 16 0
BBX 10 10 2 6
BITMAP
3F00
3F00
F3C0
F3C0
3FC0
3FC0
03C0
03C0
3F00
3F00
ENDCHAR
STARTCHAR U+207F
ENCODING 8319
SWIDTH 2000 0
DWIDTH 16 0
BBX 10 8 2 6
BITMAP
FF00
FF00
F3C0
F3C0
F3C0
F3C0
F3C0
F3C0
ENDCHAR
STARTCHAR U+20A7
ENCODING 8359
SWIDTH 2000 0
DWIDTH 16 0
BBX 16 16 0 0
BITMAP
FFC0
FFC0
F0F0
F0F0
F0F0
F0F0
FFCC
FFCC
F03C
F03C
F0FF
F0FF
F03C
F03C
F03F
F03F
ENDCHAR
STARTCHAR U+20AC
ENCODING 8364
SWIDTH 2000 0
DWIDTH 16 0
BBX 14 14 0 2
BITMAP
0FFC
0FFC
3C00
3C00
FFF0
FFF0
3C00
3C00
FFC0
FFC0
3C00
3C00
0FFC
0FFC
ENDCHAR
STARTCHAR U+2117
ENCODING 8471
SWIDTH 2000 0
DWIDTH 16 0
BBX 16 16 0 0
BITMAP
3FFC
3FFC
C003
C003
CFC3
CFC3
CC33
CC33
CFC3
CFC3
CC03
CC03
C003
C003
3FFC
3FFC
ENDCHAR
STARTCHAR U+2120
ENCODING 8480
SWIDTH 2000 0
DWIDTH 16 0
BBX 14 10 0 6
BITMAP
3CCC
3CCC
C0FC
C0FC
30FC
30FC
0CCC
0CCC
F0CC
F0CC
ENDCHAR
STARTCHAR U+2122
ENCODING 8482
SWIDTH 2000 0
DWIDTH 16 0
BBX 14 10 0 6
BITMAP
FCCC
FCCC
30FC
30FC
30FC
30FC
30CC
30CC
30CC
30CC
ENDCHAR
STARTCHAR U+2190
ENCODING 8592
SWIDTH 2000 0
DWIDTH 16 0
BBX 14 12 2 2
BITMAP
0C00
0C00
3C00
3C00
FFFC
FFFC
FFFC
FFFC
3C00
3C00
0C00
0C00
ENDCHAR
STARTCHAR U+2191
ENCODING 8593
SWIDTH 2000 0
DWIDTH 16 0
BBX 12 16 2 0
BITMAP
0F00
0F00
3FC0
3FC0
FFF0
FFF0
0F00
0F00
0F00
0F00
0F00
0F00
0F00
0F00
0F00
0F00
ENDCHAR
STARTCHAR U+2192
ENCODING 8594
SWIDTH 2000 0
DWIDTH 16 0
BBX 14 12 0 2
BITMAP
00C0
00C0
00F0
00F0
FFFC
FFFC
FFFC
FFFC
00F0
00F0
00C0
00C0
ENDCHAR
STARTCHAR U+2194
ENCODING 8596
SWIDTH 2000 0
DWIDTH 16 0
BBX 16 12 0 2
BITMAP
0C30
0C30
3C3C
3C3C
FFFF
FFFF
FFFF
FFFF
3C3C
3C3C
0C30
0C30
ENDCHAR
STARTCHAR U+2196
ENCODING 8598
SWIDTH 2000 0
DWIDTH 16 0
BBX 14 14 0 2
BITMAP
FF00
FF00
FC00
FC00
FF00
FF00
CFC0
CFC0
03F0
03F0
00FC
00FC
0030
0030
ENDCHAR
STARTCHAR U+2197
ENCODING 8599
SWIDTH 2000 0
DWIDTH 16 0
BBX 14 14 2 2
BITMAP
03FC
03FC
00FC
00FC
03FC
03FC
0FCC
0FCC
3F00
3F00
FC00
FC00
3000
3000
ENDCHAR
STARTCHAR U+2198
ENCODING 8600
SWIDTH 2000 0
DWIDTH 16 0
BBX 14 14 2 0
BITMAP
3000
3000
FC00
FC00
3F00
3F00
0FCC
0FCC
03FC
03FC
00FC
00FC
03FC
03FC
ENDCHAR
STARTCHAR U+2199
ENCODING 8601
SWIDTH 2000 0
DWIDTH 16 0
BBX 14 14 0 0
BITMAP
0030
0030
00FC
00FC
03F0
03F0
CFC0
CFC0
FF00
FF00
FC00
FC00
FF00
FF00
ENDCHAR
STARTCHAR U+21A5
ENCODING 8613
SWIDTH 2000 0
DWIDTH 16 0
BBX 12 16 2 0
BITMAP
0F00
0F00
3FC0
3FC0
FFF0
FFF0
0F00
0F00
0F00
0F00
FFF0
FFF0
3FC0
3FC0
0F00
0F00
ENDCHAR
STARTCHAR U+21A8
ENCODING 8616
SWIDTH 2000 0
DWIDTH 16 0
BBX 16 16 0 0
BITMAP
03C0
03C0
0FF0
0FF0
3FFC
3FFC
03C0
03C0
3FFC
3FFC
0FF0
0FF0
03C0
03C0
FFFF
FFFF
ENDCHAR
STARTCHAR U+21E6
ENCODING 8678
SWIDTH 2000 0
DWIDTH 16 0
BBX 16 16 0 0
BITMAP
03C0
03C0
0FC0
0FC0
3CFF
3CFF
F003
F003
F003
F003
3CFF
3CFF
0FC0
0FC0
03C0
03C0
ENDCHAR
STARTCHAR U+21E7
ENCODING 8679
SWIDTH 2000 0
DWIDTH 16 0
BBX 16 16 0 0
BITMAP
03C0
03C0
0FF0
0FF0
3C3C
3C3C
F00F
F00F
FC3F
FC3F
0C30
0C30
0C30
0C30
0FF0
0FF0
ENDCHAR
STARTCHAR U+21E8
ENCODING 8680
SWIDTH 2000 0
DWIDTH 16 0
BBX 16 16 0 0
BITMAP
03C0
03C0
03F0
03F0
FF3C
FF3C
C00F
C00F
C00F
C00F
FF3C
FF3C
03F0
03F0
03C0
03C0
ENDCHAR
STARTCHAR U+21E9
ENCODING 8681
SWIDTH 2000 0
DWIDTH 16 0
BBX 16 16 0 0
BITMAP
0FF0
0FF0
0C30
0C30
0C30
0C30
FC3F
FC3F
F00F
F00F
3C3C
3C3C
0FF0
0FF0
03C0
03C0
ENDCHAR
STARTCHAR U+2212
ENCODING 8722
SWIDTH 2000 0
DWIDTH 16 0
BBX 12 2 2 8
BITMAP
FFF0
FFF0
ENDCHAR
STARTCHAR U+2218
ENCODING 8728
SWIDTH 2000 0
DWIDTH 16 0
BBX 12 8 2 4
BITMAP
3FC0
3FC0
F0F0
F0F0
F0F0
F0F0
3FC0
3FC0
ENDCHAR
STARTCHAR U+221A
ENCODING 8730
SWIDTH 2000 0
DWIDTH 16 0
BBX 16 14 0 2
BITMAP
0003
0003
000F
000F
003C
003C
C0F0
C0F0
F3C0
F3C0
3F00
3F00
0C00
0C00
ENDCHAR
STARTCHAR U+221E
ENCODING 8734
SWIDTH 2000 0
DWIDTH 16 0
BBX 16 8 0 4
BITMAP
3F3C
3F3C
F3CF
F3CF
F3CF
F3CF
3CFC
3CFC
ENDCHAR
STARTCHAR U+221F
ENCODING 8735
SWIDTH 2000 0
DWIDTH 16 0
BBX 14 8 0 4
BITMAP
F000
F000
F000
F000
F000
F000
FFFC
FFFC
ENDCHAR
STARTCHAR U+2229
ENCODING 8745
SWIDTH 2000 0
DWIDTH 16 0
BBX 12 14 2 2
BITMAP
3FC0
3FC0
F0F0
F0F0
F0F0
F0F0
F0F0
F0F0
F0F0
F0F0
F0F0
F0F0
F0F0
F0F0
ENDCHAR
STARTCHAR U+2248
ENCODING 8776
SWIDTH 2000 0
DWIDTH 16 0
BBX 14 10 0 4
BITMAP
3F3C
3F3C
F3F0
F3F0
0000
0000
3F3C
3F3C
F3F0
F3F0
ENDCHAR
STARTCHAR U+2261
ENCODING 8801
SWIDTH 2000 0
DWIDTH 16 0
BBX 12 10 2 4
BITMAP
FFF0
FFF0
0000
0000
FFF0
FFF0
0000
0000
FFF0
FFF0
ENDCHAR
STARTCHAR U+2264
ENCODING 8804
SWIDTH 2000 0
DWIDTH 16 0
BBX 12 14 2 2
BITMAP
03C0
03C0
0F00
0F00
3C00
3C00
0F00
0F00
03C0
03C0
0000
0000
FFF0
FFF0
ENDCHAR
STARTCHAR U+2265
ENCODING 8805
SWIDTH 2000 0
DWIDTH 16 0
BBX 12 14 2 2
BITMAP
3C00
3C00
0F00
0F00
03C0
03C0
0F00
0F00
3C00
3C00
0000
0000
FFF0
FFF0
ENDCHAR
STARTCHAR U+22C5
ENCODING 8901
SWIDTH 2000 0
DWIDTH 16 0
BBX 4 4 6 8
BITMAP
F000
F000
F000
F000
ENDCHAR
STARTCHAR U+2320
ENCODING 8992
SWIDTH 2000 0
DWIDTH 16 0
BBX 10 16 6 0
BITMAP
3F00
3F00
F3C0
F3C0
F3C0
F3C0
F000
F000
F000
F000
F000
F000
F000
F000
F000
F000
ENDCHAR
STARTCHAR U+2321
ENCODING 8993
SWIDTH 2000 0
DWIDTH 16 0
BBX 10 16 0 0
BITMAP
03C0
03C0
03C0
03C0
03C0
03C0
03C0
03C0
03C0
03C0
F3C0
F3C0
F3C0
F3C0
3F00
3F00
ENDCHAR
STARTCHAR U+23EA
ENCODING 9194
SWIDTH 2000 0
DWIDTH 16 0
BBX 14 10 0 2
BITMAP
0C0C
0C0C
3C3C
3C3C
FCFC
FCFC
3C3C
3C3C
0C0C
0C0C
ENDCHAR
STARTCHAR U+23EB
ENCODING 9195
SWIDTH 2000 0
DWIDTH 16 0
BBX 10 14 2 2
BITMAP
FFC0
FFC0
3F00
3F00
0C00
0C00
0000
0000
FFC0
FFC0
3F00
3F00
0C00
0C00
ENDCHAR
STARTCHAR U+23EC
ENCODING 9196
SWIDTH 2000 0
DWIDTH 16 0
BBX 14 10 0 2
BITMAP
C0C0
C0C0
F0F0
F0F0
FCFC
FCFC
F0F0
F0F0
C0C0
C0C0
ENDCHAR
STARTCHAR U+2500
ENCODING 9472
SWIDTH 2000 0
DWIDTH 16 0
BBX 16 4 0 6
BITMAP
FFFF
FFFF
FFFF
FFFF
ENDCHAR
STARTCHAR U+2501
ENCODING 9473
SWIDTH 2000 0
DWIDTH 16 0
BBX 16 8 0 4
BITMAP
FFFF
FFFF
FFFF
FFFF
FFFF
FFFF
FFFF
FFFF
ENDCHAR
STARTCHAR U+2502
ENCODING 9474
SWIDTH 2000 0
DWIDTH 16 0
BBX 4 16 6 0
BITMAP
F000
F000
F000
F000
F000
F000
F000
F000
F000
F000
F000
F000
F000
F000
F000
F000
ENDCHAR
STARTCHAR U+2503
ENCODING 9475
SWIDTH 2000 0
DWIDTH 16 0
BBX 8 16 4 0
BITMAP
FF00
FF00
FF00
FF00
FF00
FF00
FF00
FF00
FF00
FF00
FF00
FF00
FF00
FF00
FF00
FF00
ENDCHAR
STARTCHAR U+2504
ENCODING 9476
SWIDTH 2000 0
DWIDTH 16 0
BBX 16 4 0 6
BITMAP
F3CF
F3CF
F3CF
F3CF
ENDCHAR
STARTCHAR U+2505
ENCODING 9477
SWIDTH 2000 0
DWIDTH 16 0
BBX 16 8 0 4
BITMAP
F3CF
F3CF
F3CF
F3CF
F3CF
F3CF
F3CF
F3CF
ENDCHAR
STARTCHAR U+2506
ENCODING 9478
SWIDTH 2000 0
DWIDTH 16 0
BBX 4 16 6 0
BITMAP
F000
F000
F000
F000
0000
0000
F000
F000
F000
F000
F000
F000
0000
0000
F000
F000
ENDCHAR
STARTCHAR U+2507
ENCODING 9479
SWIDTH 2000 0
DWIDTH 16 0
BBX 8 16 4 0
BITMAP
FF00
FF00
FF00
FF00
0000
0000
FF00
FF00
FF00
FF00
FF00
FF00
0000
0000
FF00
FF00
ENDCHAR
STARTCHAR U+2508
ENCODING 9480
SWIDTH 2000 0
DWIDTH 16 0
BBX 14 4 0 6
BITMAP
CCCC
CCCC
CCCC
CCCC
ENDCHAR
STARTCHAR U+2509
ENCODING 9481
SWIDTH 2000 0
DWIDTH 16 0
BBX 14 4 0 6
BITMAP
CCCC
CCCC
CCCC
CCCC
ENDCHAR
STARTCHAR U+250A
ENCODING 9482
SWIDTH 2000 0
DWIDTH 16 0
BBX 4 14 6 2
BITMAP
F000
F000
0000
0000
F000
F000
0000
0000
F000
F000
0000
0000
F000
F000
ENDCHAR
STARTCHAR U+250B
ENCODING 9483
SWIDTH 2000 0
DWIDTH 16 0
BBX 8 14 4 2
BITMAP
FF00
FF00
0000
0000
FF00
FF00
0000
0000
FF00
FF00
0000
0000
FF00
FF00
ENDCHAR
STARTCHAR U+250C
ENCODING 9484
SWIDTH 2000 0
DWIDTH 16 0
BBX 10 10 6 0
BITMAP
FFC0
FFC0
FFC0
FFC0
F000
F000
F000
F000
F000
F000
ENDCHAR
STARTCHAR U+250D
ENCODING 9485
SWIDTH 2000 0
DWIDTH 16 0
BBX 10 12 6 0
BITMAP
3FC0
3FC0
3FC0
3FC0
FFC0
FFC0
FFC0
FFC0
F000
F000
F000
F000
ENDCHAR
STARTCHAR U+250E
ENCODING 9486
SWIDTH 2000 0
DWIDTH 16 0
BBX 12 10 4 0
BITMAP
FFF0
FFF0
FFF0
FFF0
FF00
FF00
FF00
FF00
FF00
FF00
ENDCHAR
STARTCHAR U+250F
ENCODING 9487
SWIDTH 2000 0
DWIDTH 16 0
BBX 12 12 4 0
BITMAP
0FF0
0FF0
FFF0
FFF0
FFF0
FFF0
FFF0
FFF0
FF00
FF00
FF00
FF00
ENDCHAR
STARTCHAR U+2510
ENCODING 9488
SWIDTH 2000 0
DWIDTH 16 0
BBX 10 10 0 0
BITMAP
FFC0
FFC0
FFC0
FFC0
03C0
03C0
03C0
03C0
03C0
03C0
ENDCHAR
STARTCHAR U+2511
ENCODING 9489
SWIDTH 2000 0
DWIDTH 16 0
BBX 10 12 0 0
BITMAP
FFC0
FFC0
FFC0
FFC0
FFC0
FFC0
FFC0
FFC0
03C0
03C0
03C0
03C0
ENDCHAR
STARTCHAR U+2512
ENCODING 9490
SWIDTH 2000 0
DWIDTH 16 0
BBX 12 10 0 0
BITMAP
FFF0
FFF0
FFF0
FFF0
0FF0
0FF0
0FF0
0FF0
0FF0
0FF0
ENDCHAR
STARTCHAR U+2513
ENCODING 9491
SWIDTH 2000 0
DWIDTH 16 0
BBX 12 12 0 0
BITMAP
FFC0
FFC0
FFF0
FFF0
FFF0
FFF0
FFF0
FFF0
0FF0
0FF0
0FF0
0FF0
ENDCHAR
STARTCHAR U+2514
ENCODING 9492
SWIDTH 2000 0
DWIDTH 16 0
BBX 10 10 6 6
BITMAP
F000
F000
F000
F000
F000
F000
FFC0
FFC0
FFC0
FFC0
ENDCHAR
STARTCHAR U+2515
ENCODING 9493
SWIDTH 2000 0
DWIDTH 16 0
BBX 10 12 6 4
BITMAP
F000
F000
F000
F000
FFC0
FFC0
FFC0
FFC0
3FC0
3FC0
3FC0
3FC0
ENDCHAR
STARTCHAR U+2516
ENCODING 9494
SWIDTH 2000 0
DWIDTH 16 0
BBX 12 10 4 6
BITMAP
FF00
FF00
FF00
FF00
FF00
FF00
FFF0
FFF0
3FF0
3FF0
ENDCHAR
STARTCHAR U+2517
ENCODING 9495
SWIDTH 2000 0
DWIDTH 16 0
BBX 12 12 4 4
BITMAP
FF00
FF00
FF00
FF00
FFF0
FFF0
FFF0
FFF0
0FF0
0FF0
0FF0
0FF0
ENDCHAR
STARTCHAR U+2518
ENCODING 9496
SWIDTH 2000 0
DWIDTH 16 0
BBX 10 10 0 6
BITMAP
03C0
03C0
03C0
03C0
03C0
03C0
FFC0
FFC0
FFC0
FFC0
ENDCHAR
STARTCHAR U+2519
ENCODING 9497
SWIDTH 2000 0
DWIDTH 16 0
BBX 10 12 0 4
BITMAP
03C0
03C0
03C0
03C0
FFC0
FFC0
FFC0
FFC0
FFC0
FFC0
FFC0
FFC0
ENDCHAR
STARTCHAR U+251A
ENCODING 9498
SWIDTH 2000 0
DWIDTH 16 0
BBX 12 10 0 6
BITMAP
0FF0
0FF0
0FF0
0FF0
0FF0
0FF0
FFF0
FFF0
FFC0
FFC0
ENDCHAR
STARTCHAR U+251B
ENCODING 9499
SWIDTH 2000 0
DWIDTH 16 0
BBX 12 12 0 4
BITMAP
0FF0
0FF0
0FF0
0FF0
FFF0
FFF0
FFF0
FFF0
FFC0
FFC0
FFC0
FFC0
ENDCHAR
STARTCHAR U+251C
ENCODING 9500
SWIDTH 2000 0
DWIDTH 16 0
BBX 10 16 6 0
BITMAP
F000
F000
F000
F000
F000
F000
FFC0
FFC0
FFC0
FFC0
F000
F000
F000
F000
F000
F000
ENDCHAR
STARTCHAR U+251D
ENCODING 9501
SWIDTH 2000 0
DWIDTH 16 0
BBX 10 16 6 0
BITMAP
F000
F000
F000
F000
FFC0
FFC0
FFC0
FFC0
FFC0
FFC0
FFC0
FFC0
F000
F000
F000
F000
ENDCHAR
STARTCHAR U+251E
ENCODING 9502
SWIDTH 2000 0
DWIDTH 16 0
BBX 12 16 4 0
BITMAP
FF00
FF00
FF00
FF00
FF00
FF00
FFF0
FFF0
3FF0
3FF0
3C00
3C00
3C00
3C00
3C00
3C00
ENDCHAR
STARTCHAR U+251F
ENCODING 9503
SWIDTH 2000 0
DWIDTH 16 0
BBX 12 16 4 0
BITMAP
3C00
3C00
3C00
3C00
3FF0
3FF0
FFF0
FFF0
FFF0
FFF0
FFF0
FFF0
FF00
FF00
FF00
FF00
ENDCHAR
STARTCHAR U+2520
ENCODING 9504
SWIDTH 2000 0
DWIDTH 16 0
BBX 12 16 4 0
BITMAP
FF00
FF00
FF00
FF00
FF00
FF00
FFF0
FFF0
FFF0
FFF0
FF00
FF00
FF00
FF00
FF00
FF00
ENDCHAR
STARTCHAR U+2521
ENCODING 9505
SWIDTH 2000 0
DWIDTH 16 0
BBX 12 16 4 0
BITMAP
FF00
FF00
FF00
FF00
FFF0
FFF0
FFF0
FFF0
3FF0
3FF0
3FF0
3FF0
3C00
3C00
3C00
3C00
ENDCHAR
STARTCHAR U+2522
ENCODING 9506
SWIDTH 2000 0
DWIDTH 16 0
BBX 12 16 4 0
BITMAP
3C00
3C00
3C00
3C00
3C00
3C00
FFF0
FFF0
FFF0
FFF0
FF00
FF00
FF00
FF00
FF00
FF00
ENDCHAR
STARTCHAR U+2523
ENCODING 9507
SWIDTH 2000 0
DWIDTH 16 0
BBX 12 16 4 0
BITMAP
FF00
FF00
FF00
FF00
FFF0
FFF0
FFF0
FFF0
FFF0
FFF0
FFF0
FFF0
FF00
FF00
FF00
FF00
ENDCHAR
STARTCHAR U+2524
ENCODING 9508
SWIDTH 2000 0
DWIDTH 16 0
BBX 10 16 0 0
BITMAP
03C0
03C0
03C0
03C0
03C0
03C0
FFC0
FFC0
FFC0
FFC0
03C0
03C0
03C0
03C0
03C0
03C0
ENDCHAR
STARTCHAR U+2525
ENCODING 9509
SWIDTH 2000 0
DWIDTH 16 0
BBX 10 16 0 0
BITMAP
03C0
03C0
03C0
03C0
FFC0
FFC0
FFC0
FFC0
FFC0
FFC0
FFC0
FFC0
03C0
03C0
03C0
03C0
ENDCHAR
STARTCHAR U+2526
ENCODING 9510
SWIDTH 2000 0
DWIDTH 16 0
BBX 12 16 0 0
BITMAP
0FF0
0FF0
0FF0
0FF0
0FF0
0FF0
FFF0
FFF0
FFC0
FFC0
03C0
03C0
03C0
03C0
03C0
03C0
ENDCHAR
STARTCHAR U+2527
ENCODING 9511
SWIDTH 2000 0
DWIDTH 16 0
BBX 12 16 0 0
BITMAP
03C0
03C0
03C0
03C0
FFC0
FFC0
FFF0
FFF0
FFF0
FFF0
FFF0
FFF0
0FF0
0FF0
0FF0
0FF0
ENDCHAR
STARTCHAR U+2528
ENCODING 9512
SWIDTH 2000 0
DWIDTH 16 0
BBX 12 16 0 0
BITMAP
0FF0
0FF0
0FF0
0FF0
0FF0
0FF0
FFF0
FFF0
FFF0
FFF0
0FF0
0FF0
0FF0
0FF0
0FF0
0FF0
ENDCHAR
STARTCHAR U+2529
ENCODING 9513
SWIDTH 2000 0
DWIDTH 16 0
BBX 12 16 0 0
BITMAP
0FF0
0FF0
0FF0
0FF0
FFF0
FFF0
FFF0
FFF0
FFC0
FFC0
FFC0
FFC0
03C0
03C0
03C0
03C0
ENDCHAR
STARTCHAR U+252A
ENCODING 9514
SWIDTH 2000 0
DWIDTH 16 0
BBX 12 16 0 0
BITMAP
03C0
03C0
03C0
03C0
03C0
03C0
FFF0
FFF0
FFF0
FFF0
0FF0
0FF0
0FF0
0FF0
0FF0
0FF0
ENDCHAR
STARTCHAR U+252B
ENCODING 9515
SWIDTH 2000 0
DWIDTH 16 0
BBX 12 16 0 0
BITMAP
0FF0
0FF0
0FF0
0FF0
FFF0
FFF0
FFF0
FFF0
FFF0
FFF0
FFF0
FFF0
0FF0
0FF0
0FF0
0FF0
ENDCHAR
STARTCHAR U+252C
ENCODING 9516
SWIDTH 2000 0
DWIDTH 16 0
BBX 16 10 0 0
BITMAP
FFFF
FFFF
FFFF
FFFF
03C0
03C0
03C0
03C0
03C0
03C0
ENDCHAR
STARTCHAR U+252D
ENCODING 9517
SWIDTH 2000 0
DWIDTH 16 0
BBX 16 12 0 0
BITMAP
FFC0
FFC0
FFFF
FFFF
FFFF
FFFF
FFC0
FFC0
03C0
03C0
03C0
03C0
ENDCHAR
STARTCHAR U+252E
ENCODING 9518
SWIDTH 2000 0
DWIDTH 16 0
BBX 16 12 0 0
BITMAP
00FF
00FF
FFFF
FFFF
FFFF
FFFF
03FF
03FF
03C0
03C0
03C0
03C0
ENDCHAR
STARTCHAR U+252F
ENCODING 9519
SWIDTH 2000 0
DWIDTH 16 0
BBX 16 12 0 0
BITMAP
FFFF
FFFF
FFFF
FFFF
FFFF
FFFF
FFFF
FFFF
03C0
03C0
03C0
03C0
ENDCHAR
STARTCHAR U+2530
ENCODING 9520
SWIDTH 2000 0
DWIDTH 16 0
BBX 16 10 0 0
BITMAP
FFFF
FFFF
FFFF
FFFF
0FF0
0FF0
0FF0
0FF0
0FF0
0FF0
ENDCHAR
STARTCHAR U+2531
ENCODING 9521
SWIDTH 2000 0
DWIDTH 16 0
BBX 16 12 0 0
BITMAP
FFC0
FFC0
FFFF
FFFF
FFFF
FFFF
FFF0
FFF0
0FF0
0FF0
0FF0
0FF0
ENDCHAR
STARTCHAR U+2532
ENCODING 9522
SWIDTH 2000 0
DWIDTH 16 0
BBX 16 12 0 0
BITMAP
00FF
00FF
FFFF
FFFF
FFFF
FFFF
0FFF
0FFF
0FF0
0FF0
0FF0
0FF0
ENDCHAR
STARTCHAR U+2533
ENCODING 9523
SWIDTH 2000 0
DWIDTH 16 0
BBX 16 12 0 0
BITMAP
FFFF
FFFF
FFFF
FFFF
FFFF
FFFF
FFFF
FFFF
0FF0
0FF0
0FF0
0FF0
ENDCHAR
STARTCHAR U+2534
ENCODING 9524
SWIDTH 2000 0
DWIDTH 16 0
BBX 16 10 0 6
BITMAP
03C0
03C0
03C0
03C0
03C0
03C0
FFFF
FFFF
FFFF
FFFF
ENDCHAR
STARTCHAR U+2535
ENCODING 9525
SWIDTH 2000 0
DWIDTH 16 0
BBX 16 12 0 4
BITMAP
03C0
03C0
03C0
03C0
FFC0
FFC0
FFFF
FFFF
FFFF
FFFF
FFC0
FFC0
ENDCHAR
STARTCHAR U+2536
ENCODING 9526
SWIDTH 2000 0
DWIDTH 16 0
BBX 16 12 0 4
BITMAP
03C0
03C0
03C0
03C0
03FF
03FF
FFFF
FFFF
FFFF
FFFF
00FF
00FF
ENDCHAR
STARTCHAR U+2537
ENCODING 9527
SWIDTH 2000 0
DWIDTH 16 0
BBX 16 12 0 4
BITMAP
03C0
03C0
03C0
03C0
FFFF
FFFF
FFFF
FFFF
FFFF
FFFF
FFFF
FFFF
ENDCHAR
STARTCHAR U+2538
ENCODING 9528
SWIDTH 2000 0
DWIDTH 16 0
BBX 16 10 0 6
BITMAP
0FF0
0FF0
0FF0
0FF0
0FF0
0FF0
FFFF
FFFF
FFFF
FFFF
ENDCHAR
STARTCHAR U+2539
ENCODING 9529
SWIDTH 2000 0
DWIDTH 16 0
BBX 16 12 0 4
BITMAP
0FF0
0FF0
0FF0
0FF0
FFF0
FFF0
FFFF
FFFF
FFFF
FFFF
FFC0
FFC0
ENDCHAR
STARTCHAR U+253A
ENCODING 9530
SWIDTH 2000 0
DWIDTH 16 0
BBX 16 12 0 4
BITMAP
0FF0
0FF0
0FF0
0FF0
0FFF
0FFF
FFFF
FFFF
FFFF
FFFF
00FF
00FF
ENDCHAR
STARTCHAR U+253B
ENCODING 9531
SWIDTH 2000 0
DWIDTH 16 0
BBX 16 12 0 4
BITMAP
0FF0
0FF0
0FF0
0FF0
FFFF
FFFF
FFFF
FFFF
FFFF
FFFF
FFFF
FFFF
ENDCHAR
STARTCHAR U+253C
ENCODING 9532
SWIDTH 2000 0
DWIDTH 16 0
BBX 16 16 0 0
BITMAP
03C0
03C0
03C0
03C0
03C0
03C0
FFFF
FFFF
FFFF
FFFF
03C0
03C0
03C0
03C0
03C0
03C0
ENDCHAR
STARTCHAR U+253D
ENCODING 9533
SWIDTH 2000 0
DWIDTH 16 0
BBX 16 16 0 0
BITMAP
03C0
03C0
03C0
03C0
FFC0
FFC0
FFFF
FFFF
FFFF
FFFF
FFC0
FFC0
03C0
03C0
03C0
03C0
ENDCHAR
STARTCHAR U+253E
ENCODING 9534
SWIDTH 2000 0
DWIDTH 16 0
BBX 16 16 0 0
BITMAP
03C0
03C0
03C0
03C0
03FF
03FF
FFFF
FFFF
FFFF
FFFF
03FF
03FF
03C0
03C0
03C0
03C0
ENDCHAR
STARTCHAR U+253F
ENCODING 9535
SWIDTH 2000 0
DWIDTH 16 0
BBX 16 16 0 0
BITMAP
03C0
03C0
03C0
03C0
FFFF
FFFF
FFFF
FFFF
FFFF
FFFF
FFFF
FFFF
03C0
03C0
03C0
03C0
ENDCHAR
STARTCHAR U+2540
ENCODING 9536
SWIDTH 2000 0
DWIDTH 16 0
BBX 16 16 0 0
BITMAP
0FF0
0FF0
0FF0
0FF0
0FF0
0FF0
FFFF
FFFF
FFFF
FFFF
03C0
03C0
03C0
03C0
03C0
03C0
ENDCHAR
STARTCHAR U+2541
ENCODING 9537
SWIDTH 2000 0
DWIDTH 16 0
BBX 16 16 0 0
BITMAP
03C0
03C0
03C0
03C0
03C0
03C0
FFFF
FFFF
FFFF
FFFF
0FF0
0FF0
0FF0
0FF0
0FF0
0FF0
ENDCHAR
STARTCHAR U+2542
ENCODING 9538
SWIDTH 2000 0
DWIDTH 16 0
BBX 16 16 0 0
BITMAP
0FF0
0FF0
0FF0
0FF0
0FF0
0FF0
FFFF
FFFF
FFFF
FFFF
0FF0
0FF0
0FF0
0FF0
0FF0
0FF0
ENDCHAR
STARTCHAR U+2543
ENCODING 9539
SWIDTH 2000 0
DWIDTH 16 0
BBX 16 16 0 0
BITMAP
0FF0
0FF0
0FF0
0FF0
FFF0
FFF0
FFFF
FFFF
FFFF
FFFF
FFC0
FFC0
03C0
03C0
03C0
03C0
ENDCHAR
STARTCHAR U+2544
ENCODING 9540
SWIDTH 2000 0
DWIDTH 16 0
BBX 16 16 0 0
BITMAP
0FF0
0FF0
0FF0
0FF0
0FFF
0FFF
FFFF
FFFF
FFFF
FFFF
03FF
03FF
03C0
03C0
03C0
03C0
ENDCHAR
STARTCHAR U+2545
ENCODING 9541
SWIDTH 2000 0
DWIDTH 16 0
BBX 16 16 0 0
BITMAP
03C0
03C0
03C0
03C0
FFC0
FFC0
FFFF
FFFF
FFFF
FFFF
FFF0
FFF0
0FF0
0FF0
0FF0
0FF0
ENDCHAR
STARTCHAR U+2546
ENCODING 9542
SWIDTH 2000 0
DWIDTH 16 0
BBX 16 16 0 0
BITMAP
03C0
03C0
03C0
03C0
03FF
03FF
FFFF
FFFF
FFFF
FFFF
0FFF
0FFF
0FF0
0FF0
0FF0
0FF0
ENDCHAR
STARTCHAR U+2547
ENCODING 9543
SWIDTH 2000 0
DWIDTH 16 0
BBX 16 16 0 0
BITMAP
0FF0
0FF0
0FF0
0FF0
FFFF
FFFF
FFFF
FFFF
FFFF
FFFF
FFFF
FFFF
03C0
03C0
03C0
03C0
ENDCHAR
STARTCHAR U+2548
ENCODING 9544
SWIDTH 2000 0
DWIDTH 16 0
BBX 16 16 0 0
BITMAP
03C0
03C0
03C0
03C0
FFFF
FFFF
FFFF
FFFF
FFFF
FFFF
FFFF
FFFF
0FF0
0FF0
0FF0
0FF0
ENDCHAR
STARTCHAR U+2549
ENCODING 9545
SWIDTH 2000 0
DWIDTH 16 0
BBX 16 16 0 0
BITMAP
0FF0
0FF0
0FF0
0FF0
FFF0
FFF0
FFFF
FFFF
FFFF
FFFF
FFF0
FFF0
0FF0
0FF0
0FF0
0FF0
ENDCHAR
STARTCHAR U+254A
ENCODING 9546
SWIDTH 2000 0
DWIDTH 16 0
BBX 16 16 0 0
BITMAP
0FF0
0FF0
0FF0
0FF0
0FFF
0FFF
FFFF
FFFF
FFFF
FFFF
0FFF
0FFF
0FF0
0FF0
0FF0
0FF0
ENDCHAR
STARTCHAR U+254B
ENCODING 9547
SWIDTH 2000 0
DWIDTH 16 0
BBX 16 16 0 0
BITMAP
0FF0
0FF0
0FF0
0FF0
FFFF
FFFF
FFFF
FFFF
FFFF
FFFF
FFFF
FFFF
0FF0
0FF0
0FF0
0FF0
ENDCHAR
STARTCHAR U+254C
ENCODING 9548
SWIDTH 2000 0
DWIDTH 16 0
BBX 14 4 0 6
BITMAP
FCFC
FCFC
FCFC
FCFC
ENDCHAR
STARTCHAR U+254D
ENCODING 9549
SWIDTH 2000 0
DWIDTH 16 0
BBX 14 8 0 4
BITMAP
FCFC
FCFC
FCFC
FCFC
FCFC
FCFC
FCFC
FCFC
ENDCHAR
STARTCHAR U+254E
ENCODING 9550
SWIDTH 2000 0
DWIDTH 16 0
BBX 4 14 6 2
BITMAP
F000
F000
F000
F000
F000
F000
0000
0000
F000
F000
F000
F000
F000
F000
ENDCHAR
STARTCHAR U+254F
ENCODING 9551
SWIDTH 2000 0
DWIDTH 16 0
BBX 8 14 4 2
BITMAP
FF00
FF00
FF00
FF00
FF00
FF00
0000
0000
FF00
FF00
FF00
FF00
FF00
FF00
ENDCHAR
STARTCHAR U+2550
ENCODING 9552
SWIDTH 2000 0
DWIDTH 16 0
BBX 16 6 0 6
BITMAP
FFFF
FFFF
0000
0000
FFFF
FFFF
ENDCHAR
STARTCHAR U+2551
ENCODING 9553
SWIDTH 2000 0
DWIDTH 16 0
BBX 10 16 2 0
BITMAP
F3C0
F3C0
F3C0
F3C0
F3C0
F3C0
F3C0
F3C0
F3C0
F3C0
F3C0
F3C0
F3C0
F3C0
F3C0
F3C0
ENDCHAR
STARTCHAR U+2552
ENCODING 9554
SWIDTH 2000 0
DWIDTH 16 0
BBX 10 12 6 0
BITMAP
FFC0
FFC0
F000
F000
FFC0
FFC0
F000
F000
F000
F000
F000
F000
ENDCHAR
STARTCHAR U+2553
ENCODING 9555
SWIDTH 2000 0
DWIDTH 16 0
BBX 14 10 2 0
BITMAP
FFFC
FFFC
FFFC
FFFC
F3C0
F3C0
F3C0
F3C0
F3C0
F3C0
ENDCHAR
STARTCHAR U+2554
ENCODING 9556
SWIDTH 2000 0
DWIDTH 16 0
BBX 14 12 2 0
BITMAP
FFFC
FFFC
F000
F000
F3FC
F3FC
F3C0
F3C0
F3C0
F3C0
F3C0
F3C0
ENDCHAR
STARTCHAR U+2555
ENCODING 9557
SWIDTH 2000 0
DWIDTH 16 0
BBX 10 12 0 0
BITMAP
FFC0
FFC0
03C0
03C0
FFC0
FFC0
03C0
03C0
03C0
03C0
03C0
03C0
ENDCHAR
STARTCHAR U+2556
ENCODING 9558
SWIDTH 2000 0
DWIDTH 16 0
BBX 12 10 0 0
BITMAP
FFF0
FFF0
FFF0
FFF0
3CF0
3CF0
3CF0
3CF0
3CF0
3CF0
ENDCHAR
STARTCHAR U+2557
ENCODING 9559
SWIDTH 2000 0
DWIDTH 16 0
BBX 12 12 0 0
BITMAP
FFF0
FFF0
00F0
00F0
FCF0
FCF0
3CF0
3CF0
3CF0
3CF0
3CF0
3CF0
ENDCHAR
STARTCHAR U+2558
ENCODING 9560
SWIDTH 2000 0
DWIDTH 16 0
BBX 10 10 6 6
BITMAP
F000
F000
F000
F000
FFC0
FFC0
F000
F000
FFC0
FFC0
ENDCHAR
STARTCHAR U+2559
ENCODING 9561
SWIDTH 2000 0
DWIDTH 16 0
BBX 14 8 2 8
BITMAP
F3C0
F3C0
F3C0
F3C0
FFFC
FFFC
FFFC
FFFC
ENDCHAR
STARTCHAR U+255A
ENCODING 9562
SWIDTH 2000 0
DWIDTH 16 0
BBX 14 10 2 6
BITMAP
F3C0
F3C0
F3C0
F3C0
F3FC
F3FC
F000
F000
FFFC
FFFC
ENDCHAR
STARTCHAR U+255B
ENCODING 9563
SWIDTH 2000 0
DWIDTH 16 0
BBX 10 10 0 6
BITMAP
03C0
03C0
03C0
03C0
FFC0
FFC0
03C0
03C0
FFC0
FFC0
ENDCHAR
STARTCHAR U+255C
ENCODING 9564
SWIDTH 2000 0
DWIDTH 16 0
BBX 12 8 0 8
BITMAP
3CF0
3CF0
3CF0
3CF0
FFF0
FFF0
FFF0
FFF0
ENDCHAR
STARTCHAR U+255D
ENCODING 9565
SWIDTH 2000 0
DWIDTH 16 0
BBX 12 10 0 6
BITMAP
3CF0
3CF0
3CF0
3CF0
FCF0
FCF0
00F0
00F0
FFF0
FFF0
ENDCHAR
STARTCHAR U+255E
ENCODING 9566
SWIDTH 2000 0
DWIDTH 16 0
BBX 10 16 6 0
BITMAP
F000
F000
F000
F000
FFC0
FFC0
F000
F000
FFC0
FFC0
F000
F000
F000
F000
F000
F000
ENDCHAR
STARTCHAR U+255F
ENCODING 9567
SWIDTH 2000 0
DWIDTH 16 0
BBX 14 16 2 0
BITMAP
F3C0
F3C0
F3C0
F3C0
F3C0
F3C0
F3FC
F3FC
F3FC
F3FC
F3C0
F3C0
F3C0
F3C0
F3C0
F3C0
ENDCHAR
STARTCHAR U+2560
ENCODING 9568
SWIDTH 2000 0
DWIDTH 16 0
BBX 14 16 2 0
BITMAP
F3C0
F3C0
F3C0
F3C0
F3FC
F3FC
F000
F000
F3FC
F3FC
F3C0
F3C0
F3C0
F3C0
F3C0
F3C0
ENDCHAR
STARTCHAR U+2561
ENCODING 9569
SWIDTH 2000 0
DWIDTH 16 0
BBX 10 16 0 0
BITMAP
03C0
03C0
03C0
03C0
FFC0
FFC0
03C0
03C0
FFC0
FFC0
03C0
03C0
03C0
03C0
03C0
03C0
ENDCHAR
STARTCHAR U+2562
ENCODING 9570
SWIDTH 2000 0
DWIDTH 16 0
BBX 12 16 0 0
BITMAP
3CF0
3CF0
3CF0
3CF0
3CF0
3CF0
FCF0
FCF0
FCF0
FCF0
3CF0
3CF0
3CF0
3CF0
3CF0
3CF0
ENDCHAR
STARTCHAR U+2563
ENCODING 9571
SWIDTH 2000 0
DWIDTH 16 0
BBX 12 16 0 0
BITMAP
3CF0
3CF0
3CF0
3CF0
FCF0
FCF0
00F0
00F0
FCF0
FCF0
3CF0
3CF0
3CF0
3CF0
3CF0
3CF0
ENDCHAR
STARTCHAR U+2564
ENCODING 9572
SWIDTH 2000 0
DWIDTH 16 0
BBX 16 12 0 0
BITMAP
FFFF
FFFF
0000
0000
FFFF
FFFF
03C0
03C0
03C0
03C0
03C0
03C0
ENDCHAR
STARTCHAR U+2565
ENCODING 9573
SWIDTH 2000 0
DWIDTH 16 0
BBX 16 10 0 0
BITMAP
FFFF
FFFF
FFFF
FFFF
3CF0
3CF0
3CF0
3CF0
3CF0
3CF0
ENDCHAR
STARTCHAR U+2566
ENCODING 9574
SWIDTH 2000 0
DWIDTH 16 0
BBX 16 12 0 0
BITMAP
FFFF
FFFF
0000
0000
FCFF
FCFF
3CF0
3CF0
3CF0
3CF0
3CF0
3CF0
ENDCHAR
STARTCHAR U+2567
ENCODING 9575
SWIDTH 2000 0
DWIDTH 16 0
BBX 16 10 0 6
BITMAP
03C0
03C0
03C0
03C0
FFFF
FFFF
0000
0000
FFFF
FFFF
ENDCHAR
STARTCHAR U+2568
ENCODING 9576
SWIDTH 2000 0
DWIDTH 16 0
BBX 16 10 0 6
BITMAP
03C0
03C0
03C0
03C0
03FF
03FF
FFFF
FFFF
FFFF
FFFF
ENDCHAR
STARTCHAR U+2569
ENCODING 9577
SWIDTH 2000 0
DWIDTH 16 0
BBX 16 10 0 6
BITMAP
3CF0
3CF0
3CF0
3CF0
FCFF
FCFF
0000
0000
FFFF
FFFF
ENDCHAR
STARTCHAR U+256A
ENCODING 9578
SWIDTH 2000 0
DWIDTH 16 0
BBX 16 16 0 0
BITMAP
03C0
03C0
03C0
03C0
FFFF
FFFF
03C0
03C0
FFFF
FFFF
03C0
03C0
03C0
03C0
03C0
03C0
ENDCHAR
STARTCHAR U+256B
ENCODING 9579
SWIDTH 2000 0
DWIDTH 16 0
BBX 16 16 0 0
BITMAP
3CF0
3CF0
3CF0
3CF0
3CF0
3CF0
FFFF
FFFF
FFFF
FFFF
3CF0
3CF0
3CF0
3CF0
3CF0
3CF0
ENDCHAR
STARTCHAR U+256C
ENCODING 9580
SWIDTH 2000 0
DWIDTH 16 0
BBX 16 16 0 0
BITMAP
3CF0
3CF0
3CF0
3CF0
FCFF
FCFF
0000
0000
FF3F
FF3F
3CF0
3CF0
3CF0
3CF0
3CF0
3CF0
ENDCHAR
STARTCHAR U+256D
ENCODING 9581
SWIDTH 2000 0
DWIDTH 16 0
BBX 10 10 6 0
BITMAP
0FC0
0FC0
3FC0
3FC0
FC00
FC00
F000
F000
F000
F000
ENDCHAR
STARTCHAR U+256E
ENCODING 9582
SWIDTH 2000 0
DWIDTH 16 0
BBX 10 10 0 0
BITMAP
FC00
FC00
FF00
FF00
0FC0
0FC0
03C0
03C0
03C0
03C0
ENDCHAR
STARTCHAR U+256F
ENCODING 9583
SWIDTH 2000 0
DWIDTH 16 0
BBX 10 10 0 6
BITMAP
03C0
03C0
03C0
03C0
0FC0
0FC0
FF00
FF00
FC00
FC00
ENDCHAR
STARTCHAR U+2570
ENCODING 9584
SWIDTH 2000 0
DWIDTH 16 0
BBX 10 10 6 6
BITMAP
F000
F000
F000
F000
FC00
FC00
3FC0
3FC0
0FC0
0FC0
ENDCHAR
STARTCHAR U+2571
ENCODING 9585
SWIDTH 2000 0
DWIDTH 16 0
BBX 16 16 0 0
BITMAP
000F
000F
003C
003C
00F0
00F0
03C0
03C0
0F00
0F00
3C00
3C00
F000
F000
C000
C000
ENDCHAR
STARTCHAR U+2572
ENCODING 9586
SWIDTH 2000 0
DWIDTH 16 0
BBX 16 16 0 0
BITMAP
F000
F000
3C00
3C00
0F00
0F00
03C0
03C0
00F0
00F0
003C
003C
000F
000F
0003
0003
ENDCHAR
STARTCHAR U+2573
ENCODING 9587
SWIDTH 2000 0
DWIDTH 16 0
BBX 16 16 0 0
BITMAP
F00F
F00F
3C3C
3C3C
0FF0
0FF0
03C0
03C0
0FF0
0FF0
3C3C
3C3C
F00F
F00F
C003
C003
ENDCHAR
STARTCHAR U+2574
ENCODING 9588
SWIDTH 2000 0
DWIDTH 16 0
BBX 10 4 0 6
BITMAP
FFC0
FFC0
FFC0
FFC0
ENDCHAR
STARTCHAR U+2575
ENCODING 9589
SWIDTH 2000 0
DWIDTH 16 0
BBX 4 8 6 8
BITMAP
F000
F000
F000
F000
F000
F000
F000
F000
ENDCHAR
STARTCHAR U+2576
ENCODING 9590
SWIDTH 2000 0
DWIDTH 16 0
BBX 10 4 6 6
BITMAP
FFC0
FFC0
FFC0
FFC0
ENDCHAR
STARTCHAR U+2577
ENCODING 9591
SWIDTH 2000 0
DWIDTH 16 0
BBX 4 8 6 0
BITMAP
F000
F000
F000
F000
F000
F000
F000
F000
ENDCHAR
STARTCHAR U+2578
ENCODING 9592
SWIDTH 2000 0
DWIDTH 16 0
BBX 10 8 0 4
BITMAP
FFC0
FFC0
FFC0
FFC0
FFC0
FFC0
FFC0
FFC0
ENDCHAR
STARTCHAR U+2579
ENCODING 9593
SWIDTH 2000 0
DWIDTH 16 0
BBX 8 8 4 8
BITMAP
FF00
FF00
FF00
FF00
FF00
FF00
FF00
FF00
ENDCHAR
STARTCHAR U+257A
ENCODING 9594
SWIDTH 2000 0
DWIDTH 16 0
BBX 8 8 8 4
BITMAP
FF00
FF00
FF00
FF00
FF00
FF00
FF00
FF00
ENDCHAR
STARTCHAR U+257B
ENCODING 9595
SWIDTH 2000 0
DWIDTH 16 0
BBX 8 10 4 0
BITMAP
FF00
FF00
FF00
FF00
FF00
FF00
FF00
FF00
FF00
FF00
ENDCHAR
STARTCHAR U+257C
ENCODING 9596
SWIDTH 2000 0
DWIDTH 16 0
BBX 16 8 0 4
BITMAP
00FF
00FF
FFFF
FFFF
FFFF
FFFF
00FF
00FF
ENDCHAR
STARTCHAR U+257D
ENCODING 9597
SWIDTH 2000 0
DWIDTH 16 0
BBX 8 16 4 0
BITMAP
3C00
3C00
3C00
3C00
3C00
3C00
FF00
FF00
FF00
FF00
FF00
FF00
FF00
FF00
FF00
FF00
ENDCHAR
STARTCHAR U+257E
ENCODING 9598
SWIDTH 2000 0
DWIDTH 16 0
BBX 16 8 0 4
BITMAP
FFC0
FFC0
FFFF
FFFF
FFFF
FFFF
FFC0
FFC0
ENDCHAR
STARTCHAR U+257F
ENCODING 9599
SWIDTH 2000 0
DWIDTH 16 0
BBX 8 16 4 0
BITMAP
FF00
FF00
FF00
FF00
FF00
FF00
FF00
FF00
3C00
3C00
3C00
3C00
3C00
3C00
3C00
3C00
ENDCHAR
STARTCHAR U+2580
ENCODING 9600
SWIDTH 2000 0
DWIDTH 16 0
BBX 16 8 0 8
BITMAP
FFFF
FFFF
FFFF
FFFF
FFFF
FFFF
FFFF
FFFF
ENDCHAR
STARTCHAR U+2581
ENCODING 9601
SWIDTH 2000 0
DWIDTH 16 0
BBX 16 2 0 0
BITMAP
FFFF
FFFF
ENDCHAR
STARTCHAR U+2582
ENCODING 9602
SWIDTH 2000 0
DWIDTH 16 0
BBX 16 4 0 0
BITMAP
FFFF
FFFF
FFFF
FFFF
ENDCHAR
STARTCHAR U+2583
ENCODING 9603
SWIDTH 2000 0
DWIDTH 16 0
BBX 16 6 0 0
BITMAP
FFFF
FFFF
FFFF
FFFF
FFFF
FFFF
ENDCHAR
STARTCHAR U+2584
ENCODING 9604
SWIDTH 2000 0
DWIDTH 16 0
BBX 16 8 0 0
BITMAP
FFFF
FFFF
FFFF
FFFF
FFFF
FFFF
FFFF
FFFF
ENDCHAR
STARTCHAR U+2585
ENCODING 9605
SWIDTH 2000 0
DWIDTH 16 0
BBX 16 10 0 0
BITMAP
FFFF
FFFF
FFFF
FFFF
FFFF
FFFF
FFFF
FFFF
FFFF
FFFF
ENDCHAR
STARTCHAR U+2586
ENCODING 9606
SWIDTH 2000 0
DWIDTH 16 0
BBX 16 12 0 0
BITMAP
FFFF
FFFF
FFFF
FFFF
FFFF
FFFF
FFFF
FFFF
FFFF
FFFF
FFFF
FFFF
ENDCHAR
STARTCHAR U+2587
ENCODING 9607
SWIDTH 2000 0
DWIDTH 16 0
BBX 16 14 0 0
BITMAP
FFFF
FFFF
FFFF
FFFF
FFFF
FFFF
FFFF
FFFF
FFFF
FFFF
FFFF
FFFF
FFFF
FFFF
ENDCHAR
STARTCHAR U+2588
ENCODING 9608
SWIDTH 2000 0
DWIDTH 16 0
BBX 16 16 0 0
BITMAP
FFFF
FFFF
FFFF
FFFF
FFFF
FFFF
FFFF
FFFF
FFFF
FFFF
FFFF
FFFF
FFFF
FFFF
FFFF
FFFF
ENDCHAR
STARTCHAR U+2589
ENCODING 9609
SWIDTH 2000 0
DWIDTH 16 0
BBX 14 16 0 0
BITMAP
FFFC
FFFC
FFFC
FFFC
FFFC
FFFC
FFFC
FFFC
FFFC
FFFC
FFFC
FFFC
FFFC
FFFC
FFFC
FFFC
ENDCHAR
STARTCHAR U+258A
ENCODING 9610
SWIDTH 2000 0
DWIDTH 16 0
BBX 12 16 0 0
BITMAP
FFF0
FFF0
FFF0
FFF0
FFF0
FFF0
FFF0
FFF0
FFF0
FFF0
FFF0
FFF0
FFF0
FFF0
FFF0
FFF0
ENDCHAR
STARTCHAR U+258B
ENCODING 9611
SWIDTH 2000 0
DWIDTH 16 0
BBX 10 16 0 0
BITMAP
FFC0
FFC0
FFC0
FFC0
FFC0
FFC0
FFC0
FFC0
FFC0
FFC0
FFC0
FFC0
FFC0
FFC0
FFC0
FFC0
ENDCHAR
STARTCHAR U+258C
ENCODING 9612
SWIDTH 2000 0
DWIDTH 16 0
BBX 8 16 0 0
BITMAP
FF00
FF00
FF00
FF00
FF00
FF00
FF00
FF00
FF00
FF00
FF00
FF00
FF00
FF00
FF00
FF00
ENDCHAR
STARTCHAR U+258D
ENCODING 9613
SWIDTH 2000 0
DWIDTH 16 0
BBX 6 16 0 0
BITMAP
FC00
FC00
FC00
FC00
FC00
FC00
FC00
FC00
FC00
FC00
FC00
FC00
FC00
FC00
FC00
FC00
ENDCHAR
STARTCHAR U+258E
ENCODING 9614
SWIDTH 2000 0
DWIDTH 16 0
BBX 4 16 0 0
BITMAP
F000
F000
F000
F000
F000
F000
F000
F000
F000
F000
F000
F000
F000
F000
F000
F000
ENDCHAR
STARTCHAR U+258F
ENCODING 9615
SWIDTH 2000 0
DWIDTH 16 0
BBX 2 16 0 0
BITMAP
C000
C000
C000
C000
C000
C000
C000
C000
C000
C000
C000
C000
C000
C000
C000
C000
ENDCHAR
STARTCHAR U+2590
ENCODING 9616
SWIDTH 2000 0
DWIDTH 16 0
BBX 8 16 8 0
BITMAP
FF00
FF00
FF00
FF00
FF00
FF00
FF00
FF00
FF00
FF00
FF00
FF00
FF00
FF00
FF00
FF00
ENDCHAR
STARTCHAR U+2591
ENCODING 9617
SWIDTH 2000 0
DWIDTH 16 0
BBX 14 16 0 0
BITMAP
0C0C
0C0C
C0C0
C0C0
0C0C
0C0C
C0C0
C0C0
0C0C
0C0C
C0C0
C0C0
0C0C
0C0C
C0C0
C0C0
ENDCHAR
STARTCHAR U+2592
ENCODING 9618
SWIDTH 2000 0
DWIDTH 16 0
BBX 16 16 0 0
BITMAP
CCCC
CCCC
3333
3333
CCCC
CCCC
3333
3333
CCCC
CCCC
3333
3333
CCCC
CCCC
3333
3333
ENDCHAR
STARTCHAR U+2593
ENCODING 9619
SWIDTH 2000 0
DWIDTH 16 0
BBX 16 16 0 0
BITMAP
F3CF
F3CF
3F3F
3F3F
F3CF
F3CF
FCFC
FCFC
F3CF
F3CF
3F3F
3F3F
F3CF
F3CF
FCFC
FCFC
ENDCHAR
STARTCHAR U+2594
ENCODING 9620
SWIDTH 2000 0
DWIDTH 16 0
BBX 16 2 0 14
BITMAP
FFFF
FFFF
ENDCHAR
STARTCHAR U+2595
ENCODING 9621
SWIDTH 2000 0
DWIDTH 16 0
BBX 2 16 14 0
BITMAP
C000
C000
C000
C000
C000
C000
C000
C000
C000
C000
C000
C000
C000
C000
C000
C000
ENDCHAR
STARTCHAR U+2596
ENCODING 9622
SWIDTH 2000 0
DWIDTH 16 0
BBX 8 8 0 0
BITMAP
FF00
FF00
FF00
FF00
FF00
FF00
FF00
FF00
ENDCHAR
STARTCHAR U+2597
ENCODING 9623
SWIDTH 2000 0
DWIDTH 16 0
BBX 8 8 8 0
BITMAP
FF00
FF00
FF00
FF00
FF00
FF00
FF00
FF00
ENDCHAR
STARTCHAR U+2598
ENCODING 9624
SWIDTH 2000 0
DWIDTH 16 0
BBX 8 8 0 8
BITMAP
FF00
FF00
FF00
FF00
FF00
FF00
FF00
FF00
ENDCHAR
STARTCHAR U+2599
ENCODING 9625
SWIDTH 2000 0
DWIDTH 16 0
BBX 16 16 0 0
BITMAP
FF00
FF00
FF00
FF00
FF00
FF00
FF00
FF00
FFFF
FFFF
FFFF
FFFF
FFFF
FFFF
FFFF
FFFF
ENDCHAR
STARTCHAR U+259A
ENCODING 9626
SWIDTH 2000 0
DWIDTH 16 0
BBX 16 16 0 0
BITMAP
FF00
FF00
FF00
FF00
FF00
FF00
FF00
FF00
00FF
00FF
00FF
00FF
00FF
00FF
00FF
00FF
ENDCHAR
STARTCHAR U+259B
ENCODING 9627
SWIDTH 2000 0
DWIDTH 16 0
BBX 16 16 0 0
BITMAP
FFFF
FFFF
FFFF
FFFF
FFFF
FFFF
FFFF
FFFF
FF00
FF00
FF00
FF00
FF00
FF00
FF00
FF00
ENDCHAR
STARTCHAR U+259C
ENCODING 9628
SWIDTH 2000 0
DWIDTH 16 0
BBX 16 16 0 0
BITMAP
FFFF
FFFF
FFFF
FFFF
FFFF
FFFF
FFFF
FFFF
00FF
00FF
00FF
00FF
00FF
00FF
00FF
00FF
ENDCHAR
STARTCHAR U+259D
ENCODING 9629
SWIDTH 2000 0
DWIDTH 16 0
BBX 8 8 8 8
BITMAP
FF00
FF00
FF00
FF00
FF00
FF00
FF00
FF00
ENDCHAR
STARTCHAR U+259E
ENCODING 9630
SWIDTH 2000 0
DWIDTH 16 0
BBX 16 16 0 0
BITMAP
00FF
00FF
00FF
00FF
00FF
00FF
00FF
00FF
FF00
FF00
FF00
FF00
FF00
FF00
FF00
FF00
ENDCHAR
STARTCHAR U+259F
ENCODING 9631
SWIDTH 2000 0
DWIDTH 16 0
BBX 16 16 0 0
BITMAP
00FF
00FF
00FF
00FF
00FF
00FF
00FF
00FF
FFFF
FFFF
FFFF
FFFF
FFFF
FFFF
FFFF
FFFF
ENDCHAR
STARTCHAR U+25A0
ENCODING 9632
SWIDTH 2000 0
DWIDTH 16 0
BBX 12 12 2 2
BITMAP
FFF0
FFF0
FFF0
FFF0
FFF0
FFF0
FFF0
FFF0
FFF0
FFF0
FFF0
FFF0
ENDCHAR
STARTCHAR U+25A1
ENCODING 9633
SWIDTH 2000 0
DWIDTH 16 0
BBX 12 12 2 2
BITMAP
FFF0
FFF0
F0F0
F0F0
F0F0
F0F0
F0F0
F0F0
F0F0
F0F0
FFF0
FFF0
ENDCHAR
STARTCHAR U+25A2
ENCODING 9634
SWIDTH 2000 0
DWIDTH 16 0
BBX 14 14 0 2
BITMAP
3FF0
3FF0
F03C
F03C
F03C
F03C
F03C
F03C
F03C
F03C
F03C
F03C
3FF0
3FF0
ENDCHAR
STARTCHAR U+25A3
ENCODING 9635
SWIDTH 2000 0
DWIDTH 16 0
BBX 14 14 0 2
BITMAP
FFFC
FFFC
C00C
C00C
CFCC
CFCC
CFCC
CFCC
CFCC
CFCC
C00C
C00C
FFFC
FFFC
ENDCHAR
STARTCHAR U+25A4
ENCODING 9636
SWIDTH 2000 0
DWIDTH 16 0
BBX 16 14 0 2
BITMAP
FFFF
FFFF
0000
0000
FFFF
FFFF
0000
0000
FFFF
FFFF
0000
0000
FFFF
FFFF
ENDCHAR
STARTCHAR U+25A5
ENCODING 9637
SWIDTH 2000 0
DWIDTH 16 0
BBX 14 16 0 0
BITMAP
CCCC
CCCC
CCCC
CCCC
CCCC
CCCC
CCCC
CCCC
CCCC
CCCC
CCCC
CCCC
CCCC
CCCC
CCCC
CCCC
ENDCHAR
STARTCHAR U+25A6
ENCODING 9638
SWIDTH 2000 0
DWIDTH 16 0
BBX 16 16 0 0
BITMAP
3030
3030
FFFF
FFFF
3030
3030
3030
3030
3030
3030
FFFF
FFFF
3030
3030
3030
3030
ENDCHAR
STARTCHAR U+25A7
ENCODING 9639
SWIDTH 2000 0
DWIDTH 16 0
BBX 16 16 0 0
BITMAP
C0C0
C0C0
3030
3030
0C0C
0C0C
0303
0303
C0C0
C0C0
3030
3030
0C0C
0C0C
0303
0303
ENDCHAR
STARTCHAR U+25A8
ENCODING 9640
SWIDTH 2000 0
DWIDTH 16 0
BBX 16 16 0 0
BITMAP
0303
0303
0C0C
0C0C
3030
3030
C0C0
C0C0
0303
0303
0C0C
0C0C
3030
3030
C0C0
C0C0
ENDCHAR
STARTCHAR U+25A9
ENCODING 9641
SWIDTH 2000 0
DWIDTH 16 0
BBX 16 16 0 0
BITMAP
CCCC
CCCC
3030
3030
CCCC
CCCC
0303
0303
CCCC
CCCC
3030
3030
CCCC
CCCC
0303
0303
ENDCHAR
STARTCHAR U+25AA
ENCODING 9642
SWIDTH 2000 0
DWIDTH 16 0
BBX 6 6 4 6
BITMAP
FC00
FC00
FC00
FC00
FC00
FC00
ENDCHAR
STARTCHAR U+25AB
ENCODING 9643
SWIDTH 2000 0
DWIDTH 16 0
BBX 6 6 4 6
BITMAP
FC00
FC00
CC00
CC00
FC00
FC00
ENDCHAR
STARTCHAR U+25AC
ENCODING 9644
SWIDTH 2000 0
DWIDTH 16 0
BBX 12 6 2 2
BITMAP
FFF0
FFF0
FFF0
FFF0
FFF0
FFF0
ENDCHAR
STARTCHAR U+25AD
ENCODING 9645
SWIDTH 2000 0
DWIDTH 16 0
BBX 12 6 2 2
BITMAP
FFF0
FFF0
F0F0
F0F0
FFF0
FFF0
ENDCHAR
STARTCHAR U+25AE
ENCODING 9646
SWIDTH 2000 0
DWIDTH 16 0
BBX 8 14 4 2
BITMAP
FF00
FF00
FF00
FF00
FF00
FF00
FF00
FF00
FF00
FF00
FF00
FF00
FF00
FF00
ENDCHAR
STARTCHAR U+25AF
ENCODING 9647
SWIDTH 2000 0
DWIDTH 16 0
BBX 8 14 4 2
BITMAP
FF00
FF00
C300
C300
C300
C300
C300
C300
C300
C300
C300
C300
FF00
FF00
ENDCHAR
STARTCHAR U+25B0
ENCODING 9648
SWIDTH 2000 0
DWIDTH 16 0
BBX 16 6 0 2
BITMAP
0FFF
0FFF
3FFC
3FFC
FFF0
FFF0
ENDCHAR
STARTCHAR U+25B1
ENCODING 9649
SWIDTH 2000 0
DWIDTH 16 0
BBX 16 6 0 2
BITMAP
0FFF
0FFF
3C3C
3C3C
FFF0
FFF0
ENDCHAR
STARTCHAR U+25B2
ENCODING 9650
SWIDTH 2000 0
DWIDTH 16 0
BBX 14 16 0 0
BITMAP
0300
0300
0300
0300
0FC0
0FC0
0FC0
0FC0
3FF0
3FF0
3FF0
3FF0
FFFC
FFFC
FFFC
FFFC
ENDCHAR
STARTCHAR U+25B3
ENCODING 9651
SWIDTH 2000 0
DWIDTH 16 0
BBX 16 16 0 0
BITMAP
03C0
03C0
03C0
03C0
0FF0
0FF0
3C3C
3C3C
3C3C
3C3C
F00F
F00F
F00F
F00F
FFFF
FFFF
ENDCHAR
STARTCHAR U+25B4
ENCODING 9652
SWIDTH 2000 0
DWIDTH 16 0
BBX 10 12 2 2
BITMAP
0C00
0C00
0C00
0C00
3F00
3F00
3F00
3F00
FFC0
FFC0
FFC0
FFC0
ENDCHAR
STARTCHAR U+25B5
ENCODING 9653
SWIDTH 2000 0
DWIDTH 16 0
BBX 14 12 0 2
BITMAP
0300
0300
0CC0
0CC0
3030
3030
C00C
C00C
C00C
C00C
FFFC
FFFC
ENDCHAR
STARTCHAR U+25B6
ENCODING 9654
SWIDTH 2000 0
DWIDTH 16 0
BBX 16 14 0 2
BITMAP
F000
F000
FF00
FF00
FFF0
FFF0
FFFF
FFFF
FFF0
FFF0
FF00
FF00
F000
F000
ENDCHAR
STARTCHAR U+25B7
ENCODING 9655
SWIDTH 2000 0
DWIDTH 16 0
BBX 16 14 0 2
BITMAP
F000
F000
FF00
FF00
F3F0
F3F0
F03F
F03F
F3F0
F3F0
FF00
FF00
F000
F000
ENDCHAR
STARTCHAR U+25B8
ENCODING 9656
SWIDTH 2000 0
DWIDTH 16 0
BBX 12 10 2 4
BITMAP
F000
F000
FF00
FF00
FFF0
FFF0
FF00
FF00
F000
F000
ENDCHAR
STARTCHAR U+25B9
ENCODING 9657
SWIDTH 2000 0
DWIDTH 16 0
BBX 12 10 2 4
BITMAP
F000
F000
CF00
CF00
C0F0
C0F0
CF00
CF00
F000
F000
ENDCHAR
STARTCHAR U+25BA
ENCODING 9658
SWIDTH 2000 0
DWIDTH 16 0
BBX 16 10 0 4
BITMAP
FC00
FC00
FFF0
FFF0
FFFF
FFFF
FFF0
FFF0
FC00
FC00
ENDCHAR
STARTCHAR U+25BB
ENCODING 9659
SWIDTH 2000 0
DWIDTH 16 0
BBX 16 10 0 4
BITMAP
FF00
FF00
F3F0
F3F0
F03F
F03F
F3F0
F3F0
FF00
FF00
ENDCHAR
STARTCHAR U+25BC
ENCODING 9660
SWIDTH 2000 0
DWIDTH 16 0
BBX 14 16 0 0
BITMAP
FFFC
FFFC
FFFC
FFFC
3FF0
3FF0
3FF0
3FF0
0FC0
0FC0
0FC0
0FC0
0300
0300
0300
0300
ENDCHAR
STARTCHAR U+25BD
ENCODING 9661
SWIDTH 2000 0
DWIDTH 16 0
BBX 16 16 0 0
BITMAP
FFFF
FFFF
F00F
F00F
F00F
F00F
3C3C
3C3C
3C3C
3C3C
0FF0
0FF0
03C0
03C0
03C0
03C0
ENDCHAR
STARTCHAR U+25BE
ENCODING 9662
SWIDTH 2000 0
DWIDTH 16 0
BBX 10 12 2 2
BITMAP
FFC0
FFC0
FFC0
FFC0
3F00
3F00
3F00
3F00
0C00
0C00
0C00
0C00
ENDCHAR
STARTCHAR U+25BF
ENCODING 9663
SWIDTH 2000 0
DWIDTH 16 0
BBX 14 12 0 2
BITMAP
FFFC
FFFC
C00C
C00C
C00C
C00C
3030
3030
0CC0
0CC0
0300
0300
ENDCHAR
STARTCHAR U+25C0
ENCODING 9664
SWIDTH 2000 0
DWIDTH 16 0
BBX 16 14 0 2
BITMAP
000F
000F
00FF
00FF
0FFF
0FFF
FFFF
FFFF
0FFF
0FFF
00FF
00FF
000F
000F
ENDCHAR
STARTCHAR U+25C1
ENCODING 9665
SWIDTH 2000 0
DWIDTH 16 0
BBX 16 14 0 2
BITMAP
000F
000F
00FF
00FF
0FCF
0FCF
FC0F
FC0F
0FCF
0FCF
00FF
00FF
000F
000F
ENDCHAR
STARTCHAR U+25C2
ENCODING 9666
SWIDTH 2000 0
DWIDTH 16 0
BBX 12 10 2 4
BITMAP
00F0
00F0
0FF0
0FF0
FFF0
FFF0
0FF0
0FF0
00F0
00F0
ENDCHAR
STARTCHAR U+25C3
ENCODING 9667
SWIDTH 2000 0
DWIDTH 16 0
BBX 12 10 2 4
BITMAP
00F0
00F0
0F30
0F30
F030
F030
0F30
0F30
00F0
00F0
ENDCHAR
STARTCHAR U+25C4
ENCODING 9668
SWIDTH 2000 0
DWIDTH 16 0
BBX 16 10 0 4
BITMAP
003F
003F
0FFF
0FFF
FFFF
FFFF
0FFF
0FFF
003F
003F
ENDCHAR
STARTCHAR U+25C5
ENCODING 9669
SWIDTH 2000 0
DWIDTH 16 0
BBX 16 10 0 4
BITMAP
00FF
00FF
0FCF
0FCF
FC0F
FC0F
0FCF
0FCF
00FF
00FF
ENDCHAR
STARTCHAR U+25C6
ENCODING 9670
SWIDTH 2000 0
DWIDTH 16 0
BBX 16 16 0 0
BITMAP
03C0
03C0
0FF0
0FF0
3FFC
3FFC
FFFF
FFFF
FFFF
FFFF
3FFC
3FFC
0FF0
0FF0
03C0
03C0
ENDCHAR
STARTCHAR U+25C7
ENCODING 9671
SWIDTH 2000 0
DWIDTH 16 0
BBX 16 16 0 0
BITMAP
03C0
03C0
0FF0
0FF0
3C3C
3C3C
F00F
F00F
F00F
F00F
3C3C
3C3C
0FF0
0FF0
03C0
03C0
ENDCHAR
STARTCHAR U+25C8
ENCODING 9672
SWIDTH 2000 0
DWIDTH 16 0
BBX 16 16 0 0
BITMAP
03C0
03C0
0C30
0C30
33CC
33CC
CFF3
CFF3
CFF3
CFF3
33CC
33CC
0C30
0C30
03C0
03C0
ENDCHAR
STARTCHAR U+25C9
ENCODING 9673
SWIDTH 2000 0
DWIDTH 16 0
BBX 16 16 0 0
BITMAP
0FF0
0FF0
3C3C
3C3C
F00F
F00F
F3CF
F3CF
F3CF
F3CF
F00F
F00F
3C3C
3C3C
0FF0
0FF0
ENDCHAR
STARTCHAR U+25CA
ENCODING 9674
SWIDTH 2000 0
DWIDTH 16 0
BBX 14 16 0 0
BITMAP
0300
0300
0FC0
0FC0
3CF0
3CF0
F03C
F03C
F03C
F03C
3CF0
3CF0
0FC0
0FC0
0300
0300
ENDCHAR
STARTCHAR U+25CB
ENCODING 9675
SWIDTH 2000 0
DWIDTH 16 0
BBX 12 12 2 2
BITMAP
3FC0
3FC0
F0F0
F0F0
C030
C030
C030
C030
F0F0
F0F0
3FC0
3FC0
ENDCHAR
STARTCHAR U+25CC
ENCODING 9676
SWIDTH 2000 0
DWIDTH 16 0
BBX 14 14 0 2
BITMAP
0300
0300
3030
3030
0000
0000
C00C
C00C
0000
0000
3030
3030
0300
0300
ENDCHAR
STARTCHAR U+25CD
ENCODING 9677
SWIDTH 2000 0
DWIDTH 16 0
BBX 14 12 0 2
BITMAP
0FC0
0FC0
3CF0
3CF0
CCCC
CCCC
CCCC
CCCC
3CF0
3CF0
0FC0
0FC0
ENDCHAR
STARTCHAR U+25CE
ENCODING 9678
SWIDTH 2000 0
DWIDTH 16 0
BBX 14 14 0 2
BITMAP
0FC0
0FC0
3030
3030
C30C
C30C
CCCC
CCCC
C30C
C30C
3030
3030
0FC0
0FC0
ENDCHAR
STARTCHAR U+25CF
ENCODING 9679
SWIDTH 2000 0
DWIDTH 16 0
BBX 12 12 2 2
BITMAP
3FC0
3FC0
FFF0
FFF0
FFF0
FFF0
FFF0
FFF0
FFF0
FFF0
3FC0
3FC0
ENDCHAR
STARTCHAR U+25D0
ENCODING 9680
SWIDTH 2000 0
DWIDTH 16 0
BBX 16 16 0 0
BITMAP
0FF0
0FF0
3F3C
3F3C
FF0F
FF0F
FF0F
FF0F
FF0F
FF0F
FF0F
FF0F
3F3C
3F3C
0FF0
0FF0
ENDCHAR
STARTCHAR U+25D1
ENCODING 9681
SWIDTH 2000 0
DWIDTH 16 0
BBX 16 16 0 0
BITMAP
0FF0
0FF0
3CFC
3CFC
F0FF
F0FF
F0FF
F0FF
F0FF
F0FF
F0FF
F0FF
3CFC
3CFC
0FF0
0FF0
ENDCHAR
STARTCHAR U+25D2
ENCODING 9682
SWIDTH 2000 0
DWIDTH 16 0
BBX 16 16 0 0
BITMAP
0FF0
0FF0
3C3C
3C3C
F00F
F00F
F00F
F00F
FFFF
FFFF
FFFF
FFFF
3FFC
3FFC
0FF0
0FF0
ENDCHAR
STARTCHAR U+25D3
ENCODING 9683
SWIDTH 2000 0
DWIDTH 16 0
BBX 16 16 0 0
BITMAP
0FF0
0FF0
3FFC
3FFC
FFFF
FFFF
FFFF
FFFF
F00F
F00F
F00F
F00F
3C3C
3C3C
0FF0
0FF0
ENDCHAR
STARTCHAR U+25D4
ENCODING 9684
SWIDTH 2000 0
DWIDTH 16 0
BBX 16 16 0 0
BITMAP
0FF0
0FF0
3CFC
3CFC
F0FF
F0FF
F0FF
F0FF
F00F
F00F
F00F
F00F
3C3C
3C3C
0FF0
0FF0
ENDCHAR
STARTCHAR U+25D5
ENCODING 9685
SWIDTH 2000 0
DWIDTH 16 0
BBX 16 16 0 0
BITMAP
0FF0
0FF0
3CFC
3CFC
F0FF
F0FF
F0FF
F0FF
FFFF
FFFF
FFFF
FFFF
3FFC
3FFC
0FF0
0FF0
ENDCHAR
STARTCHAR U+25D6
ENCODING 9686
SWIDTH 2000 0
DWIDTH 16 0
BBX 12 12 4 2
BITMAP
03F0
03F0
3FF0
3FF0
FFF0
FFF0
FFF0
FFF0
3FF0
3FF0
03F0
03F0
ENDCHAR
STARTCHAR U+25D7
ENCODING 9687
SWIDTH 2000 0
DWIDTH 16 0
BBX 12 12 0 2
BITMAP
FC00
FC00
FFC0
FFC0
FFF0
FFF0
FFF0
FFF0
FFC0
FFC0
FC00
FC00
ENDCHAR
STARTCHAR U+25D8
ENCODING 9688
SWIDTH 2000 0
DWIDTH 16 0
BBX 16 16 0 0
BITMAP
FFFF
FFFF
FFFF
FFFF
FC3F
FC3F
F00F
F00F
F00F
F00F
FC3F
FC3F
FFFF
FFFF
FFFF
FFFF
ENDCHAR
STARTCHAR U+25D9
ENCODING 9689
SWIDTH 2000 0
DWIDTH 16 0
BBX 16 16 0 0
BITMAP
FFFF
FFFF
F00F
F00F
C3C3
C3C3
CFF3
CFF3
CFF3
CFF3
C3C3
C3C3
F00F
F00F
FFFF
FFFF
ENDCHAR
STARTCHAR U+25DA
ENCODING 9690
SWIDTH 2000 0
DWIDTH 16 0
BBX 16 8 0 8
BITMAP
FFFF
FFFF
F00F
F00F
C3C3
C3C3
CFF3
CFF3
ENDCHAR
STARTCHAR U+25DB
ENCODING 9691
SWIDTH 2000 0
DWIDTH 16 0
BBX 16 8 0 0
BITMAP
CFF3
CFF3
C3C3
C3C3
F00F
F00F
FFFF
FFFF
ENDCHAR
STARTCHAR U+25DC
ENCODING 9692
SWIDTH 2000 0
DWIDTH 16 0
BBX 10 8 0 8
BITMAP
0FC0
0FC0
3C00
3C00
F000
F000
F000
F000
ENDCHAR
STARTCHAR U+25DD
ENCODING 9693
SWIDTH 2000 0
DWIDTH 16 0
BBX 10 8 6 8
BITMAP
FC00
FC00
0F00
0F00
03C0
03C0
03C0
03C0
ENDCHAR
STARTCHAR U+25DE
ENCODING 9694
SWIDTH 2000 0
DWIDTH 16 0
BBX 10 8 6 0
BITMAP
03C0
03C0
03C0
03C0
0F00
0F00
FC00
FC00
ENDCHAR
STARTCHAR U+25DF
ENCODING 9695
SWIDTH 2000 0
DWIDTH 16 0
BBX 10 8 0 0
BITMAP
F000
F000
F000
F000
3C00
3C00
0FC0
0FC0
ENDCHAR
STARTCHAR U+25E0
ENCODING 9696
SWIDTH 2000 0
DWIDTH 16 0
BBX 16 8 0 8
BITMAP
0FF0
0FF0
3C3C
3C3C
F00F
F00F
F00F
F00F
ENDCHAR
STARTCHAR U+25E1
ENCODING 9697
SWIDTH 2000 0
DWIDTH 16 0
BBX 16 8 0 0
BITMAP
F00F
F00F
F00F
F00F
3C3C
3C3C
0FF0
0FF0
ENDCHAR
STARTCHAR U+25E2
ENCODING 9698
SWIDTH 2000 0
DWIDTH 16 0
BBX 16 16 0 0
BITMAP
0003
0003
000F
000F
003F
003F
00FF
00FF
03FF
03FF
0FFF
0FFF
3FFF
3FFF
FFFF
FFFF
ENDCHAR
STARTCHAR U+25E3
ENCODING 9699
SWIDTH 2000 0
DWIDTH 16 0
BBX 16 16 0 0
BITMAP
C000
C000
F000
F000
FC00
FC00
FF00
FF00
FFC0
FFC0
FFF0
FFF0
FFFC
FFFC
FFFF
FFFF
ENDCHAR
STARTCHAR U+25E4
ENCODING 9700
SWIDTH 2000 0
DWIDTH 16 0
BBX 16 16 0 0
BITMAP
FFFF
FFFF
FFFC
FFFC
FFF0
FFF0
FFC0
FFC0
FF00
FF00
FC00
FC00
F000
F000
C000
C000
ENDCHAR
STARTCHAR U+25E5
ENCODING 9701
SWIDTH 2000 0
DWIDTH 16 0
BBX 16 16 0 0
BITMAP
FFFF
FFFF
3FFF
3FFF
0FFF
0FFF
03FF
03FF
00FF
00FF
003F
003F
000F
000F
0003
0003
ENDCHAR
STARTCHAR U+25E6
ENCODING 9702
SWIDTH 2000 0
DWIDTH 16 0
BBX 8 8 4 4
BITMAP
3C00
3C00
C300
C300
C300
C300
3C00
3C00
ENDCHAR
STARTCHAR U+25E7
ENCODING 9703
SWIDTH 2000 0
DWIDTH 16 0
BBX 16 16 0 0
BITMAP
FFFF
FFFF
FF0F
FF0F
FF0F
FF0F
FF0F
FF0F
FF0F
FF0F
FF0F
FF0F
FF0F
FF0F
FFFF
FFFF
ENDCHAR
STARTCHAR U+25E8
ENCODING 9704
SWIDTH 2000 0
DWIDTH 16 0
BBX 16 16 0 0
BITMAP
FFFF
FFFF
F0FF
F0FF
F0FF
F0FF
F0FF
F0FF
F0FF
F0FF
F0FF
F0FF
F0FF
F0FF
FFFF
FFFF
ENDCHAR
STARTCHAR U+25E9
ENCODING 9705
SWIDTH 2000 0
DWIDTH 16 0
BBX 16 16 0 0
BITMAP
FFFF
FFFF
FFFF
FFFF
FFFF
FFFF
FFCF
FFCF
FF0F
FF0F
FC0F
FC0F
F00F
F00F
FFFF
FFFF
ENDCHAR
STARTCHAR U+25EA
ENCODING 9706
SWIDTH 2000 0
DWIDTH 16 0
BBX 16 16 0 0
BITMAP
FFFF
FFFF
F00F
F00F
F03F
F03F
F0FF
F0FF
F3FF
F3FF
FFFF
FFFF
FFFF
FFFF
FFFF
FFFF
ENDCHAR
STARTCHAR U+25EB
ENCODING 9707
SWIDTH 2000 0
DWIDTH 16 0
BBX 16 16 0 0
BITMAP
FFFF
FFFF
F3CF
F3CF
F3CF
F3CF
F3CF
F3CF
F3CF
F3CF
F3CF
F3CF
F3CF
F3CF
FFFF
FFFF
ENDCHAR
STARTCHAR U+25EC
ENCODING 9708
SWIDTH 2000 0
DWIDTH 16 0
BBX 16 16 0 0
BITMAP
03C0
03C0
03C0
03C0
0C30
0C30
300C
300C
33CC
33CC
C3C3
C3C3
C003
C003
FFFF
FFFF
ENDCHAR
STARTCHAR U+25ED
ENCODING 9709
SWIDTH 2000 0
DWIDTH 16 0
BBX 16 16 0 0
BITMAP
03C0
03C0
03C0
03C0
0FF0
0FF0
3F3C
3F3C
3F3C
3F3C
FF0F
FF0F
FF0F
FF0F
FFFF
FFFF
ENDCHAR
STARTCHAR U+25EE
ENCODING 9710
SWIDTH 2000 0
DWIDTH 16 0
BBX 16 16 0 0
BITMAP
03C0
03C0
03C0
03C0
0FF0
0FF0
3CFC
3CFC
3CFC
3CFC
F0FF
F0FF
F0FF
F0FF
FFFF
FFFF
ENDCHAR
STARTCHAR U+25EF
ENCODING 9711
SWIDTH 2000 0
DWIDTH 16 0
BBX 16 16 0 0
BITMAP
0FF0
0FF0
3C3C
3C3C
F00F
F00F
F00F
F00F
F00F
F00F
F00F
F00F
3C3C
3C3C
0FF0
0FF0
ENDCHAR
STARTCHAR U+25F0
ENCODING 9712
SWIDTH 2000 0
DWIDTH 16 0
BBX 16 16 0 0
BITMAP
FFFF
FFFF
F3CF
F3CF
F3CF
F3CF
F3CF
F3CF
FFCF
FFCF
F00F
F00F
F00F
F00F
FFFF
FFFF
ENDCHAR
STARTCHAR U+25F1
ENCODING 9713
SWIDTH 2000 0
DWIDTH 16 0
BBX 16 16 0 0
BITMAP
FFFF
FFFF
F00F
F00F
F00F
F00F
F00F
F00F
FFCF
FFCF
F3CF
F3CF
F3CF
F3CF
FFFF
FFFF
ENDCHAR
STARTCHAR U+25F2
ENCODING 9714
SWIDTH 2000 0
DWIDTH 16 0
BBX 16 16 0 0
BITMAP
FFFF
FFFF
F00F
F00F
F00F
F00F
F00F
F00F
F3FF
F3FF
F3CF
F3CF
F3CF
F3CF
FFFF
FFFF
ENDCHAR
STARTCHAR U+25F3
ENCODING 9715
SWIDTH 2000 0
DWIDTH 16 0
BBX 16 16 0 0
BITMAP
FFFF
FFFF
F3CF
F3CF
F3CF
F3CF
F3CF
F3CF
F3FF
F3FF
F00F
F00F
F00F
F00F
FFFF
FFFF
ENDCHAR
STARTCHAR U+25F4
ENCODING 9716
SWIDTH 2000 0
DWIDTH 16 0
BBX 16 16 0 0
BITMAP
0FF0
0FF0
3FFC
3FFC
F3CF
F3CF
F3CF
F3CF
FFCF
FFCF
F00F
F00F
3C3C
3C3C
0FF0
0FF0
ENDCHAR
STARTCHAR U+25F5
ENCODING 9717
SWIDTH 2000 0
DWIDTH 16 0
BBX 16 16 0 0
BITMAP
0FF0
0FF0
3C3C
3C3C
F00F
F00F
FFCF
FFCF
F3CF
F3CF
F3CF
F3CF
3FFC
3FFC
0FF0
0FF0
ENDCHAR
STARTCHAR U+25F6
ENCODING 9718
SWIDTH 2000 0
DWIDTH 16 0
BBX 16 16 0 0
BITMAP
0FF0
0FF0
3C3C
3C3C
F00F
F00F
F3FF
F3FF
F3CF
F3CF
F3CF
F3CF
3FFC
3FFC
0FF0
0FF0
ENDCHAR
STARTCHAR U+25F7
ENCODING 9719
SWIDTH 2000 0
DWIDTH 16 0
BBX 16 16 0 0
BITMAP
0FF0
0FF0
3FFC
3FFC
F3CF
F3CF
F3CF
F3CF
F3FF
F3FF
F00F
F00F
3C3C
3C3C
0FF0
0FF0
ENDCHAR
STARTCHAR U+25F8
ENCODING 9720
SWIDTH 2000 0
DWIDTH 16 0
BBX 16 16 0 0
BITMAP
FFFF
FFFF
F03C
F03C
F0F0
F0F0
F3C0
F3C0
FF00
FF00
FC00
FC00
F000
F000
C000
C000
ENDCHAR
STARTCHAR U+25F9
ENCODING 9721
SWIDTH 2000 0
DWIDTH 16 0
BBX 16 16 0 0
BITMAP
FFFF
FFFF
3C0F
3C0F
0F0F
0F0F
03CF
03CF
00FF
00FF
003F
003F
000F
000F
0003
0003
ENDCHAR
STARTCHAR U+25FA
ENCODING 9722
SWIDTH 2000 0
DWIDTH 16 0
BBX 16 16 0 0
BITMAP
0003
0003
000F
000F
003F
003F
00FF
00FF
03CF
03CF
0F0F
0F0F
3C0F
3C0F
FFFF
FFFF
ENDCHAR
STARTCHAR U+25FB
ENCODING 9723
SWIDTH 2000 0
DWIDTH 16 0
BBX 10 10 2 4
BITMAP
FFC0
FFC0
F3C0
F3C0
F3C0
F3C0
F3C0
F3C0
FFC0
FFC0
ENDCHAR
STARTCHAR U+25FC
ENCODING 9724
SWIDTH 2000 0
DWIDTH 16 0
BBX 10 10 2 4
BITMAP
FFC0
FFC0
FFC0
FFC0
FFC0
FFC0
FFC0
FFC0
FFC0
FFC0
ENDCHAR
STARTCHAR U+25FD
ENCODING 9725
SWIDTH 2000 0
DWIDTH 16 0
BBX 8 8 4 4
BITMAP
FF00
FF00
C300
C300
C300
C300
FF00
FF00
ENDCHAR
STARTCHAR U+25FE
ENCODING 9726
SWIDTH 2000 0
DWIDTH 16 0
BBX 8 8 4 4
BITMAP
FF00
FF00
FF00
FF00
FF00
FF00
FF00
FF00
ENDCHAR
STARTCHAR U+25FF
ENCODING 9727
SWIDTH 2000 0
DWIDTH 16 0
BBX 16 16 0 0
BITMAP
C000
C000
F000
F000
FC00
FC00
FF00
FF00
F3C0
F3C0
F0F0
F0F0
F03C
F03C
FFFF
FFFF
ENDCHAR
STARTCHAR U+2625
ENCODING 9765
SWIDTH 2000 0
DWIDTH 16 0
BBX 14 14 0 2
BITMAP
3FF0
3FF0
F03C
F03C
3CF0
3CF0
0FC0
0FC0
FFFC
FFFC
0FC0
0FC0
0FC0
0FC0
ENDCHAR
STARTCHAR U+2628
ENCODING 9768
SWIDTH 2000 0
DWIDTH 16 0
BBX 12 14 2 2
BITMAP
0F00
0F00
3FC0
3FC0
0F00
0F00
FFF0
FFF0
0F00
0F00
0F00
0F00
0F00
0F00
ENDCHAR
STARTCHAR U+262F
ENCODING 9775
SWIDTH 2000 0
DWIDTH 16 0
BBX 16 12 0 2
BITMAP
3FFC
3FFC
C003
C003
CF03
CF03
FF0F
FF0F
FFFF
FFFF
3FFC
3FFC
ENDCHAR
STARTCHAR U+2630
ENCODING 9776
SWIDTH 2000 0
DWIDTH 16 0
BBX 14 10 0 2
BITMAP
FFFC
FFFC
0000
0000
FFFC
FFFC
0000
0000
FFFC
FFFC
ENDCHAR
STARTCHAR U+2631
ENCODING 9777
SWIDTH 2000 0
DWIDTH 16 0
BBX 14 10 0 2
BITMAP
F03C
F03C
0000
0000
FFFC
FFFC
0000
0000
FFFC
FFFC
ENDCHAR
STARTCHAR U+2632
ENCODING 9778
SWIDTH 2000 0
DWIDTH 16 0
BBX 14 10 0 2
BITMAP
FFFC
FFFC
0000
0000
F03C
F03C
0000
0000
FFFC
FFFC
ENDCHAR
STARTCHAR U+2633
ENCODING 9779
SWIDTH 2000 0
DWIDTH 16 0
BBX 14 10 0 2
BITMAP
F03C
F03C
0000
0000
F03C
F03C
0000
0000
FFFC
FFFC
ENDCHAR
STARTCHAR U+2634
ENCODING 9780
SWIDTH 2000 0
DWIDTH 16 0
BBX 14 10 0 2
BITMAP
FFFC
FFFC
0000
0000
FFFC
FFFC
0000
0000
F03C
F03C
ENDCHAR
STARTCHAR U+2635
ENCODING 9781
SWIDTH 2000 0
DWIDTH 16 0
BBX 14 10 0 2
BITMAP
F03C
F03C
0000
0000
FFFC
FFFC
0000
0000
F03C
F03C
ENDCHAR
STARTCHAR U+2636
ENCODING 9782
SWIDTH 2000 0
DWIDTH 16 0
BBX 14 10 0 2
BITMAP
FFFC
FFFC
0000
0000
F03C
F03C
0000
0000
F03C
F03C
ENDCHAR
STARTCHAR U+2637
ENCODING 9783
SWIDTH 2000 0
DWIDTH 16 0
BBX 14 10 0 2
BITMAP
F03C
F03C
0000
0000
F03C
F03C
0000
0000
F03C
F03C
ENDCHAR
STARTCHAR U+2639
ENCODING 9785
SWIDTH 2000 0
DWIDTH 16 0
BBX 16 16 0 0
BITMAP
3FFC
3FFC
C003
C003
CC33
CC33
C003
C003
C3C3
C3C3
CFF3
CFF3
C003
C003
3FFC
3FFC
ENDCHAR
STARTCHAR U+263A
ENCODING 9786
SWIDTH 2000 0
DWIDTH 16 0
BBX 16 16 0 0
BITMAP
3FFC
3FFC
C003
C003
CC33
CC33
C003
C003
CFF3
CFF3
C3C3
C3C3
C003
C003
3FFC
3FFC
ENDCHAR
STARTCHAR U+263B
ENCODING 9787
SWIDTH 2000 0
DWIDTH 16 0
BBX 16 16 0 0
BITMAP
3FFC
3FFC
FFFF
FFFF
F3CF
F3CF
FFFF
FFFF
F00F
F00F
FC3F
FC3F
FFFF
FFFF
3FFC
3FFC
ENDCHAR
STARTCHAR U+2660
ENCODING 9824
SWIDTH 2000 0
DWIDTH 16 0
BBX 14 14 0 2
BITMAP
0300
0300
0FC0
0FC0
3FF0
3FF0
FFFC
FFFC
FFFC
FFFC
0FC0
0FC0
3FF0
3FF0
ENDCHAR
STARTCHAR U+2661
ENCODING 9825
SWIDTH 2000 0
DWIDTH 16 0
BBX 14 14 0 2
BITMAP
3CF0
3CF0
FFFC
FFFC
F03C
F03C
F03C
F03C
3CF0
3CF0
0FC0
0FC0
0300
0300
ENDCHAR
STARTCHAR U+2662
ENCODING 9826
SWIDTH 2000 0
DWIDTH 16 0
BBX 14 14 0 2
BITMAP
0300
0300
0FC0
0FC0
3CF0
3CF0
F03C
F03C
3CF0
3CF0
0FC0
0FC0
0300
0300
ENDCHAR
STARTCHAR U+2663
ENCODING 9827
SWIDTH 2000 0
DWIDTH 16 0
BBX 12 14 2 2
BITMAP
0F00
0F00
0F00
0F00
F0F0
F0F0
F0F0
F0F0
0F00
0F00
0F00
0F00
3FC0
3FC0
ENDCHAR
STARTCHAR U+2664
ENCODING 9828
SWIDTH 2000 0
DWIDTH 16 0
BBX 14 14 0 2
BITMAP
0300
0300
0FC0
0FC0
3CF0
3CF0
F03C
F03C
FCFC
FCFC
0FC0
0FC0
3FF0
3FF0
ENDCHAR
STARTCHAR U+2665
ENCODING 9829
SWIDTH 2000 0
DWIDTH 16 0
BBX 14 14 0 2
BITMAP
3CF0
3CF0
FFFC
FFFC
FFFC
FFFC
FFFC
FFFC
3FF0
3FF0
0FC0
0FC0
0300
0300
ENDCHAR
STARTCHAR U+2666
ENCODING 9830
SWIDTH 2000 0
DWIDTH 16 0
BBX 14 14 0 2
BITMAP
0300
0300
0FC0
0FC0
3FF0
3FF0
FFFC
FFFC
3FF0
3FF0
0FC0
0FC0
0300
0300
ENDCHAR
STARTCHAR U+2667
ENCODING 9831
SWIDTH 2000 0
DWIDTH 16 0
BBX 14 14 0 2
BITMAP
0FC0
0FC0
0FC0
0FC0
F03C
F03C
F03C
F03C
FCFC
FCFC
0CC0
0CC0
3FF0
3FF0
ENDCHAR
STARTCHAR U+2669
ENCODING 9833
SWIDTH 2000 0
DWIDTH 16 0
BBX 10 16 2 0
BITMAP
03C0
03C0
03C0
03C0
03C0
03C0
03C0
03C0
03C0
03C0
3FC0
3FC0
FFC0
FFC0
3F00
3F00
ENDCHAR
STARTCHAR U+266A
ENCODING 9834
SWIDTH 2000 0
DWIDTH 16 0
BBX 16 16 0 0
BITMAP
03C0
03C0
03F0
03F0
03FC
03FC
03CF
03CF
03C0
03C0
3FC0
3FC0
FFC0
FFC0
3F00
3F00
ENDCHAR
STARTCHAR U+266B
ENCODING 9835
SWIDTH 2000 0
DWIDTH 16 0
BBX 16 16 0 0
BITMAP
3FFF
3FFF
3C0F
3C0F
3C0F
3C0F
3C0F
3C0F
3C0F
3C0F
3C3F
3C3F
FC3C
FC3C
F000
F000
ENDCHAR
STARTCHAR U+266C
ENCODING 9836
SWIDTH 2000 0
DWIDTH 16 0
BBX 16 16 0 0
BITMAP
3FFF
3FFF
3C0F
3C0F
3FFF
3FFF
3C0F
3C0F
3C0F
3C0F
3C3F
3C3F
FC3C
FC3C
F000
F000
ENDCHAR
STARTCHAR U+268A
ENCODING 9866
SWIDTH 2000 0
DWIDTH 16 0
BBX 14 2 0 2
BITMAP
FFFC
FFFC
ENDCHAR
STARTCHAR U+268B
ENCODING 9867
SWIDTH 2000 0
DWIDTH 16 0
BBX 14 2 0 2
BITMAP
F03C
F03C
ENDCHAR
STARTCHAR U+268C
ENCODING 9868
SWIDTH 2000 0
DWIDTH 16 0
BBX 14 6 0 2
BITMAP
FFFC
FFFC
0000
0000
FFFC
FFFC
ENDCHAR
STARTCHAR U+268D
ENCODING 9869
SWIDTH 2000 0
DWIDTH 16 0
BBX 14 6 0 2
BITMAP
F03C
F03C
0000
0000
FFFC
FFFC
ENDCHAR
STARTCHAR U+268E
ENCODING 9870
SWIDTH 2000 0
DWIDTH 16 0
BBX 14 6 0 2
BITMAP
FFFC
FFFC
0000
0000
F03C
F03C
ENDCHAR
STARTCHAR U+268F
ENCODING 9871
SWIDTH 2000 0
DWIDTH 16 0
BBX 14 6 0 2
BITMAP
F03C
F03C
0000
0000
F03C
F03C
ENDCHAR
STARTCHAR U+26AA
ENCODING 9898
SWIDTH 2000 0
DWIDTH 16 0
BBX 12 10 2 2
BITMAP
3FC0
3FC0
C030
C030
C030
C030
C030
C030
3FC0
3FC0
ENDCHAR
STARTCHAR U+26AB
ENCODING 9899
SWIDTH 2000 0
DWIDTH 16 0
BBX 12 10 2 2
BITMAP
3FC0
3FC0
FFF0
FFF0
FFF0
FFF0
FFF0
FFF0
3FC0
3FC0
ENDCHAR
STARTCHAR U+26AC
ENCODING 9900
SWIDTH 2000 0
DWIDTH 16 0
BBX 10 10 2 4
BITMAP
3F00
3F00
FFC0
FFC0
F3C0
F3C0
FFC0
FFC0
3F00
3F00
ENDCHAR
STARTCHAR U+2708
ENCODING 9992
SWIDTH 2000 0
DWIDTH 16 0
BBX 16 16 0 0
BITMAP
0F00
0F00
0FC0
0FC0
C3F0
C3F0
FFFF
FFFF
FFFF
FFFF
C3F0
C3F0
0FC0
0FC0
0F00
0F00
ENDCHAR
STARTCHAR U+2734
ENCODING 10036
SWIDTH 2000 0
DWIDTH 16 0
BBX 14 14 0 2
BITMAP
C30C
C30C
3330
3330
0FC0
0FC0
FFFC
FFFC
0FC0
0FC0
3330
3330
C30C
C30C
ENDCHAR
STARTCHAR U+2800
ENCODING 10240
SWIDTH 2000 0
DWIDTH 16 0
BBX 2 2 14 0
BITMAP
0000
0000
ENDCHAR
STARTCHAR U+2801
ENCODING 10241
SWIDTH 2000 0
DWIDTH 16 0
BBX 8 4 0 12
BITMAP
FF00
FF00
FF00
FF00
ENDCHAR
STARTCHAR U+2802
ENCODING 10242
SWIDTH 2000 0
DWIDTH 16 0
BBX 8 4 0 8
BITMAP
FF00
FF00
FF00
FF00
ENDCHAR
STARTCHAR U+2803
ENCODING 10243
SWIDTH 2000 0
DWIDTH 16 0
BBX 8 8 0 8
BITMAP
FF00
FF00
FF00
FF00
FF00
FF00
FF00
FF00
ENDCHAR
STARTCHAR U+2804
ENCODING 10244
SWIDTH 2000 0
DWIDTH 16 0
BBX 8 4 0 4
BITMAP
FF00
FF00
FF00
FF00
ENDCHAR
STARTCHAR U+2805
ENCODING 10245
SWIDTH 2000 0
DWIDTH 16 0
BBX 8 12 0 4
BITMAP
FF00
FF00
FF00
FF00
0000
0000
0000
0000
FF00
FF00
FF00
FF00
ENDCHAR
STARTCHAR U+2806
ENCODING 10246
SWIDTH 2000 0
DWIDTH 16 0
BBX 8 8 0 4
BITMAP
FF00
FF00
FF00
FF00
FF00
FF00
FF00
FF00
ENDCHAR
STARTCHAR U+2807
ENCODING 10247
SWIDTH 2000 0
DWIDTH 16 0
BBX 8 12 0 4
BITMAP
FF00
FF00
FF00
FF00
FF00
FF00
FF00
FF00
FF00
FF00
FF00
FF00
ENDCHAR
STARTCHAR U+2808
ENCODING 10248
SWIDTH 2000 0
DWIDTH 16 0
BBX 8 4 8 12
BITMAP
FF00
FF00
FF00
FF00
ENDCHAR
STARTCHAR U+2809
ENCODING 10249
SWIDTH 2000 0
DWIDTH 16 0
BBX 16 4 0 12
BITMAP
FFFF
FFFF
FFFF
FFFF
ENDCHAR
STARTCHAR U+280A
ENCODING 10250
SWIDTH 2000 0
DWIDTH 16 0
BBX 16 8 0 8
BITMAP
00FF
00FF
00FF
00FF
FF00
FF00
FF00
FF00
ENDCHAR
STARTCHAR U+280B
ENCODING 10251
SWIDTH 2000 0
DWIDTH 16 0
BBX 16 8 0 8
BITMAP
FFFF
FFFF
FFFF
FFFF
FF00
FF00
FF00
FF00
ENDCHAR
STARTCHAR U+280C
ENCODING 10252
SWIDTH 2000 0
DWIDTH 16 0
BBX 16 12 0 4
BITMAP
00FF
00FF
00FF
00FF
0000
0000
0000
0000
FF00
FF00
FF00
FF00
ENDCHAR
STARTCHAR U+280D
ENCODING 10253
SWIDTH 2000 0
DWIDTH 16 0
BBX 16 12 0 4
BITMAP
FFFF
FFFF
FFFF
FFFF
0000
0000
0000
0000
FF00
FF00
FF00
FF00
ENDCHAR
STARTCHAR U+280E
ENCODING 10254
SWIDTH 2000 0
DWIDTH 16 0
BBX 16 12 0 4
BITMAP
00FF
00FF
00FF
00FF
FF00
FF00
FF00
FF00
FF00
FF00
FF00
FF00
ENDCHAR
STARTCHAR U+280F
ENCODING 10255
SWIDTH 2000 0
DWIDTH 16 0
BBX 16 12 0 4
BITMAP
FFFF
FFFF
FFFF
FFFF
FF00
FF00
FF00
FF00
FF00
FF00
FF00
FF00
ENDCHAR
STARTCHAR U+2810
ENCODING 10256
SWIDTH 2000 0
DWIDTH 16 0
BBX 8 4 8 8
BITMAP
FF00
FF00
FF00
FF00
ENDCHAR
STARTCHAR U+2811
ENCODING 10257
SWIDTH 2000 0
DWIDTH 16 0
BBX 16 8 0 8
BITMAP
FF00
FF00
FF00
FF00
00FF
00FF
00FF
00FF
ENDCHAR
STARTCHAR U+2812
ENCODING 10258
SWIDTH 2000 0
DWIDTH 16 0
BBX 16 4 0 8
BITMAP
FFFF
FFFF
FFFF
FFFF
ENDCHAR
STARTCHAR U+2813
ENCODING 10259
SWIDTH 2000 0
DWIDTH 16 0
BBX 16 8 0 8
BITMAP
FF00
FF00
FF00
FF00
FFFF
FFFF
FFFF
FFFF
ENDCHAR
STARTCHAR U+2814
ENCODING 10260
SWIDTH 2000 0
DWIDTH 16 0
BBX 16 8 0 4
BITMAP
00FF
00FF
00FF
00FF
FF00
FF00
FF00
FF00
ENDCHAR
STARTCHAR U+2815
ENCODING 10261
SWIDTH 2000 0
DWIDTH 16 0
BBX 16 12 0 4
BITMAP
FF00
FF00
FF00
FF00
00FF
00FF
00FF
00FF
FF00
FF00
FF00
FF00
ENDCHAR
STARTCHAR U+2816
ENCODING 10262
SWIDTH 2000 0
DWIDTH 16 0
BBX 16 8 0 4
BITMAP
FFFF
FFFF
FFFF
FFFF
FF00
FF00
FF00
FF00
ENDCHAR
STARTCHAR U+2817
ENCODING 10263
SWIDTH 2000 0
DWIDTH 16 0
BBX 16 12 0 4
BITMAP
FF00
FF00
FF00
FF00
FFFF
FFFF
FFFF
FFFF
FF00
FF00
FF00
FF00
ENDCHAR
STARTCHAR U+2818
ENCODING 10264
SWIDTH 2000 0
DWIDTH 16 0
BBX 8 8 8 8
BITMAP
FF00
FF00
FF00
FF00
FF00
FF00
FF00
FF00
ENDCHAR
STARTCHAR U+2819
ENCODING 10265
SWIDTH 2000 0
DWIDTH 16 0
BBX 16 8 0 8
BITMAP
FFFF
FFFF
FFFF
FFFF
00FF
00FF
00FF
00FF
ENDCHAR
STARTCHAR U+281A
ENCODING 10266
SWIDTH 2000 0
DWIDTH 16 0
BBX 16 8 0 8
BITMAP
00FF
00FF
00FF
00FF
FFFF
FFFF
FFFF
FFFF
ENDCHAR
STARTCHAR U+281B
ENCODING 10267
SWIDTH 2000 0
DWIDTH 16 0
BBX 16 8 0 8
BITMAP
FFFF
FFFF
FFFF
FFFF
FFFF
FFFF
FFFF
FFFF
ENDCHAR
STARTCHAR U+281C
ENCODING 10268
SWIDTH 2000 0
DWIDTH 16 0
BBX 16 12 0 4
BITMAP
00FF
00FF
00FF
00FF
00FF
00FF
00FF
00FF
FF00
FF00
FF00
FF00
ENDCHAR
STARTCHAR U+281D
ENCODING 10269
SWIDTH 2000 0
DWIDTH 16 0
BBX 16 12 0 4
BITMAP
FFFF
FFFF
FFFF
FFFF
00FF
00FF
00FF
00FF
FF00
FF00
FF00
FF00
ENDCHAR
STARTCHAR U+281E
ENCODING 10270
SWIDTH 2000 0
DWIDTH 16 0
BBX 16 12 0 4
BITMAP
00FF
00FF
00FF
00FF
FFFF
FFFF
FFFF
FFFF
FF00
FF00
FF00
FF00
ENDCHAR
STARTCHAR U+281F
ENCODING 10271
SWIDTH 2000 0
DWIDTH 16 0
BBX 16 12 0 4
BITMAP
FFFF
FFFF
FFFF
FFFF
FFFF
FFFF
FFFF
FFFF
FF00
FF00
FF00
FF00
ENDCHAR
STARTCHAR U+2820
ENCODING 10272
SWIDTH 2000 0
DWIDTH 16 0
BBX 8 4 8 4
BITMAP
FF00
FF00
FF00
FF00
ENDCHAR
STARTCHAR U+2821
ENCODING 10273
SWIDTH 2000 0
DWIDTH 16 0
BBX 16 12 0 4
BITMAP
FF00
FF00
FF00
FF00
0000
0000
0000
0000
00FF
00FF
00FF
00FF
ENDCHAR
STARTCHAR U+2822
ENCODING 10274
SWIDTH 2000 0
DWIDTH 16 0
BBX 16 8 0 4
BITMAP
FF00
FF00
FF00
FF00
00FF
00FF
00FF
00FF
ENDCHAR
STARTCHAR U+2823
ENCODING 10275
SWIDTH 2000 0
DWIDTH 16 0
BBX 16 12 0 4
BITMAP
FF00
FF00
FF00
FF00
FF00
FF00
FF00
FF00
00FF
00FF
00FF
00FF
ENDCHAR
STARTCHAR U+2824
ENCODING 10276
SWIDTH 2000 0
DWIDTH 16 0
BBX 16 4 0 4
BITMAP
FFFF
FFFF
FFFF
FFFF
ENDCHAR
STARTCHAR U+2825
ENCODING 10277
SWIDTH 2000 0
DWIDTH 16 0
BBX 16 12 0 4
BITMAP
FF00
FF00
FF00
FF00
0000
0000
0000
0000
FFFF
FFFF
FFFF
FFFF
ENDCHAR
STARTCHAR U+2826
ENCODING 10278
SWIDTH 2000 0
DWIDTH 16 0
BBX 16 8 0 4
BITMAP
FF00
FF00
FF00
FF00
FFFF
FFFF
FFFF
FFFF
ENDCHAR
STARTCHAR U+2827
ENCODING 10279
SWIDTH 2000 0
DWIDTH 16 0
BBX 16 12 0 4
BITMAP
FF00
FF00
FF00
FF00
FF00
FF00
FF00
FF00
FFFF
FFFF
FFFF
FFFF
ENDCHAR
STARTCHAR U+2828
ENCODING 10280
SWIDTH 2000 0
DWIDTH 16 0
BBX 8 12 8 4
BITMAP
FF00
FF00
FF00
FF00
0000
0000
0000
0000
FF00
FF00
FF00
FF00
ENDCHAR
STARTCHAR U+2829
ENCODING 10281
SWIDTH 2000 0
DWIDTH 16 0
BBX 16 12 0 4
BITMAP
FFFF
FFFF
FFFF
FFFF
0000
0000
0000
0000
00FF
00FF
00FF
00FF
ENDCHAR
STARTCHAR U+282A
ENCODING 10282
SWIDTH 2000 0
DWIDTH 16 0
BBX 16 12 0 4
BITMAP
00FF
00FF
00FF
00FF
FF00
FF00
FF00
FF00
00FF
00FF
00FF
00FF
ENDCHAR
STARTCHAR U+282B
ENCODING 10283
SWIDTH 2000 0
DWIDTH 16 0
BBX 16 12 0 4
BITMAP
FFFF
FFFF
FFFF
FFFF
FF00
FF00
FF00
FF00
00FF
00FF
00FF
00FF
ENDCHAR
STARTCHAR U+282C
ENCODING 10284
SWIDTH 2000 0
DWIDTH 16 0
BBX 16 12 0 4
BITMAP
00FF
00FF
00FF
00FF
0000
0000
0000
0000
FFFF
FFFF
FFFF
FFFF
ENDCHAR
STARTCHAR U+282D
ENCODING 10285
SWIDTH 2000 0
DWIDTH 16 0
BBX 16 12 0 4
BITMAP
FFFF
FFFF
FFFF
FFFF
0000
0000
0000
0000
FFFF
FFFF
FFFF
FFFF
ENDCHAR
STARTCHAR U+282E
ENCODING 10286
SWIDTH 2000 0
DWIDTH 16 0
BBX 16 12 0 4
BITMAP
00FF
00FF
00FF
00FF
FF00
FF00
FF00
FF00
FFFF
FFFF
FFFF
FFFF
ENDCHAR
STARTCHAR U+282F
ENCODING 10287
SWIDTH 2000 0
DWIDTH 16 0
BBX 16 12 0 4
BITMAP
FFFF
FFFF
FFFF
FFFF
FF00
FF00
FF00
FF00
FFFF
FFFF
FFFF
FFFF
ENDCHAR
STARTCHAR U+2830
ENCODING 10288
SWIDTH 2000 0
DWIDTH 16 0
BBX 8 8 8 4
BITMAP
FF00
FF00
FF00
FF00
FF00
FF00
FF00
FF00
ENDCHAR
STARTCHAR U+2831
ENCODING 10289
SWIDTH 2000 0
DWIDTH 16 0
BBX 16 12 0 4
BITMAP
FF00
FF00
FF00
FF00
00FF
00FF
00FF
00FF
00FF
00FF
00FF
00FF
ENDCHAR
STARTCHAR U+2832
ENCODING 10290
SWIDTH 2000 0
DWIDTH 16 0
BBX 16 8 0 4
BITMAP
FFFF
FFFF
FFFF
FFFF
00FF
00FF
00FF
00FF
ENDCHAR
STARTCHAR U+2833
ENCODING 10291
SWIDTH 2000 0
DWIDTH 16 0
BBX 16 12 0 4
BITMAP
FF00
FF00
FF00
FF00
FFFF
FFFF
FFFF
FFFF
00FF
00FF
00FF
00FF
ENDCHAR
STARTCHAR U+2834
ENCODING 10292
SWIDTH 2000 0
DWIDTH 16 0
BBX 16 8 0 4
BITMAP
00FF
00FF
00FF
00FF
FFFF
FFFF
FFFF
FFFF
ENDCHAR
STARTCHAR U+2835
ENCODING 10293
SWIDTH 2000 0
DWIDTH 16 0
BBX 16 12 0 4
BITMAP
FF00
FF00
FF00
FF00
00FF
00FF
00FF
00FF
FFFF
FFFF
FFFF
FFFF
ENDCHAR
STARTCHAR U+2836
ENCODING 10294
SWIDTH 2000 0
DWIDTH 16 0
BBX 16 8 0 4
BITMAP
FFFF
FFFF
FFFF
FFFF
FFFF
FFFF
FFFF
FFFF
ENDCHAR
STARTCHAR U+2837
ENCODING 10295
SWIDTH 2000 0
DWIDTH 16 0
BBX 16 12 0 4
BITMAP
FF00
FF00
FF00
FF00
FFFF
FFFF
FFFF
FFFF
FFFF
FFFF
FFFF
FFFF
ENDCHAR
STARTCHAR U+2838
ENCODING 10296
SWIDTH 2000 0
DWIDTH 16 0
BBX 8 12 8 4
BITMAP
FF00
FF00
FF00
FF00
FF00
FF00
FF00
FF00
FF00
FF00
FF00
FF00
ENDCHAR
STARTCHAR U+2839
ENCODING 10297
SWIDTH 2000 0
DWIDTH 16 0
BBX 16 12 0 4
BITMAP
FFFF
FFFF
FFFF
FFFF
00FF
00FF
00FF
00FF
00FF
00FF
00FF
00FF
ENDCHAR
STARTCHAR U+283A
ENCODING 10298
SWIDTH 2000 0
DWIDTH 16 0
BBX 16 12 0 4
BITMAP
00FF
00FF
00FF
00FF
FFFF
FFFF
FFFF
FFFF
00FF
00FF
00FF
00FF
ENDCHAR
STARTCHAR U+283B
ENCODING 10299
SWIDTH 2000 0
DWIDTH 16 0
BBX 16 12 0 4
BITMAP
FFFF
FFFF
FFFF
FFFF
FFFF
FFFF
FFFF
FFFF
00FF
00FF
00FF
00FF
ENDCHAR
STARTCHAR U+283C
ENCODING 10300
SWIDTH 2000 0
DWIDTH 16 0
BBX 16 12 0 4
BITMAP
00FF
00FF
00FF
00FF
00FF
00FF
00FF
00FF
FFFF
FFFF
FFFF
FFFF
ENDCHAR
STARTCHAR U+283D
ENCODING 10301
SWIDTH 2000 0
DWIDTH 16 0
BBX 16 12 0 4
BITMAP
FFFF
FFFF
FFFF
FFFF
00FF
00FF
00FF
00FF
FFFF
FFFF
FFFF
FFFF
ENDCHAR
STARTCHAR U+283E
ENCODING 10302
SWIDTH 2000 0
DWIDTH 16 0
BBX 16 12 0 4
BITMAP
00FF
00FF
00FF
00FF
FFFF
FFFF
FFFF
FFFF
FFFF
FFFF
FFFF
FFFF
ENDCHAR
STARTCHAR U+283F
ENCODING 10303
SWIDTH 2000 0
DWIDTH 16 0
BBX 16 12 0 4
BITMAP
FFFF
FFFF
FFFF
FFFF
FFFF
FFFF
FFFF
FFFF
FFFF
FFFF
FFFF
FFFF
ENDCHAR
STARTCHAR U+2840
ENCODING 10304
SWIDTH 2000 0
DWIDTH 16 0
BBX 8 4 0 0
BITMAP
FF00
FF00
FF00
FF00
ENDCHAR
STARTCHAR U+2841
ENCODING 10305
SWIDTH 2000 0
DWIDTH 16 0
BBX 8 16 0 0
BITMAP
FF00
FF00
FF00
FF00
0000
0000
0000
0000
0000
0000
0000
0000
FF00
FF00
FF00
FF00
ENDCHAR
STARTCHAR U+2842
ENCODING 10306
SWIDTH 2000 0
DWIDTH 16 0
BBX 8 12 0 0
BITMAP
FF00
FF00
FF00
FF00
0000
0000
0000
0000
FF00
FF00
FF00
FF00
ENDCHAR
STARTCHAR U+2843
ENCODING 10307
SWIDTH 2000 0
DWIDTH 16 0
BBX 8 16 0 0
BITMAP
FF00
FF00
FF00
FF00
FF00
FF00
FF00
FF00
0000
0000
0000
0000
FF00
FF00
FF00
FF00
ENDCHAR
STARTCHAR U+2844
ENCODING 10308
SWIDTH 2000 0
DWIDTH 16 0
BBX 8 8 0 0
BITMAP
FF00
FF00
FF00
FF00
FF00
FF00
FF00
FF00
ENDCHAR
STARTCHAR U+2845
ENCODING 10309
SWIDTH 2000 0
DWIDTH 16 0
BBX 8 16 0 0
BITMAP
FF00
FF00
FF00
FF00
0000
0000
0000
0000
FF00
FF00
FF00
FF00
FF00
FF00
FF00
FF00
ENDCHAR
STARTCHAR U+2846
ENCODING 10310
SWIDTH 2000 0
DWIDTH 16 0
BBX 8 12 0 0
BITMAP
FF00
FF00
FF00
FF00
FF00
FF00
FF00
FF00
FF00
FF00
FF00
FF00
ENDCHAR
STARTCHAR U+2847
ENCODING 10311
SWIDTH 2000 0
DWIDTH 16 0
BBX 8 16 0 0
BITMAP
FF00
FF00
FF00
FF00
FF00
FF00
FF00
FF00
FF00
FF00
FF00
FF00
FF00
FF00
FF00
FF00
ENDCHAR
STARTCHAR U+2848
ENCODING 10312
SWIDTH 2000 0
DWIDTH 16 0
BBX 16 16 0 0
BITMAP
00FF
00FF
00FF
00FF
0000
0000
0000
0000
0000
0000
0000
0000
FF00
FF00
FF00
FF00
ENDCHAR
STARTCHAR U+2849
ENCODING 10313
SWIDTH 2000 0
DWIDTH 16 0
BBX 16 16 0 0
BITMAP
FFFF
FFFF
FFFF
FFFF
0000
0000
0000
0000
0000
0000
0000
0000
FF00
FF00
FF00
FF00
ENDCHAR
STARTCHAR U+284A
ENCODING 10314
SWIDTH 2000 0
DWIDTH 16 0
BBX 16 16 0 0
BITMAP
00FF
00FF
00FF
00FF
FF00
FF00
FF00
FF00
0000
0000
0000
0000
FF00
FF00
FF00
FF00
ENDCHAR
STARTCHAR U+284B
ENCODING 10315
SWIDTH 2000 0
DWIDTH 16 0
BBX 16 16 0 0
BITMAP
FFFF
FFFF
FFFF
FFFF
FF00
FF00
FF00
FF00
0000
0000
0000
0000
FF00
FF00
FF00
FF00
ENDCHAR
STARTCHAR U+284C
ENCODING 10316
SWIDTH 2000 0
DWIDTH 16 0
BBX 16 16 0 0
BITMAP
00FF
00FF
00FF
00FF
0000
0000
0000
0000
FF00
FF00
FF00
FF00
FF00
FF00
FF00
FF00
ENDCHAR
STARTCHAR U+284D
ENCODING 10317
SWIDTH 2000 0
DWIDTH 16 0
BBX 16 16 0 0
BITMAP
FFFF
FFFF
FFFF
FFFF
0000
0000
0000
0000
FF00
FF00
FF00
FF00
FF00
FF00
FF00
FF00
ENDCHAR
STARTCHAR U+284E
ENCODING 10318
SWIDTH 2000 0
DWIDTH 16 0
BBX 16 16 0 0
BITMAP
00FF
00FF
00FF
00FF
FF00
FF00
FF00
FF00
FF00
FF00
FF00
FF00
FF00
FF00
FF00
FF00
ENDCHAR
STARTCHAR U+284F
ENCODING 10319
SWIDTH 2000 0
DWIDTH 16 0
BBX 16 16 0 0
BITMAP
FFFF
FFFF
FFFF
FFFF
FF00
FF00
FF00
FF00
FF00
FF00
FF00
FF00
FF00
FF00
FF00
FF00
ENDCHAR
STARTCHAR U+2850
ENCODING 10320
SWIDTH 2000 0
DWIDTH 16 0
BBX 16 12 0 0
BITMAP
00FF
00FF
00FF
00FF
0000
0000
0000
0000
FF00
FF00
FF00
FF00
ENDCHAR
STARTCHAR U+2851
ENCODING 10321
SWIDTH 2000 0
DWIDTH 16 0
BBX 16 16 0 0
BITMAP
FF00
FF00
FF00
FF00
00FF
00FF
00FF
00FF
0000
0000
0000
0000
FF00
FF00
FF00
FF00
ENDCHAR
STARTCHAR U+2852
ENCODING 10322
SWIDTH 2000 0
DWIDTH 16 0
BBX 16 12 0 0
BITMAP
FFFF
FFFF
FFFF
FFFF
0000
0000
0000
0000
FF00
FF00
FF00
FF00
ENDCHAR
STARTCHAR U+2853
ENCODING 10323
SWIDTH 2000 0
DWIDTH 16 0
BBX 16 16 0 0
BITMAP
FF00
FF00
FF00
FF00
FFFF
FFFF
FFFF
FFFF
0000
0000
0000
0000
FF00
FF00
FF00
FF00
ENDCHAR
STARTCHAR U+2854
ENCODING 10324
SWIDTH 2000 0
DWIDTH 16 0
BBX 16 12 0 0
BITMAP
00FF
00FF
00FF
00FF
FF00
FF00
FF00
FF00
FF00
FF00
FF00
FF00
ENDCHAR
STARTCHAR U+2855
ENCODING 10325
SWIDTH 2000 0
DWIDTH 16 0
BBX 16 16 0 0
BITMAP
FF00
FF00
FF00
FF00
00FF
00FF
00FF
00FF
FF00
FF00
FF00
FF00
FF00
FF00
FF00
FF00
ENDCHAR
STARTCHAR U+2856
ENCODING 10326
SWIDTH 2000 0
DWIDTH 16 0
BBX 16 12 0 0
BITMAP
FFFF
FFFF
FFFF
FFFF
FF00
FF00
FF00
FF00
FF00
FF00
FF00
FF00
ENDCHAR
STARTCHAR U+2857
ENCODING 10327
SWIDTH 2000 0
DWIDTH 16 0
BBX 16 16 0 0
BITMAP
FF00
FF00
FF00
FF00
FFFF
FFFF
FFFF
FFFF
FF00
FF00
FF00
FF00
FF00
FF00
FF00
FF00
ENDCHAR
STARTCHAR U+2858
ENCODING 10328
SWIDTH 2000 0
DWIDTH 16 0
BBX 16 16 0 0
BITMAP
00FF
00FF
00FF
00FF
00FF
00FF
00FF
00FF
0000
0000
0000
0000
FF00
FF00
FF00
FF00
ENDCHAR
STARTCHAR U+2859
ENCODING 10329
SWIDTH 2000 0
DWIDTH 16 0
BBX 16 16 0 0
BITMAP
FFFF
FFFF
FFFF
FFFF
00FF
00FF
00FF
00FF
0000
0000
0000
0000
FF00
FF00
FF00
FF00
ENDCHAR
STARTCHAR U+285A
ENCODING 10330
SWIDTH 2000 0
DWIDTH 16 0
BBX 16 16 0 0
BITMAP
00FF
00FF
00FF
00FF
FFFF
FFFF
FFFF
FFFF
0000
0000
0000
0000
FF00
FF00
FF00
FF00
ENDCHAR
STARTCHAR U+285B
ENCODING 10331
SWIDTH 2000 0
DWIDTH 16 0
BBX 16 16 0 0
BITMAP
FFFF
FFFF
FFFF
FFFF
FFFF
FFFF
FFFF
FFFF
0000
0000
0000
0000
FF00
FF00
FF00
FF00
ENDCHAR
STARTCHAR U+285C
ENCODING 10332
SWIDTH 2000 0
DWIDTH 16 0
BBX 16 16 0 0
BITMAP
00FF
00FF
00FF
00FF
00FF
00FF
00FF
00FF
FF00
FF00
FF00
FF00
FF00
FF00
FF00
FF00
ENDCHAR
STARTCHAR U+285D
ENCODING 10333
SWIDTH 2000 0
DWIDTH 16 0
BBX 16 16 0 0
BITMAP
FFFF
FFFF
FFFF
FFFF
00FF
00FF
00FF
00FF
FF00
FF00
FF00
FF00
FF00
FF00
FF00
FF00
ENDCHAR
STARTCHAR U+285E
ENCODING 10334
SWIDTH 2000 0
DWIDTH 16 0
BBX 16 16 0 0
BITMAP
00FF
00FF
00FF
00FF
FFFF
FFFF
FFFF
FFFF
FF00
FF00
FF00
FF00
FF00
FF00
FF00
FF00
ENDCHAR
STARTCHAR U+285F
ENCODING 10335
SWIDTH 2000 0
DWIDTH 16 0
BBX 16 16 0 0
BITMAP
FFFF
FFFF
FFFF
FFFF
FFFF
FFFF
FFFF
FFFF
FF00
FF00
FF00
FF00
FF00
FF00
FF00
FF00
ENDCHAR
STARTCHAR U+2860
ENCODING 10336
SWIDTH 2000 0
DWIDTH 16 0
BBX 16 8 0 0
BITMAP
00FF
00FF
00FF
00FF
FF00
FF00
FF00
FF00
ENDCHAR
STARTCHAR U+2861
ENCODING 10337
SWIDTH 2000 0
DWIDTH 16 0
BBX 16 16 0 0
BITMAP
FF00
FF00
FF00
FF00
0000
0000
0000
0000
00FF
00FF
00FF
00FF
FF00
FF00
FF00
FF00
ENDCHAR
STARTCHAR U+2862
ENCODING 10338
SWIDTH 2000 0
DWIDTH 16 0
BBX 16 12 0 0
BITMAP
FF00
FF00
FF00
FF00
00FF
00FF
00FF
00FF
FF00
FF00
FF00
FF00
ENDCHAR
STARTCHAR U+2863
ENCODING 10339
SWIDTH 2000 0
DWIDTH 16 0
BBX 16 16 0 0
BITMAP
FF00
FF00
FF00
FF00
FF00
FF00
FF00
FF00
00FF
00FF
00FF
00FF
FF00
FF00
FF00
FF00
ENDCHAR
STARTCHAR U+2864
ENCODING 10340
SWIDTH 2000 0
DWIDTH 16 0
BBX 16 8 0 0
BITMAP
FFFF
FFFF
FFFF
FFFF
FF00
FF00
FF00
FF00
ENDCHAR
STARTCHAR U+2865
ENCODING 10341
SWIDTH 2000 0
DWIDTH 16 0
BBX 16 16 0 0
BITMAP
FF00
FF00
FF00
FF00
0000
0000
0000
0000
FFFF
FFFF
FFFF
FFFF
FF00
FF00
FF00
FF00
ENDCHAR
STARTCHAR U+2866
ENCODING 10342
SWIDTH 2000 0
DWIDTH 16 0
BBX 16 12 0 0
BITMAP
FF00
FF00
FF00
FF00
FFFF
FFFF
FFFF
FFFF
FF00
FF00
FF00
FF00
ENDCHAR
STARTCHAR U+2867
ENCODING 10343
SWIDTH 2000 0
DWIDTH 16 0
BBX 16 16 0 0
BITMAP
FF00
FF00
FF00
FF00
FF00
FF00
FF00
FF00
FFFF
FFFF
FFFF
FFFF
FF00
FF00
FF00
FF00
ENDCHAR
STARTCHAR U+2868
ENCODING 10344
SWIDTH 2000 0
DWIDTH 16 0
BBX 16 16 0 0
BITMAP
00FF
00FF
00FF
00FF
0000
0000
0000
0000
00FF
00FF
00FF
00FF
FF00
FF00
FF00
FF00
ENDCHAR
STARTCHAR U+2869
ENCODING 10345
SWIDTH 2000 0
DWIDTH 16 0
BBX 16 16 0 0
BITMAP
FFFF
FFFF
FFFF
FFFF
0000
0000
0000
0000
00FF
00FF
00FF
00FF
FF00
FF00
FF00
FF00
ENDCHAR
STARTCHAR U+286A
ENCODING 10346
SWIDTH 2000 0
DWIDTH 16 0
BBX 16 16 0 0
BITMAP
00FF
00FF
00FF
00FF
FF00
FF00
FF00
FF00
00FF
00FF
00FF
00FF
FF00
FF00
FF00
FF00
ENDCHAR
STARTCHAR U+286B
ENCODING 10347
SWIDTH 2000 0
DWIDTH 16 0
BBX 16 16 0 0
BITMAP
FFFF
FFFF
FFFF
FFFF
FF00
FF00
FF00
FF00
00FF
00FF
00FF
00FF
FF00
FF00
FF00
FF00
ENDCHAR
STARTCHAR U+286C
ENCODING 10348
SWIDTH 2000 0
DWIDTH 16 0
BBX 16 16 0 0
BITMAP
00FF
00FF
00FF
00FF
0000
0000
0000
0000
FFFF
FFFF
FFFF
FFFF
FF00
FF00
FF00
FF00
ENDCHAR
STARTCHAR U+286D
ENCODING 10349
SWIDTH 2000 0
DWIDTH 16 0
BBX 16 16 0 0
BITMAP
FFFF
FFFF
FFFF
FFFF
0000
0000
0000
0000
FFFF
FFFF
FFFF
FFFF
FF00
FF00
FF00
FF00
ENDCHAR
STARTCHAR U+286E
ENCODING 10350
SWIDTH 2000 0
DWIDTH 16 0
BBX 16 16 0 0
BITMAP
00FF
00FF
00FF
00FF
FF00
FF00
FF00
FF00
FFFF
FFFF
FFFF
FFFF
FF00
FF00
FF00
FF00
ENDCHAR
STARTCHAR U+286F
ENCODING 10351
SWIDTH 2000 0
DWIDTH 16 0
BBX 16 16 0 0
BITMAP
FFFF
FFFF
FFFF
FFFF
FF00
FF00
FF00
FF00
FFFF
FFFF
FFFF
FFFF
FF00
FF00
FF00
FF00
ENDCHAR
STARTCHAR U+2870
ENCODING 10352
SWIDTH 2000 0
DWIDTH 16 0
BBX 16 12 0 0
BITMAP
00FF
00FF
00FF
00FF
00FF
00FF
00FF
00FF
FF00
FF00
FF00
FF00
ENDCHAR
STARTCHAR U+2871
ENCODING 10353
SWIDTH 2000 0
DWIDTH 16 0
BBX 16 16 0 0
BITMAP
FF00
FF00
FF00
FF00
00FF
00FF
00FF
00FF
00FF
00FF
00FF
00FF
FF00
FF00
FF00
FF00
ENDCHAR
ENDFONT
